<svg xmlns="http://www.w3.org/2000/svg" xmlns:xlink="http://www.w3.org/1999/xlink" width="989" zoomAndPan="magnify" viewBox="0 0 741.75 749.999995" height="1000" preserveAspectRatio="xMidYMid meet" version="1.0"><defs><g/><clipPath id="4e5d456dfa"><path d="M 261 258 L 737.917969 258 L 737.917969 734.878906 L 261 734.878906 Z M 261 258 " clip-rule="nonzero"/></clipPath><clipPath id="37ce0a4472"><path d="M 3.164062 223 L 120 223 L 120 263 L 3.164062 263 Z M 3.164062 223 " clip-rule="nonzero"/></clipPath><clipPath id="51e3e34968"><path d="M 226 0.125 L 266 0.125 L 266 117 L 226 117 Z M 226 0.125 " clip-rule="nonzero"/></clipPath></defs><g clip-path="url(#4e5d456dfa)"><path fill="#d9d9d9" d="M 595.003906 523.09375 C 590.917969 519.007812 588.875 513.265625 589.457031 507.429688 C 590.042969 501.59375 593.15625 496.4375 598.019531 493.128906 L 737.125 400.910156 L 261.242188 258.105469 L 404.046875 734.085938 L 496.265625 594.882812 C 499.476562 590.019531 504.730469 586.90625 510.566406 586.324219 C 516.304688 585.738281 522.144531 587.78125 526.226562 591.964844 L 644.90625 710.546875 C 652.496094 718.132812 664.847656 718.132812 672.4375 710.546875 L 713.683594 669.300781 C 717.378906 665.605469 719.421875 660.742188 719.421875 655.585938 C 719.421875 650.332031 717.378906 645.46875 713.683594 641.769531 Z M 595.003906 523.09375 " fill-opacity="1" fill-rule="nonzero"/></g><path fill="#d9d9d9" d="M 101.414062 70.847656 C 93.828125 63.257812 81.472656 63.257812 73.886719 70.847656 C 66.296875 78.433594 66.296875 90.789062 73.886719 98.378906 L 128.945312 153.4375 C 132.738281 157.230469 137.699219 159.175781 142.660156 159.175781 C 147.621094 159.175781 152.585938 157.230469 156.378906 153.4375 C 163.964844 145.847656 163.964844 133.496094 156.378906 125.90625 Z M 101.414062 70.847656 " fill-opacity="1" fill-rule="nonzero"/><path fill="#d9d9d9" d="M 349.085938 159.078125 C 354.046875 159.078125 359.007812 157.132812 362.800781 153.339844 L 417.859375 98.28125 C 425.449219 90.691406 425.449219 78.335938 417.859375 70.75 C 410.273438 63.164062 397.917969 63.164062 390.332031 70.75 L 335.273438 125.808594 C 327.683594 133.398438 327.683594 145.75 335.273438 153.339844 C 339.164062 157.230469 344.125 159.078125 349.085938 159.078125 Z M 349.085938 159.078125 " fill-opacity="1" fill-rule="nonzero"/><path fill="#d9d9d9" d="M 128.945312 332.234375 L 73.886719 387.292969 C 66.296875 394.878906 66.296875 407.234375 73.886719 414.820312 C 77.679688 418.617188 82.640625 420.5625 87.601562 420.5625 C 92.5625 420.5625 97.523438 418.617188 101.320312 414.820312 L 156.378906 359.761719 C 163.964844 352.175781 163.964844 339.820312 156.378906 332.234375 C 148.886719 324.644531 136.53125 324.644531 128.945312 332.234375 Z M 128.945312 332.234375 " fill-opacity="1" fill-rule="nonzero"/><g clip-path="url(#37ce0a4472)"><path fill="#d9d9d9" d="M 119.414062 242.835938 C 119.414062 232.132812 110.65625 223.378906 99.957031 223.378906 L 22.132812 223.378906 C 11.433594 223.378906 2.679688 232.132812 2.679688 242.835938 C 2.679688 253.535156 11.433594 262.289062 22.132812 262.289062 L 99.957031 262.289062 C 110.753906 262.289062 119.414062 253.535156 119.414062 242.835938 Z M 119.414062 242.835938 " fill-opacity="1" fill-rule="nonzero"/></g><g clip-path="url(#51e3e34968)"><path fill="#d9d9d9" d="M 265.328125 19.09375 C 265.328125 8.394531 256.574219 -0.359375 245.875 -0.359375 C 235.171875 -0.359375 226.417969 8.394531 226.417969 19.09375 L 226.417969 96.917969 C 226.417969 107.617188 235.171875 116.375 245.875 116.375 C 256.574219 116.375 265.328125 107.617188 265.328125 96.917969 Z M 265.328125 19.09375 " fill-opacity="1" fill-rule="nonzero"/></g><g fill="#000000" fill-opacity="1"><g transform="translate(368.938918, 742.676065)"><g><path d="M 0.734375 -0.828125 C 0.734375 -1.097656 0.820312 -1.316406 1 -1.484375 C 1.1875 -1.648438 1.414062 -1.734375 1.6875 -1.734375 C 1.96875 -1.734375 2.195312 -1.648438 2.375 -1.484375 C 2.5625 -1.316406 2.65625 -1.097656 2.65625 -0.828125 C 2.65625 -0.566406 2.5625 -0.351562 2.375 -0.1875 C 2.195312 -0.0195312 1.96875 0.0625 1.6875 0.0625 C 1.414062 0.0625 1.1875 -0.0195312 1 -0.1875 C 0.820312 -0.351562 0.734375 -0.566406 0.734375 -0.828125 Z M 0.734375 -0.828125 "/></g></g></g></svg>