<svg xmlns="http://www.w3.org/2000/svg" xmlns:xlink="http://www.w3.org/1999/xlink" width="3396" zoomAndPan="magnify" viewBox="0 0 2547 2292.00001" height="3056" preserveAspectRatio="xMidYMid meet" version="1.0"><defs><g/><clipPath id="a2a7586e56"><path d="M 63 0 L 2421 0 L 2421 2290.804688 L 63 2290.804688 Z M 63 0 " clip-rule="nonzero"/></clipPath><clipPath id="84a2dce26a"><path d="M 1.398438 50 L 2545.417969 50 L 2545.417969 2290.804688 L 1.398438 2290.804688 Z M 1.398438 50 " clip-rule="nonzero"/></clipPath></defs><g clip-path="url(#a2a7586e56)"><path fill="#ffc300" d="M 433.199219 1125.101562 L 196.742188 1125.101562 C 187.300781 1125.101562 179.667969 1117.46875 179.667969 1108.050781 L 179.667969 1078.496094 C 179.667969 1069.078125 187.300781 1061.445312 196.742188 1061.445312 L 433.199219 1061.445312 C 442.621094 1061.445312 450.253906 1069.078125 450.253906 1078.496094 L 450.253906 1108.050781 C 450.253906 1117.46875 442.621094 1125.101562 433.199219 1125.101562 Z M 64.101562 923.71875 L 64.101562 828.125 L 115.933594 828.125 L 115.933594 923.71875 C 115.933594 927.117188 113.171875 929.878906 109.773438 929.878906 L 70.261719 929.878906 C 66.863281 929.878906 64.101562 927.117188 64.101562 923.71875 Z M 493.320312 265.296875 L 492.980469 265.21875 L 492.980469 214.519531 C 492.980469 96.050781 396.929688 0 278.460938 0 C 159.972656 0 63.941406 96.050781 63.941406 214.519531 L 63.941406 313.691406 L 75.828125 313.691406 L 124.757812 487.46875 C 126.683594 494.285156 133.761719 498.238281 140.558594 496.332031 L 170.765625 487.824219 C 177.582031 485.898438 181.539062 478.820312 179.628906 472.023438 L 119.90625 260.011719 C 117.980469 253.214844 110.925781 249.257812 104.109375 251.167969 L 85.625 256.375 L 85.625 223.820312 C 85.625 116.421875 171.976562 47.777344 278.460938 47.777344 C 384.964844 47.777344 471.277344 116.421875 471.277344 223.820312 L 471.277344 259.097656 L 463.109375 256.789062 C 456.292969 254.882812 449.238281 258.835938 447.332031 265.65625 L 387.589844 477.648438 C 385.683594 484.464844 389.636719 491.523438 396.453125 493.449219 L 426.660156 501.957031 C 433.457031 503.863281 440.535156 499.910156 442.460938 493.113281 L 502.164062 281.097656 C 504.089844 274.300781 500.117188 267.226562 493.320312 265.296875 Z M 1063.5 333.78125 L 1071.152344 341.433594 L 1130.277344 282.308594 L 1122.625 274.65625 Z M 1129.679688 255.042969 L 1122.03125 247.390625 L 1062.90625 306.515625 L 1070.554688 314.167969 Z M 2350.855469 2290.804688 L 173.847656 2290.804688 C 173.847656 2290.804688 331.742188 1938.5625 513.453125 1743.757812 C 695.160156 1548.972656 576.074219 1425.375 702.949219 1133.429688 C 1043.171875 350.535156 1576.167969 250.75 2008.386719 362.757812 C 2741.117188 552.613281 1838.226562 1067.148438 2208.417969 1165.027344 C 2578.609375 1262.90625 2350.855469 2290.804688 2350.855469 2290.804688 " fill-opacity="1" fill-rule="nonzero"/></g><path fill="#003566" d="M 405 1801.410156 L 150.078125 1801.410156 C 145.367188 1801.410156 141.550781 1805.226562 141.550781 1809.917969 L 141.550781 1829.195312 L 160.429688 1829.195312 L 177.542969 2017.183594 L 377.535156 2017.183594 L 394.644531 1829.195312 L 413.523438 1829.195312 L 413.523438 1809.917969 C 413.523438 1805.226562 409.710938 1801.410156 405 1801.410156 Z M 1294.316406 1738.390625 C 1294.316406 1705.9375 1263.253906 1679.605469 1224.9375 1679.605469 C 1186.621094 1679.605469 1155.558594 1705.9375 1155.558594 1738.390625 C 1155.558594 1770.863281 1186.621094 1797.175781 1224.9375 1797.175781 C 1263.253906 1797.175781 1294.316406 1770.863281 1294.316406 1738.390625 Z M 1709.464844 1480.308594 L 1740.40625 1544.480469 L 1740.40625 1480.308594 Z M 1843.492188 1718.078125 L 1841.761719 1747.851562 L 1596.0625 1828.976562 L 1588.371094 1803.933594 L 1574.320312 1997.984375 L 1533.898438 1999.253906 L 1536.976562 1970.675781 C 1538.03125 1965.925781 1534.929688 1961.296875 1530.65625 1961.296875 L 942.90625 1961.296875 L 909.261719 1697.410156 L 775.289062 1845.3125 L 572.476562 1728.015625 L 570.09375 1688.507812 C 569.394531 1676.800781 577.980469 1666.605469 589.628906 1665.3125 L 604.078125 1663.722656 L 861.761719 1324.65625 L 1247.15625 1177.847656 L 1624.503906 1304.164062 L 1703.363281 1467.667969 L 1740.84375 1467.667969 C 1744.0625 1467.667969 1746.847656 1468.859375 1749.210938 1471.246094 C 1751.554688 1473.609375 1752.75 1476.433594 1752.75 1479.710938 L 1752.75 1554.398438 C 1752.75 1557.675781 1751.574219 1560.5 1749.269531 1562.84375 L 1810.679688 1690.214844 L 1828.070312 1695.703125 C 1837.710938 1698.742188 1844.070312 1707.964844 1843.492188 1718.078125 Z M 2042.75 505.574219 L 2088.101562 505.574219 C 2091.699219 505.574219 2094.621094 502.671875 2094.621094 499.074219 L 2094.621094 491.125 L 2036.25 491.125 L 2036.25 499.074219 C 2036.25 502.671875 2039.152344 505.574219 2042.75 505.574219 Z M 1370.574219 345.210938 C 1381.960938 345.210938 1391.222656 335.949219 1391.222656 324.5625 C 1391.222656 313.171875 1381.960938 303.910156 1370.574219 303.910156 C 1359.207031 303.910156 1349.925781 313.171875 1349.925781 324.5625 C 1349.925781 335.949219 1359.207031 345.210938 1370.574219 345.210938 Z M 1347.917969 174.015625 L 845.5625 174.015625 L 845.5625 475.105469 L 1347.917969 475.105469 Z M 1930.183594 1521.707031 C 1928.433594 1521.707031 1926.964844 1522.320312 1925.75 1523.554688 C 1924.539062 1524.785156 1923.941406 1526.238281 1923.941406 1527.925781 L 1923.941406 1553.941406 L 1911.460938 1553.941406 L 1911.460938 1467.828125 L 1880.101562 1467.828125 C 1878.371094 1467.828125 1876.878906 1468.421875 1875.667969 1469.636719 C 1874.457031 1470.867188 1873.859375 1472.339844 1873.859375 1474.066406 C 1873.859375 1475.796875 1874.457031 1477.265625 1875.667969 1478.480469 C 1876.878906 1479.691406 1878.371094 1480.308594 1880.101562 1480.308594 L 1898.960938 1480.308594 L 1898.960938 1553.941406 L 1879.800781 1553.941406 C 1878.074219 1553.941406 1876.582031 1554.539062 1875.371094 1555.730469 C 1874.15625 1556.921875 1873.5625 1558.351562 1873.5625 1560.042969 C 1873.5625 1561.769531 1874.15625 1563.261719 1875.371094 1564.535156 C 1876.582031 1565.785156 1878.074219 1566.421875 1879.800781 1566.421875 L 1930.183594 1566.421875 C 1931.910156 1566.421875 1933.382812 1565.824219 1934.59375 1564.59375 C 1935.808594 1563.382812 1936.421875 1561.910156 1936.421875 1560.179688 L 1936.421875 1527.925781 C 1936.421875 1526.195312 1935.808594 1524.726562 1934.59375 1523.515625 C 1933.382812 1522.300781 1931.910156 1521.707031 1930.183594 1521.707031 Z M 1832.324219 1480.308594 L 1794.285156 1480.308594 L 1794.285156 1553.941406 L 1832.324219 1553.941406 Z M 1841.128906 1471.246094 C 1843.472656 1473.609375 1844.664062 1476.433594 1844.664062 1479.710938 L 1844.664062 1554.398438 C 1844.664062 1557.71875 1843.472656 1560.539062 1841.128906 1562.882812 C 1838.761719 1565.25 1835.941406 1566.421875 1832.621094 1566.421875 L 1793.828125 1566.421875 C 1790.46875 1566.421875 1787.628906 1565.25 1785.28125 1562.882812 C 1782.957031 1560.539062 1781.785156 1557.71875 1781.785156 1554.398438 L 1781.785156 1479.710938 C 1781.785156 1476.433594 1782.976562 1473.609375 1785.363281 1471.246094 C 1787.726562 1468.859375 1790.546875 1467.667969 1793.828125 1467.667969 L 1832.761719 1467.667969 C 1835.980469 1467.667969 1838.761719 1468.859375 1841.128906 1471.246094 Z M 2308.820312 1227.214844 L 2308.820312 1249.949219 L 2296.339844 1249.949219 L 2296.339844 1214.433594 C 2292.304688 1210.597656 2288.152344 1206.941406 2283.859375 1203.445312 L 2283.859375 1249.949219 L 2264.679688 1249.949219 C 2262.953125 1249.949219 2261.480469 1250.546875 2260.269531 1251.738281 C 2259.054688 1252.929688 2258.460938 1254.363281 2258.460938 1256.050781 C 2258.460938 1257.78125 2259.054688 1259.269531 2260.269531 1260.542969 C 2261.480469 1261.792969 2262.953125 1262.429688 2264.679688 1262.429688 L 2315.0625 1262.429688 C 2316.789062 1262.429688 2318.28125 1261.835938 2319.492188 1260.601562 C 2320.703125 1259.390625 2321.300781 1257.917969 2321.300781 1256.191406 L 2321.300781 1242.140625 C 2317.285156 1236.972656 2313.132812 1231.984375 2308.820312 1227.214844 Z M 2217.203125 1176.316406 L 2179.164062 1176.316406 L 2179.164062 1249.949219 L 2217.203125 1249.949219 Z M 2228.808594 1171.605469 C 2229.265625 1172.898438 2229.542969 1174.25 2229.542969 1175.71875 L 2229.542969 1250.40625 C 2229.542969 1253.726562 2228.371094 1256.546875 2226.027344 1258.894531 C 2223.660156 1261.257812 2220.820312 1262.429688 2217.5 1262.429688 L 2178.707031 1262.429688 C 2175.347656 1262.429688 2172.503906 1261.257812 2170.179688 1258.894531 C 2167.835938 1256.546875 2166.683594 1253.726562 2166.683594 1250.40625 L 2166.683594 1175.71875 C 2166.683594 1172.441406 2167.875 1169.621094 2170.238281 1167.253906 C 2172.625 1164.871094 2175.445312 1163.675781 2178.707031 1163.675781 L 2203.648438 1163.675781 C 2205.21875 1164.132812 2206.789062 1164.589844 2208.417969 1165.027344 C 2215.433594 1166.875 2222.210938 1169.101562 2228.808594 1171.605469 Z M 2125.285156 1176.316406 L 2087.246094 1176.316406 L 2087.246094 1249.949219 L 2125.285156 1249.949219 Z M 2134.089844 1167.253906 C 2136.453125 1169.621094 2137.625 1172.441406 2137.625 1175.71875 L 2137.625 1250.40625 C 2137.625 1253.726562 2136.453125 1256.546875 2134.089844 1258.894531 C 2131.742188 1261.257812 2128.902344 1262.429688 2125.582031 1262.429688 L 2086.808594 1262.429688 C 2083.429688 1262.429688 2080.589844 1261.257812 2078.261719 1258.894531 C 2075.9375 1256.546875 2074.765625 1253.726562 2074.765625 1250.40625 L 2074.765625 1175.71875 C 2074.765625 1172.441406 2075.957031 1169.621094 2078.34375 1167.253906 C 2080.707031 1164.871094 2083.53125 1163.675781 2086.808594 1163.675781 L 2125.742188 1163.675781 C 2128.960938 1163.675781 2131.742188 1164.871094 2134.089844 1167.253906 Z M 2039.328125 1217.714844 C 2037.601562 1217.714844 2036.109375 1218.332031 2034.898438 1219.5625 C 2033.6875 1220.792969 2033.089844 1222.265625 2033.089844 1223.933594 L 2033.089844 1249.949219 L 2020.609375 1249.949219 L 2020.609375 1163.835938 L 1989.246094 1163.835938 C 1987.5 1163.835938 1986.046875 1164.433594 1984.816406 1165.644531 C 1983.605469 1166.875 1983.007812 1168.347656 1983.007812 1170.078125 C 1983.007812 1171.804688 1983.605469 1173.277344 1984.816406 1174.488281 C 1986.046875 1175.699219 1987.5 1176.316406 1989.246094 1176.316406 L 2008.128906 1176.316406 L 2008.128906 1249.949219 L 1988.949219 1249.949219 C 1987.222656 1249.949219 1985.730469 1250.546875 1984.519531 1251.738281 C 1983.324219 1252.929688 1982.710938 1254.363281 1982.710938 1256.050781 C 1982.710938 1257.78125 1983.324219 1259.269531 1984.519531 1260.542969 C 1985.730469 1261.792969 1987.222656 1262.429688 1988.949219 1262.429688 L 2039.328125 1262.429688 C 2041.058594 1262.429688 2042.53125 1261.835938 2043.742188 1260.601562 C 2044.953125 1259.390625 2045.570312 1257.917969 2045.570312 1256.191406 L 2045.570312 1223.933594 C 2045.570312 1222.207031 2044.953125 1220.734375 2043.742188 1219.523438 C 2042.53125 1218.308594 2041.058594 1217.714844 2039.328125 1217.714844 Z M 1941.472656 1176.316406 L 1903.433594 1176.316406 L 1903.433594 1249.949219 L 1941.472656 1249.949219 Z M 1950.273438 1167.253906 C 1952.621094 1169.621094 1953.792969 1172.441406 1953.792969 1175.71875 L 1953.792969 1250.40625 C 1953.792969 1253.726562 1952.621094 1256.546875 1950.273438 1258.894531 C 1947.910156 1261.257812 1945.089844 1262.429688 1941.769531 1262.429688 L 1902.976562 1262.429688 C 1899.617188 1262.429688 1896.753906 1261.257812 1894.429688 1258.894531 C 1892.105469 1256.546875 1890.933594 1253.726562 1890.933594 1250.40625 L 1890.933594 1175.71875 C 1890.933594 1172.441406 1892.125 1169.621094 1894.507812 1167.253906 C 1896.875 1164.871094 1899.695312 1163.675781 1902.976562 1163.675781 L 1941.910156 1163.675781 C 1945.128906 1163.675781 1947.910156 1164.871094 1950.273438 1167.253906 Z M 1793.390625 891.34375 L 1831.410156 891.34375 L 1831.410156 817.710938 L 1793.390625 817.710938 Z M 1792.933594 805.070312 L 1831.867188 805.070312 C 1835.085938 805.070312 1837.867188 806.265625 1840.234375 808.648438 C 1842.578125 811.015625 1843.75 813.855469 1843.75 817.117188 L 1843.75 891.800781 C 1843.75 895.121094 1842.578125 897.941406 1840.234375 900.308594 C 1837.867188 902.652344 1835.046875 903.824219 1831.726562 903.824219 L 1792.933594 903.824219 C 1789.574219 903.824219 1786.710938 902.652344 1784.386719 900.308594 C 1782.0625 897.941406 1780.890625 895.121094 1780.890625 891.800781 L 1780.890625 817.117188 C 1780.890625 813.855469 1782.082031 811.015625 1784.46875 808.648438 C 1786.832031 806.265625 1789.652344 805.070312 1792.933594 805.070312 Z M 1695.074219 891.34375 C 1693.34375 891.34375 1691.855469 891.941406 1690.640625 893.132812 C 1689.429688 894.324219 1688.832031 895.757812 1688.832031 897.445312 C 1688.832031 899.175781 1689.429688 900.664062 1690.640625 901.9375 C 1691.855469 903.191406 1693.34375 903.824219 1695.074219 903.824219 L 1745.453125 903.824219 C 1747.183594 903.824219 1748.65625 903.230469 1749.867188 902.015625 C 1751.078125 900.804688 1751.695312 899.335938 1751.695312 897.605469 L 1751.695312 865.351562 C 1751.695312 863.601562 1751.078125 862.128906 1749.867188 860.917969 C 1748.65625 859.707031 1747.183594 859.109375 1745.453125 859.109375 C 1743.707031 859.109375 1742.234375 859.726562 1741.023438 860.957031 C 1739.808594 862.210938 1739.214844 863.660156 1739.214844 865.351562 L 1739.214844 891.34375 L 1726.734375 891.34375 L 1726.734375 805.230469 L 1695.371094 805.230469 C 1693.644531 805.230469 1692.152344 805.847656 1690.960938 807.058594 C 1689.726562 808.273438 1689.132812 809.742188 1689.132812 811.472656 C 1689.132812 813.21875 1689.726562 814.691406 1690.960938 815.882812 C 1692.152344 817.117188 1693.644531 817.710938 1695.371094 817.710938 L 1714.253906 817.710938 L 1714.253906 891.34375 Z M 1609.558594 891.34375 L 1647.59375 891.34375 L 1647.59375 817.710938 L 1609.558594 817.710938 Z M 1609.101562 805.070312 L 1648.03125 805.070312 C 1651.253906 805.070312 1654.035156 806.265625 1656.398438 808.648438 C 1658.746094 811.015625 1659.917969 813.855469 1659.917969 817.117188 L 1659.917969 891.800781 C 1659.917969 895.121094 1658.746094 897.941406 1656.398438 900.308594 C 1654.035156 902.652344 1651.210938 903.824219 1647.894531 903.824219 L 1609.101562 903.824219 C 1605.742188 903.824219 1602.878906 902.652344 1600.554688 900.308594 C 1598.230469 897.941406 1597.074219 895.121094 1597.074219 891.800781 L 1597.074219 817.117188 C 1597.074219 813.855469 1598.25 811.015625 1600.632812 808.648438 C 1603.019531 806.265625 1605.839844 805.070312 1609.101562 805.070312 Z M 1542.898438 805.230469 L 1511.539062 805.230469 C 1509.808594 805.230469 1508.339844 805.847656 1507.125 807.058594 C 1505.914062 808.273438 1505.296875 809.742188 1505.296875 811.472656 C 1505.296875 813.21875 1505.914062 814.691406 1507.125 815.882812 C 1508.339844 817.117188 1509.808594 817.710938 1511.539062 817.710938 L 1530.417969 817.710938 L 1530.417969 891.34375 L 1511.242188 891.34375 C 1509.511719 891.34375 1508.039062 891.941406 1506.828125 893.132812 C 1505.617188 894.324219 1505 895.757812 1505 897.445312 C 1505 899.175781 1505.617188 900.664062 1506.828125 901.9375 C 1508.039062 903.191406 1509.511719 903.824219 1511.242188 903.824219 L 1561.621094 903.824219 C 1563.351562 903.824219 1564.839844 903.230469 1566.03125 902.015625 C 1567.265625 900.804688 1567.863281 899.335938 1567.863281 897.605469 L 1567.863281 865.351562 C 1567.863281 863.601562 1567.265625 862.128906 1566.03125 860.917969 C 1564.839844 859.707031 1563.351562 859.109375 1561.621094 859.109375 C 1559.890625 859.109375 1558.421875 859.726562 1557.210938 860.957031 C 1555.996094 862.210938 1555.378906 863.660156 1555.378906 865.351562 L 1555.378906 891.34375 L 1542.898438 891.34375 Z M 1425.722656 891.34375 L 1463.761719 891.34375 L 1463.761719 817.710938 L 1425.722656 817.710938 Z M 1425.265625 805.070312 L 1464.21875 805.070312 C 1467.4375 805.070312 1470.222656 806.265625 1472.566406 808.648438 C 1474.929688 811.015625 1476.105469 813.855469 1476.105469 817.117188 L 1476.105469 891.800781 C 1476.105469 895.121094 1474.929688 897.941406 1472.566406 900.308594 C 1470.222656 902.652344 1467.378906 903.824219 1464.058594 903.824219 L 1425.265625 903.824219 C 1421.90625 903.824219 1419.066406 902.652344 1416.738281 900.308594 C 1414.394531 897.941406 1413.242188 895.121094 1413.242188 891.800781 L 1413.242188 817.117188 C 1413.242188 813.855469 1414.433594 811.015625 1416.800781 808.648438 C 1419.183594 806.265625 1422.007812 805.070312 1425.265625 805.070312 Z M 1327.425781 891.34375 C 1325.679688 891.34375 1324.207031 891.941406 1322.996094 893.132812 C 1321.78125 894.324219 1321.1875 895.757812 1321.1875 897.445312 C 1321.1875 899.175781 1321.78125 900.664062 1322.996094 901.9375 C 1324.207031 903.191406 1325.679688 903.824219 1327.425781 903.824219 L 1377.789062 903.824219 C 1379.515625 903.824219 1381.007812 903.230469 1382.21875 902.015625 C 1383.429688 900.804688 1384.046875 899.335938 1384.046875 897.605469 L 1384.046875 865.351562 C 1384.046875 863.601562 1383.429688 862.128906 1382.21875 860.917969 C 1381.007812 859.707031 1379.515625 859.109375 1377.789062 859.109375 C 1376.058594 859.109375 1374.585938 859.726562 1373.375 860.957031 C 1372.164062 862.210938 1371.546875 863.660156 1371.546875 865.351562 L 1371.546875 891.34375 L 1359.066406 891.34375 L 1359.066406 805.230469 L 1327.707031 805.230469 C 1325.976562 805.230469 1324.503906 805.847656 1323.292969 807.058594 C 1322.082031 808.273438 1321.484375 809.742188 1321.484375 811.472656 C 1321.484375 813.21875 1322.082031 814.691406 1323.292969 815.882812 C 1324.503906 817.117188 1325.976562 817.710938 1327.707031 817.710938 L 1346.585938 817.710938 L 1346.585938 891.34375 Z M 1235.511719 891.34375 C 1233.761719 891.34375 1232.289062 891.941406 1231.078125 893.132812 C 1229.886719 894.324219 1229.269531 895.757812 1229.269531 897.445312 C 1229.269531 899.175781 1229.886719 900.664062 1231.078125 901.9375 C 1232.289062 903.191406 1233.761719 903.824219 1235.511719 903.824219 L 1285.890625 903.824219 C 1287.621094 903.824219 1289.089844 903.230469 1290.300781 902.015625 C 1291.515625 900.804688 1292.128906 899.335938 1292.128906 897.605469 L 1292.128906 865.351562 C 1292.128906 863.601562 1291.515625 862.128906 1290.300781 860.917969 C 1289.089844 859.707031 1287.621094 859.109375 1285.890625 859.109375 C 1284.140625 859.109375 1282.671875 859.726562 1281.457031 860.957031 C 1280.246094 862.210938 1279.628906 863.660156 1279.628906 865.351562 L 1279.628906 891.34375 L 1267.148438 891.34375 L 1267.148438 805.230469 L 1235.808594 805.230469 C 1234.058594 805.230469 1232.589844 805.847656 1231.394531 807.058594 C 1230.164062 808.273438 1229.566406 809.742188 1229.566406 811.472656 C 1229.566406 813.21875 1230.164062 814.691406 1231.394531 815.882812 C 1232.589844 817.117188 1234.058594 817.710938 1235.808594 817.710938 L 1254.6875 817.710938 L 1254.6875 891.34375 Z M 1149.992188 891.34375 L 1188.03125 891.34375 L 1188.03125 817.710938 L 1149.992188 817.710938 Z M 1140.988281 900.308594 C 1138.664062 897.941406 1137.511719 895.121094 1137.511719 891.800781 L 1137.511719 817.117188 C 1137.511719 813.855469 1138.683594 811.015625 1141.070312 808.648438 C 1143.453125 806.265625 1146.257812 805.070312 1149.535156 805.070312 L 1188.46875 805.070312 C 1191.6875 805.070312 1194.46875 806.265625 1196.835938 808.648438 C 1199.179688 811.015625 1200.351562 813.855469 1200.351562 817.117188 L 1200.351562 891.800781 C 1200.351562 895.121094 1199.179688 897.941406 1196.835938 900.308594 C 1194.46875 902.652344 1191.648438 903.824219 1188.328125 903.824219 L 1149.535156 903.824219 C 1146.175781 903.824219 1143.316406 902.652344 1140.988281 900.308594 Z M 2179.320312 642.445312 L 2141.261719 642.445312 L 2141.261719 716.078125 L 2179.320312 716.078125 Z M 2179.621094 728.558594 L 2140.824219 728.558594 C 2137.46875 728.558594 2134.605469 727.386719 2132.28125 725.019531 C 2129.957031 722.675781 2128.78125 719.832031 2128.78125 716.515625 L 2128.78125 641.828125 C 2128.78125 638.570312 2129.976562 635.746094 2132.359375 633.363281 C 2134.726562 630.996094 2137.546875 629.804688 2140.824219 629.804688 L 2179.757812 629.804688 C 2182.980469 629.804688 2185.761719 630.996094 2188.125 633.363281 C 2190.472656 635.746094 2191.644531 638.570312 2191.644531 641.828125 L 2191.644531 716.515625 C 2191.644531 719.832031 2190.472656 722.675781 2188.125 725.019531 C 2185.761719 727.386719 2182.9375 728.558594 2179.621094 728.558594 Z M 2088.933594 685.667969 C 2087.703125 686.921875 2087.105469 688.390625 2087.105469 690.0625 L 2087.105469 716.078125 L 2074.625 716.078125 L 2074.625 629.941406 L 2043.265625 629.941406 C 2041.535156 629.941406 2040.046875 630.558594 2038.851562 631.773438 C 2037.621094 632.984375 2037.023438 634.453125 2037.023438 636.203125 C 2037.023438 637.933594 2037.621094 639.402344 2038.851562 640.617188 C 2040.046875 641.828125 2041.535156 642.445312 2043.265625 642.445312 L 2062.144531 642.445312 L 2062.144531 716.078125 L 2042.96875 716.078125 C 2041.238281 716.078125 2039.765625 716.671875 2038.535156 717.867188 C 2037.34375 719.039062 2036.726562 720.488281 2036.726562 722.160156 C 2036.726562 723.90625 2037.34375 725.398438 2038.535156 726.648438 C 2039.765625 727.921875 2041.238281 728.558594 2042.96875 728.558594 L 2093.347656 728.558594 C 2095.078125 728.558594 2096.546875 727.941406 2097.777344 726.730469 C 2098.972656 725.515625 2099.585938 724.046875 2099.585938 722.316406 L 2099.585938 690.0625 C 2099.585938 688.332031 2098.972656 686.863281 2097.777344 685.648438 C 2096.546875 684.417969 2095.078125 683.820312 2093.347656 683.820312 C 2091.617188 683.820312 2090.148438 684.4375 2088.933594 685.667969 Z M 1995.488281 642.445312 L 1957.449219 642.445312 L 1957.449219 716.078125 L 1995.488281 716.078125 Z M 1995.785156 728.558594 L 1956.992188 728.558594 C 1953.632812 728.558594 1950.792969 727.386719 1948.445312 725.019531 C 1946.121094 722.675781 1944.96875 719.832031 1944.96875 716.515625 L 1944.96875 641.828125 C 1944.96875 638.570312 1946.140625 635.746094 1948.527344 633.363281 C 1950.910156 630.996094 1953.734375 629.804688 1956.992188 629.804688 L 1995.925781 629.804688 C 1999.144531 629.804688 2001.949219 630.996094 2004.292969 633.363281 C 2006.65625 635.746094 2007.828125 638.570312 2007.828125 641.828125 L 2007.828125 716.515625 C 2007.828125 719.832031 2006.65625 722.675781 2004.292969 725.019531 C 2001.949219 727.386719 1999.105469 728.558594 1995.785156 728.558594 Z M 1913.945312 726.730469 C 1915.15625 725.515625 1915.753906 724.046875 1915.753906 722.316406 L 1915.753906 690.0625 C 1915.753906 688.332031 1915.15625 686.863281 1913.945312 685.648438 C 1912.734375 684.417969 1911.261719 683.820312 1909.515625 683.820312 C 1907.785156 683.820312 1906.3125 684.4375 1905.101562 685.667969 C 1903.890625 686.921875 1903.273438 688.390625 1903.273438 690.0625 L 1903.273438 716.078125 L 1890.792969 716.078125 L 1890.792969 629.941406 L 1859.429688 629.941406 C 1857.703125 629.941406 1856.230469 630.558594 1855.019531 631.773438 C 1853.808594 632.984375 1853.191406 634.453125 1853.191406 636.203125 C 1853.191406 637.933594 1853.808594 639.402344 1855.019531 640.617188 C 1856.230469 641.828125 1857.703125 642.445312 1859.429688 642.445312 L 1878.3125 642.445312 L 1878.3125 716.078125 L 1859.132812 716.078125 C 1857.40625 716.078125 1855.933594 716.671875 1854.722656 717.867188 C 1853.507812 719.039062 1852.894531 720.488281 1852.894531 722.160156 C 1852.894531 723.90625 1853.507812 725.398438 1854.722656 726.648438 C 1855.933594 727.921875 1857.40625 728.558594 1859.132812 728.558594 L 1909.515625 728.558594 C 1911.261719 728.558594 1912.734375 727.941406 1913.945312 726.730469 Z M 1811.65625 642.445312 L 1773.617188 642.445312 L 1773.617188 716.078125 L 1811.65625 716.078125 Z M 1812.113281 629.804688 C 1815.332031 629.804688 1818.113281 630.996094 1820.457031 633.363281 C 1822.824219 635.746094 1823.996094 638.570312 1823.996094 641.828125 L 1823.996094 716.515625 C 1823.996094 719.832031 1822.824219 722.675781 1820.457031 725.019531 C 1818.113281 727.386719 1815.273438 728.558594 1811.953125 728.558594 L 1773.179688 728.558594 C 1769.800781 728.558594 1766.957031 727.386719 1764.632812 725.019531 C 1762.289062 722.675781 1761.136719 719.832031 1761.136719 716.515625 L 1761.136719 641.828125 C 1761.136719 638.570312 1762.328125 635.746094 1764.691406 633.363281 C 1767.078125 630.996094 1769.898438 629.804688 1773.179688 629.804688 Z M 1675.320312 716.078125 C 1673.589844 716.078125 1672.101562 716.671875 1670.886719 717.867188 C 1669.675781 719.039062 1669.078125 720.488281 1669.078125 722.160156 C 1669.078125 723.90625 1669.675781 725.398438 1670.886719 726.648438 C 1672.101562 727.921875 1673.589844 728.558594 1675.320312 728.558594 L 1725.679688 728.558594 C 1727.429688 728.558594 1728.898438 727.941406 1730.113281 726.730469 C 1731.324219 725.515625 1731.941406 724.046875 1731.941406 722.316406 L 1731.941406 690.0625 C 1731.941406 688.332031 1731.324219 686.863281 1730.113281 685.648438 C 1728.898438 684.417969 1727.429688 683.820312 1725.679688 683.820312 C 1723.949219 683.820312 1722.480469 684.4375 1721.269531 685.667969 C 1720.054688 686.921875 1719.441406 688.390625 1719.441406 690.0625 L 1719.441406 716.078125 L 1706.957031 716.078125 L 1706.957031 629.941406 L 1675.597656 629.941406 C 1673.867188 629.941406 1672.398438 630.558594 1671.1875 631.773438 C 1669.972656 632.984375 1669.378906 634.453125 1669.378906 636.203125 C 1669.378906 637.933594 1669.972656 639.402344 1671.1875 640.617188 C 1672.398438 641.828125 1673.867188 642.445312 1675.597656 642.445312 L 1694.476562 642.445312 L 1694.476562 716.078125 Z M 1629.351562 685.667969 C 1628.140625 686.921875 1627.542969 688.390625 1627.542969 690.0625 L 1627.542969 716.078125 L 1615.042969 716.078125 L 1615.042969 629.941406 L 1583.699219 629.941406 C 1581.953125 629.941406 1580.480469 630.558594 1579.289062 631.773438 C 1578.058594 632.984375 1577.460938 634.453125 1577.460938 636.203125 C 1577.460938 637.933594 1578.058594 639.402344 1579.289062 640.617188 C 1580.480469 641.828125 1581.953125 642.445312 1583.699219 642.445312 L 1602.582031 642.445312 L 1602.582031 716.078125 L 1583.402344 716.078125 C 1581.671875 716.078125 1580.183594 716.671875 1578.972656 717.867188 C 1577.777344 719.039062 1577.164062 720.488281 1577.164062 722.160156 C 1577.164062 723.90625 1577.777344 725.398438 1578.972656 726.648438 C 1580.183594 727.921875 1581.671875 728.558594 1583.402344 728.558594 L 1633.78125 728.558594 C 1635.511719 728.558594 1636.984375 727.941406 1638.195312 726.730469 C 1639.40625 725.515625 1640.023438 724.046875 1640.023438 722.316406 L 1640.023438 690.0625 C 1640.023438 688.332031 1639.40625 686.863281 1638.195312 685.648438 C 1636.984375 684.417969 1635.511719 683.820312 1633.78125 683.820312 C 1632.054688 683.820312 1630.5625 684.4375 1629.351562 685.667969 Z M 1535.925781 642.445312 L 1497.886719 642.445312 L 1497.886719 716.078125 L 1535.925781 716.078125 Z M 1536.359375 629.804688 C 1539.582031 629.804688 1542.363281 630.996094 1544.726562 633.363281 C 1547.074219 635.746094 1548.246094 638.570312 1548.246094 641.828125 L 1548.246094 716.515625 C 1548.246094 719.832031 1547.074219 722.675781 1544.726562 725.019531 C 1542.363281 727.386719 1539.542969 728.558594 1536.222656 728.558594 L 1497.429688 728.558594 C 1494.070312 728.558594 1491.207031 727.386719 1488.882812 725.019531 C 1486.558594 722.675781 1485.382812 719.832031 1485.382812 716.515625 L 1485.382812 641.828125 C 1485.382812 638.570312 1486.578125 635.746094 1488.960938 633.363281 C 1491.328125 630.996094 1494.148438 629.804688 1497.429688 629.804688 Z M 1769.5625 586.558594 L 1807.601562 586.558594 L 1807.601562 512.925781 L 1769.5625 512.925781 Z M 1760.558594 595.523438 C 1758.234375 593.175781 1757.082031 590.335938 1757.082031 587.015625 L 1757.082031 512.328125 C 1757.082031 509.070312 1758.273438 506.25 1760.636719 503.863281 C 1763.023438 501.5 1765.84375 500.304688 1769.105469 500.304688 L 1808.058594 500.304688 C 1811.257812 500.304688 1814.058594 501.5 1816.40625 503.863281 C 1818.75 506.25 1819.941406 509.070312 1819.941406 512.328125 L 1819.941406 587.015625 C 1819.941406 590.335938 1818.75 593.175781 1816.40625 595.523438 C 1814.058594 597.886719 1811.21875 599.058594 1807.898438 599.058594 L 1769.105469 599.058594 C 1765.746094 599.058594 1762.902344 597.886719 1760.558594 595.523438 Z M 1671.265625 586.558594 C 1669.515625 586.558594 1668.046875 587.175781 1666.832031 588.367188 C 1665.621094 589.539062 1665.003906 590.96875 1665.003906 592.660156 C 1665.003906 594.390625 1665.621094 595.898438 1666.832031 597.152344 C 1668.046875 598.421875 1669.515625 599.058594 1671.265625 599.058594 L 1721.625 599.058594 C 1723.355469 599.058594 1724.84375 598.441406 1726.058594 597.230469 C 1727.269531 596.019531 1727.886719 594.546875 1727.886719 592.820312 L 1727.886719 560.5625 C 1727.886719 558.835938 1727.269531 557.363281 1726.058594 556.152344 C 1724.84375 554.917969 1723.355469 554.324219 1721.625 554.324219 C 1719.898438 554.324219 1718.425781 554.9375 1717.214844 556.171875 C 1716 557.421875 1715.386719 558.875 1715.386719 560.5625 L 1715.386719 586.558594 L 1702.90625 586.558594 L 1702.90625 505.574219 L 1744.144531 505.574219 C 1747.71875 505.574219 1750.640625 502.671875 1750.640625 499.074219 L 1750.640625 491.125 L 1692.273438 491.125 L 1692.273438 499.074219 C 1692.273438 499.550781 1692.472656 499.988281 1692.570312 500.445312 L 1671.542969 500.445312 C 1669.816406 500.445312 1668.34375 501.0625 1667.132812 502.273438 C 1665.917969 503.484375 1665.324219 504.976562 1665.324219 506.707031 C 1665.324219 508.433594 1665.917969 509.90625 1667.132812 511.117188 C 1668.34375 512.328125 1669.816406 512.925781 1671.542969 512.925781 L 1690.421875 512.925781 L 1690.421875 586.558594 Z M 1585.726562 586.558594 L 1623.785156 586.558594 L 1623.785156 512.925781 L 1585.726562 512.925781 Z M 1576.746094 595.523438 C 1574.417969 593.175781 1573.246094 590.335938 1573.246094 587.015625 L 1573.246094 512.328125 C 1573.246094 509.070312 1574.441406 506.25 1576.824219 503.863281 C 1579.191406 501.5 1582.011719 500.304688 1585.289062 500.304688 L 1624.222656 500.304688 C 1627.441406 500.304688 1630.226562 501.5 1632.570312 503.863281 C 1634.9375 506.25 1636.109375 509.070312 1636.109375 512.328125 L 1636.109375 587.015625 C 1636.109375 590.335938 1634.9375 593.175781 1632.570312 595.523438 C 1630.226562 597.886719 1627.402344 599.058594 1624.066406 599.058594 L 1585.289062 599.058594 C 1581.914062 599.058594 1579.070312 597.886719 1576.746094 595.523438 Z M 1493.832031 586.558594 L 1531.851562 586.558594 L 1531.851562 512.925781 L 1493.832031 512.925781 Z M 1484.828125 595.523438 C 1482.503906 593.175781 1481.332031 590.335938 1481.332031 587.015625 L 1481.332031 512.328125 C 1481.332031 509.070312 1482.523438 506.25 1484.90625 503.863281 C 1487.273438 501.5 1490.09375 500.304688 1493.375 500.304688 L 1532.308594 500.304688 C 1535.527344 500.304688 1538.308594 501.5 1540.675781 503.863281 C 1543.019531 506.25 1544.191406 509.070312 1544.191406 512.328125 L 1544.191406 587.015625 C 1544.191406 590.335938 1543.019531 593.175781 1540.675781 595.523438 C 1538.308594 597.886719 1535.488281 599.058594 1532.167969 599.058594 L 1493.375 599.058594 C 1490.015625 599.058594 1487.152344 597.886719 1484.828125 595.523438 Z M 1401.914062 586.558594 L 1439.953125 586.558594 L 1439.953125 512.925781 L 1401.914062 512.925781 Z M 1389.414062 512.328125 C 1389.414062 509.070312 1390.605469 506.25 1392.992188 503.863281 C 1395.355469 501.5 1398.179688 500.304688 1401.457031 500.304688 L 1440.390625 500.304688 C 1443.609375 500.304688 1446.390625 501.5 1448.757812 503.863281 C 1451.101562 506.25 1452.292969 509.070312 1452.292969 512.328125 L 1452.292969 587.015625 C 1452.292969 590.335938 1451.101562 593.175781 1448.757812 595.523438 C 1446.390625 597.886719 1443.570312 599.058594 1440.25 599.058594 L 1401.457031 599.058594 C 1398.097656 599.058594 1395.257812 597.886719 1392.910156 595.523438 C 1390.585938 593.175781 1389.414062 590.335938 1389.414062 587.015625 Z M 1347.738281 586.558594 L 1335.257812 586.558594 L 1335.257812 500.445312 L 1303.894531 500.445312 C 1302.167969 500.445312 1300.695312 501.0625 1299.484375 502.273438 C 1298.273438 503.484375 1297.65625 504.976562 1297.65625 506.707031 C 1297.65625 508.433594 1298.273438 509.90625 1299.484375 511.117188 C 1300.695312 512.328125 1302.167969 512.925781 1303.894531 512.925781 L 1322.777344 512.925781 L 1322.777344 586.558594 L 1303.597656 586.558594 C 1301.867188 586.558594 1300.398438 587.175781 1299.1875 588.367188 C 1297.972656 589.539062 1297.359375 590.96875 1297.359375 592.660156 C 1297.359375 594.390625 1297.972656 595.898438 1299.1875 597.152344 C 1300.398438 598.421875 1301.867188 599.058594 1303.597656 599.058594 L 1353.976562 599.058594 C 1355.707031 599.058594 1357.179688 598.441406 1358.390625 597.230469 C 1359.621094 596.019531 1360.21875 594.546875 1360.21875 592.820312 L 1360.21875 560.5625 C 1360.21875 558.835938 1359.621094 557.363281 1358.390625 556.152344 C 1357.179688 554.917969 1355.707031 554.324219 1353.976562 554.324219 C 1352.25 554.324219 1350.777344 554.9375 1349.566406 556.171875 C 1348.335938 557.421875 1347.738281 558.875 1347.738281 560.5625 Z M 1211.679688 586.558594 C 1209.953125 586.558594 1208.480469 587.175781 1207.269531 588.367188 C 1206.058594 589.539062 1205.441406 590.96875 1205.441406 592.660156 C 1205.441406 594.390625 1206.058594 595.898438 1207.269531 597.152344 C 1208.480469 598.421875 1209.953125 599.058594 1211.679688 599.058594 L 1262.0625 599.058594 C 1263.789062 599.058594 1265.261719 598.441406 1266.492188 597.230469 C 1267.707031 596.019531 1268.300781 594.546875 1268.300781 592.820312 L 1268.300781 560.5625 C 1268.300781 558.835938 1267.707031 557.363281 1266.492188 556.152344 C 1265.261719 554.917969 1263.789062 554.324219 1262.0625 554.324219 C 1260.332031 554.324219 1258.863281 554.9375 1257.648438 556.171875 C 1256.4375 557.421875 1255.820312 558.875 1255.820312 560.5625 L 1255.820312 586.558594 L 1243.339844 586.558594 L 1243.339844 500.445312 L 1211.980469 500.445312 C 1210.25 500.445312 1208.78125 501.0625 1207.566406 502.273438 C 1206.355469 503.484375 1205.738281 504.976562 1205.738281 506.707031 C 1205.738281 508.433594 1206.355469 509.90625 1207.566406 511.117188 C 1208.78125 512.328125 1210.25 512.925781 1211.980469 512.925781 L 1230.859375 512.925781 L 1230.859375 586.558594 Z M 1113.683594 546.234375 L 1113.683594 587.015625 C 1113.683594 590.335938 1114.835938 593.175781 1117.179688 595.523438 C 1119.507812 597.886719 1122.347656 599.058594 1125.707031 599.058594 L 1164.5 599.058594 C 1167.820312 599.058594 1170.660156 597.886719 1173.007812 595.523438 C 1175.371094 593.175781 1176.542969 590.335938 1176.542969 587.015625 L 1176.542969 512.328125 C 1176.542969 509.070312 1175.371094 506.25 1173.007812 503.863281 C 1172.25 503.089844 1171.417969 502.492188 1170.542969 501.957031 C 1165.574219 505.550781 1160.644531 509.230469 1155.695312 512.925781 L 1164.203125 512.925781 L 1164.203125 586.558594 L 1126.164062 586.558594 L 1126.164062 536 C 1122.011719 539.359375 1117.835938 542.777344 1113.683594 546.234375 Z M 238.933594 806.921875 L 260.773438 806.921875 L 260.773438 769.976562 L 264.191406 769.976562 L 264.191406 806.921875 L 283.808594 806.921875 C 289.871094 806.921875 294.917969 805.191406 298.832031 801.773438 C 302.867188 798.234375 304.992188 793.367188 304.992188 787.703125 C 304.992188 783.269531 303.664062 779.496094 301.136719 776.632812 C 303.542969 773.292969 304.179688 769.796875 304.179688 767.035156 C 304.179688 761.628906 302.09375 756.898438 298.15625 753.378906 C 294.261719 749.902344 288.539062 748.214844 280.648438 748.214844 L 231.519531 748.214844 L 231.519531 769.976562 L 238.933594 769.976562 Z M 207.769531 769.082031 L 201.667969 769.082031 L 201.667969 748.214844 L 228.957031 748.214844 L 228.957031 806.921875 L 207.769531 806.921875 L 207.769531 769.082031 " fill-opacity="1" fill-rule="nonzero"/><path fill="#b47979" d="M 1344.835938 1153.34375 L 1344.835938 1215.847656 L 1375.066406 1239.335938 C 1375.066406 1239.335938 1271.640625 1353.15625 1234.257812 1353.15625 C 1197.113281 1353.15625 1095.4375 1248.339844 1095.4375 1248.339844 L 1129.859375 1223.496094 L 1129.859375 1160.398438 C 1115.015625 1145.074219 1105.652344 1124.683594 1104.539062 1099.1875 L 1101.796875 1032.191406 C 1081.765625 1034.019531 1049.53125 976.445312 1066.800781 949.296875 C 1076.578125 933.933594 1089.058594 944.269531 1098.738281 957.605469 L 1095.261719 872.246094 C 1093.929688 842.453125 1117.738281 817.59375 1147.546875 817.59375 L 1321.007812 817.59375 C 1350.820312 817.59375 1374.609375 842.453125 1373.296875 872.246094 L 1368.882812 980.0625 C 1375.460938 961.976562 1390.863281 927 1405.054688 949.296875 C 1423.296875 977.976562 1386.273438 1040.65625 1366.796875 1031.296875 L 1364.015625 1099.1875 C 1363.0625 1120.949219 1356.066406 1138.972656 1344.835938 1153.34375 Z M 760.882812 1836.984375 L 589.390625 1737.792969 L 515.019531 1845.332031 L 514.863281 1845.3125 L 485.648438 1888.558594 C 457.226562 1930.652344 501.1875 2024.8125 551.726562 2030.039062 L 1004.335938 2041.566406 L 1006.742188 2018.214844 L 875.433594 2018.214844 L 871.242188 1974.75 C 869.710938 1967.933594 874.183594 1961.296875 880.285156 1961.296875 L 1012.625 1961.296875 L 1019.222656 1897.363281 L 737.75 1868.328125 Z M 1795.457031 2034.113281 L 1533.597656 2002.097656 L 1536.976562 1970.675781 C 1538.03125 1965.925781 1534.929688 1961.296875 1530.65625 1961.296875 L 1346.84375 1961.296875 L 1352.46875 1834.320312 L 1628.238281 1846.5625 L 1615.28125 1822.636719 L 1814.277344 1756.933594 L 1876.683594 1893.707031 L 1881.550781 1903.859375 C 1903.511719 1949.671875 1846.195312 2036.359375 1795.457031 2034.113281 " fill-opacity="1" fill-rule="nonzero"/><g clip-path="url(#84a2dce26a)"><path fill="#000814" d="M 360.542969 1861.925781 L 360.542969 1878.523438 C 360.542969 1881.503906 362.964844 1883.925781 365.945312 1883.925781 C 368.929688 1883.925781 371.351562 1881.503906 371.351562 1878.523438 L 371.351562 1861.925781 C 371.351562 1858.945312 368.929688 1856.519531 365.945312 1856.519531 C 362.964844 1856.519531 360.542969 1858.945312 360.542969 1861.925781 Z M 345.378906 1878.523438 L 345.378906 1861.925781 C 345.378906 1858.945312 342.953125 1856.519531 339.953125 1856.519531 C 336.972656 1856.519531 334.546875 1858.945312 334.546875 1861.925781 L 334.546875 1878.523438 C 334.546875 1881.503906 336.972656 1883.925781 339.953125 1883.925781 C 342.953125 1883.925781 345.378906 1881.503906 345.378906 1878.523438 Z M 319.402344 1878.523438 L 319.402344 1861.925781 C 319.402344 1858.945312 316.976562 1856.519531 313.996094 1856.519531 C 310.996094 1856.519531 308.570312 1858.945312 308.570312 1861.925781 L 308.570312 1878.523438 C 308.570312 1881.503906 310.996094 1883.925781 313.996094 1883.925781 C 316.976562 1883.925781 319.402344 1881.503906 319.402344 1878.523438 Z M 293.40625 1878.523438 L 293.40625 1861.925781 C 293.40625 1858.945312 290.984375 1856.519531 288 1856.519531 C 285 1856.519531 282.597656 1858.945312 282.597656 1861.925781 L 282.597656 1878.523438 C 282.597656 1881.503906 285 1883.925781 288 1883.925781 C 290.984375 1883.925781 293.40625 1881.503906 293.40625 1878.523438 Z M 267.433594 1878.523438 L 267.433594 1861.925781 C 267.433594 1858.945312 265.027344 1856.519531 262.027344 1856.519531 C 259.046875 1856.519531 256.621094 1858.945312 256.621094 1861.925781 L 256.621094 1878.523438 C 256.621094 1881.503906 259.046875 1883.925781 262.027344 1883.925781 C 265.027344 1883.925781 267.433594 1881.503906 267.433594 1878.523438 Z M 241.457031 1878.523438 L 241.457031 1861.925781 C 241.457031 1858.945312 239.03125 1856.519531 236.03125 1856.519531 C 233.050781 1856.519531 230.625 1858.945312 230.625 1861.925781 L 230.625 1878.523438 C 230.625 1881.503906 233.050781 1883.925781 236.03125 1883.925781 C 239.03125 1883.925781 241.457031 1881.503906 241.457031 1878.523438 Z M 215.480469 1878.523438 L 215.480469 1861.925781 C 215.480469 1858.945312 213.058594 1856.519531 210.074219 1856.519531 C 207.074219 1856.519531 204.652344 1858.945312 204.652344 1861.925781 L 204.652344 1878.523438 C 204.652344 1881.503906 207.074219 1883.925781 210.074219 1883.925781 C 213.058594 1883.925781 215.480469 1881.503906 215.480469 1878.523438 Z M 189.488281 1861.925781 C 189.488281 1858.945312 187.0625 1856.519531 184.082031 1856.519531 C 181.101562 1856.519531 178.675781 1858.945312 178.675781 1861.925781 L 178.675781 1878.523438 C 178.675781 1881.503906 181.101562 1883.925781 184.082031 1883.925781 C 187.0625 1883.925781 189.488281 1881.503906 189.488281 1878.523438 Z M 193.242188 1909.585938 L 350.703125 1909.585938 C 353.703125 1909.585938 356.128906 1907.160156 356.128906 1904.179688 C 356.128906 1901.179688 353.703125 1898.753906 350.703125 1898.753906 L 193.242188 1898.753906 C 190.242188 1898.753906 187.835938 1901.179688 187.835938 1904.179688 C 187.835938 1907.160156 190.242188 1909.585938 193.242188 1909.585938 Z M 1307.195312 942.578125 C 1297.359375 942.519531 1287.71875 945.003906 1279.988281 950.050781 C 1277.484375 951.703125 1276.789062 955.0625 1278.417969 957.566406 C 1280.046875 960.050781 1283.40625 960.765625 1285.910156 959.113281 C 1291.734375 955.300781 1299.40625 953.132812 1306.957031 953.390625 C 1314.507812 953.570312 1322.042969 955.996094 1327.644531 960.070312 C 1328.597656 960.765625 1329.710938 961.101562 1330.804688 961.101562 C 1332.496094 961.101562 1334.125 960.328125 1335.199219 958.875 C 1336.945312 956.453125 1336.410156 953.074219 1334.003906 951.324219 C 1326.550781 945.898438 1317.03125 942.796875 1307.195312 942.578125 Z M 1172.589844 943.710938 C 1162.75 943.117188 1152.992188 945.5 1144.984375 950.269531 C 1142.421875 951.800781 1141.585938 955.121094 1143.117188 957.683594 C 1144.625 960.246094 1147.945312 961.082031 1150.527344 959.570312 C 1156.609375 955.933594 1164.402344 954.144531 1171.972656 954.523438 C 1179.464844 954.941406 1186.820312 957.625 1192.144531 961.859375 C 1193.140625 962.652344 1194.332031 963.03125 1195.503906 963.03125 C 1197.09375 963.03125 1198.664062 962.335938 1199.738281 961.003906 C 1201.605469 958.65625 1201.207031 955.257812 1198.882812 953.390625 C 1191.746094 947.707031 1182.40625 944.269531 1172.589844 943.710938 Z M 1188.648438 1128.042969 C 1188.171875 1130.984375 1190.15625 1133.765625 1193.097656 1134.261719 C 1194.449219 1134.480469 1215.914062 1137.960938 1240.140625 1137.960938 C 1252.761719 1137.960938 1266.136719 1137.007812 1277.800781 1134.183594 C 1280.703125 1133.46875 1282.492188 1130.546875 1281.777344 1127.644531 C 1281.082031 1124.742188 1278.140625 1122.933594 1275.257812 1123.671875 C 1243.339844 1131.421875 1195.34375 1123.671875 1194.867188 1123.589844 C 1191.867188 1123.054688 1189.125 1125.101562 1188.648438 1128.042969 Z M 616.496094 1679.125 C 617.691406 1679.683594 736.554688 1733.542969 771.355469 1770.425781 C 772.410156 1771.539062 773.839844 1772.117188 775.269531 1772.117188 C 776.601562 1772.117188 777.953125 1771.640625 779.007812 1770.644531 C 781.171875 1768.597656 781.273438 1765.179688 779.226562 1762.996094 C 742.996094 1724.578125 625.917969 1671.515625 620.949219 1669.269531 C 618.207031 1668.035156 615.027344 1669.269531 613.792969 1671.972656 C 612.5625 1674.695312 613.773438 1677.914062 616.496094 1679.125 Z M 1603.871094 1780.125 C 1605.183594 1780.125 1606.515625 1779.648438 1607.570312 1778.675781 C 1665.78125 1724.339844 1785.300781 1699.21875 1786.496094 1698.960938 C 1789.414062 1698.363281 1791.304688 1695.503906 1790.707031 1692.582031 C 1790.109375 1689.640625 1787.230469 1687.773438 1784.308594 1688.367188 C 1779.300781 1689.402344 1660.632812 1714.324219 1600.175781 1770.765625 C 1597.992188 1772.792969 1597.871094 1776.230469 1599.917969 1778.417969 C 1600.972656 1779.550781 1602.421875 1780.125 1603.871094 1780.125 Z M 1366.558594 908.257812 C 1367.09375 896.929688 1356.523438 888.34375 1345.550781 891.164062 L 1243.140625 917.636719 C 1243.140625 917.636719 1177.457031 901.621094 1134.75 891.363281 C 1118.3125 887.429688 1102.574219 899.96875 1102.710938 916.863281 L 1103.089844 962.53125 L 1106.527344 971.136719 C 1108.753906 968.039062 1112.390625 966.011719 1116.503906 966.011719 L 1213.628906 966.011719 C 1220.386719 966.011719 1225.890625 971.515625 1225.890625 978.273438 L 1225.890625 978.910156 L 1252.960938 978.910156 L 1252.960938 977.0625 C 1252.960938 970.980469 1257.90625 966.011719 1263.988281 966.011719 L 1363.578125 966.011719 C 1363.675781 966.011719 1363.757812 966.050781 1363.855469 966.050781 Z M 1363.796875 995.960938 C 1363.675781 996.417969 1363.539062 996.894531 1363.4375 997.332031 L 1362.363281 997.867188 L 1363.339844 977.0625 L 1263.988281 976.84375 L 1263.789062 1036.941406 L 1363.578125 1037.140625 L 1363.796875 1036.941406 Z M 1215.058594 978.273438 C 1215.058594 977.5 1214.425781 976.84375 1213.628906 976.84375 L 1116.503906 976.84375 C 1115.691406 976.84375 1115.054688 977.5 1115.054688 978.273438 L 1115.054688 1035.707031 C 1115.054688 1036.503906 1115.691406 1037.140625 1116.503906 1037.140625 L 1213.628906 1037.140625 C 1214.425781 1037.140625 1215.058594 1036.503906 1215.058594 1035.707031 Z M 1394.003906 766.058594 C 1417.296875 803.382812 1420 863.9375 1399.191406 943.234375 C 1397.003906 942.003906 1394.820312 941.902344 1392.652344 942.601562 L 1374.609375 987.851562 L 1374.609375 1036.941406 C 1374.609375 1043.023438 1369.660156 1047.972656 1363.578125 1047.972656 L 1263.988281 1047.972656 C 1257.90625 1047.972656 1252.960938 1043.023438 1252.960938 1036.941406 L 1252.960938 989.71875 L 1225.890625 989.71875 L 1225.890625 1035.707031 C 1225.890625 1042.464844 1220.386719 1047.972656 1213.628906 1047.972656 L 1116.503906 1047.972656 C 1109.746094 1047.972656 1104.242188 1042.464844 1104.242188 1035.707031 L 1104.242188 991.488281 C 1103.230469 990.914062 1102.394531 989.980469 1101.9375 988.828125 L 1083.714844 943.15625 C 1079.957031 941.328125 1076.179688 941.03125 1072.605469 943.214844 C 1058.117188 900.84375 1044.9375 841.996094 1061.890625 797.359375 C 1121.992188 639.066406 1307.054688 741.714844 1307.054688 741.714844 C 1307.054688 741.714844 1366.679688 722.277344 1394.003906 766.058594 Z M 2156.386719 264.203125 C 2154.738281 266.707031 2155.433594 270.066406 2157.9375 271.695312 C 2158.851562 272.3125 2159.886719 272.589844 2160.898438 272.589844 C 2162.667969 272.589844 2164.398438 271.734375 2165.429688 270.164062 C 2250.390625 141.023438 2168.710938 53.125 2167.875 52.25 C 2165.808594 50.101562 2162.390625 50.023438 2160.222656 52.089844 C 2158.058594 54.15625 2157.996094 57.574219 2160.0625 59.742188 C 2160.839844 60.535156 2236.65625 142.199219 2156.386719 264.203125 Z M 2121.609375 255.28125 C 2122.523438 255.898438 2123.554688 256.175781 2124.570312 256.175781 C 2126.339844 256.175781 2128.066406 255.320312 2129.101562 253.730469 C 2195.738281 152.472656 2131.523438 83.371094 2130.871094 82.695312 C 2128.800781 80.527344 2125.402344 80.449219 2123.238281 82.515625 C 2121.070312 84.5625 2120.992188 88 2123.039062 90.167969 C 2125.464844 92.710938 2181.824219 153.945312 2120.058594 247.789062 C 2118.410156 250.292969 2119.105469 253.652344 2121.609375 255.28125 Z M 2085.65625 225.609375 C 2086.589844 226.226562 2087.625 226.503906 2088.636719 226.503906 C 2090.386719 226.503906 2092.113281 225.648438 2093.148438 224.058594 C 2136.59375 158.078125 2094.5 112.804688 2094.0625 112.367188 C 2091.996094 110.199219 2088.597656 110.121094 2086.449219 112.1875 C 2084.285156 114.234375 2084.207031 117.652344 2086.234375 119.820312 C 2087.742188 121.410156 2122.660156 159.546875 2084.125 218.117188 C 2082.476562 220.621094 2083.171875 223.980469 2085.65625 225.609375 Z M 1933.5 276.386719 C 1934.535156 276.386719 1935.546875 276.109375 1936.484375 275.492188 C 1938.96875 273.863281 1939.664062 270.503906 1938.011719 268 C 1857.921875 146.292969 1931.195312 66.855469 1934.355469 63.515625 C 1936.402344 61.351562 1936.324219 57.933594 1934.15625 55.886719 C 1932.011719 53.820312 1928.59375 53.898438 1926.527344 56.042969 C 1925.691406 56.917969 1844.007812 144.820312 1928.96875 273.960938 C 1930.023438 275.53125 1931.734375 276.386719 1933.5 276.386719 Z M 1965.320312 257.527344 C 1966.351562 259.117188 1968.0625 259.96875 1969.832031 259.96875 C 1970.84375 259.96875 1971.878906 259.671875 1972.792969 259.078125 C 1975.296875 257.425781 1975.992188 254.089844 1974.34375 251.582031 C 1912.59375 157.738281 1968.917969 96.527344 1971.363281 93.964844 C 1973.410156 91.796875 1973.347656 88.378906 1971.183594 86.3125 C 1969.015625 84.246094 1965.597656 84.324219 1963.53125 86.492188 C 1962.875 87.167969 1898.664062 156.269531 1965.320312 257.527344 Z M 2005.761719 230.300781 C 2006.777344 230.300781 2007.808594 230.019531 2008.746094 229.40625 C 2011.226562 227.753906 2011.925781 224.417969 2010.273438 221.914062 C 1971.738281 163.34375 2006.636719 125.246094 2008.167969 123.636719 C 2010.214844 121.46875 2010.136719 118.050781 2007.988281 115.984375 C 2005.824219 113.917969 2002.40625 113.996094 2000.335938 116.164062 C 1999.898438 116.601562 1957.828125 161.875 2001.25 227.855469 C 2002.285156 229.445312 2004.015625 230.300781 2005.761719 230.300781 Z M 413.523438 1829.195312 L 141.550781 1829.195312 L 161.445312 1849.246094 L 393.632812 1849.246094 Z M 424.15625 1518.308594 C 424.15625 1503.363281 412.054688 1491.257812 397.109375 1491.257812 C 382.164062 1491.257812 370.0625 1503.363281 370.0625 1518.308594 L 370.0625 1608.753906 L 334.605469 1608.753906 L 334.605469 1465.859375 C 334.605469 1445.507812 318.109375 1428.992188 297.738281 1428.992188 L 262.246094 1428.992188 C 241.875 1428.992188 225.378906 1445.507812 225.378906 1465.859375 L 225.378906 1667.519531 L 196.800781 1667.519531 L 196.800781 1577.054688 C 196.800781 1562.109375 184.695312 1550.003906 169.75 1550.003906 C 154.828125 1550.003906 142.703125 1562.109375 142.703125 1577.054688 L 142.703125 1669.625 C 142.703125 1698.304688 166.035156 1721.617188 194.714844 1721.617188 L 225.378906 1721.617188 L 225.378906 1801.410156 L 334.605469 1801.410156 L 334.605469 1662.871094 L 372.148438 1662.871094 C 400.824219 1662.871094 424.15625 1639.539062 424.15625 1610.859375 Z M 2184.726562 1818.324219 L 2184.726562 1927.09375 L 2201.144531 1927.09375 C 2203.945312 1927.09375 2206.449219 1925.324219 2207.382812 1922.679688 L 2222.867188 1879 C 2229.226562 1861.09375 2230.199219 1841.855469 2225.6875 1823.371094 C 2224.972656 1820.410156 2222.328125 1818.324219 2219.269531 1818.324219 Z M 2184.726562 1791.273438 L 2219.269531 1791.273438 C 2234.828125 1791.273438 2248.285156 1801.847656 2251.980469 1816.972656 C 2257.722656 1840.582031 2256.472656 1865.167969 2248.363281 1888.0625 L 2232.882812 1931.722656 C 2228.113281 1945.140625 2215.375 1954.140625 2201.144531 1954.140625 L 2184.726562 1954.140625 L 2184.726562 2013.027344 C 2184.726562 2023.699219 2176.0625 2032.34375 2165.410156 2032.34375 L 2006.65625 2032.34375 C 1995.984375 2032.34375 1987.339844 2023.699219 1987.339844 2013.027344 L 1987.339844 1776.289062 L 2184.726562 1776.289062 Z M 1294.316406 1738.390625 C 1294.316406 1705.9375 1263.253906 1679.605469 1224.9375 1679.605469 C 1186.621094 1679.605469 1155.558594 1705.9375 1155.558594 1738.390625 C 1155.558594 1770.863281 1186.621094 1797.175781 1224.9375 1797.175781 C 1263.253906 1797.175781 1294.316406 1770.863281 1294.316406 1738.390625 Z M 1539.757812 1479.355469 C 1542.046875 1417.269531 1565.179688 1369.511719 1566.230469 1367.382812 C 1567.542969 1364.703125 1570.78125 1363.589844 1573.484375 1364.898438 C 1576.148438 1366.230469 1577.261719 1369.472656 1575.949219 1372.152344 C 1575.691406 1372.652344 1552.957031 1419.710938 1550.589844 1479.355469 L 1570.941406 1479.355469 C 1585.132812 1479.355469 1596.519531 1491.101562 1596.042969 1505.289062 L 1581.097656 1957.164062 C 1580.660156 1970.714844 1569.550781 1981.449219 1555.996094 1981.449219 L 873.40625 1981.449219 C 859.851562 1981.449219 848.765625 1970.714844 848.308594 1957.164062 L 833.363281 1505.289062 C 832.90625 1491.101562 844.273438 1479.355469 858.480469 1479.355469 L 896.082031 1479.355469 C 897.496094 1450.636719 877.761719 1407.25 877.5625 1406.8125 C 876.308594 1404.089844 877.480469 1400.890625 880.203125 1399.640625 C 882.925781 1398.386719 886.125 1399.582031 887.378906 1402.28125 C 888.253906 1404.210938 908.167969 1447.972656 906.914062 1479.355469 L 1206.613281 1479.355469 L 1205.261719 1381.851562 C 1205.121094 1372.273438 1210.269531 1363.410156 1218.675781 1358.777344 L 1227.957031 1353.671875 L 1168.613281 1325.035156 C 1157.644531 1319.46875 1148.023438 1313.445312 1139.816406 1321.695312 L 1111.675781 1349.957031 C 1106.410156 1355.242188 1097.386719 1351.625 1097.226562 1344.152344 L 1095.28125 1249.3125 C 1093.292969 1232.738281 1129.859375 1160.933594 1129.859375 1160.933594 C 1129.859375 1160.933594 1147.609375 1278.109375 1230.5 1352.261719 L 1248.488281 1342.363281 C 1329.355469 1276.878906 1344.835938 1153.542969 1344.835938 1153.542969 C 1344.835938 1153.542969 1376.894531 1222.761719 1375.066406 1239.335938 L 1380.410156 1324.335938 C 1380.886719 1331.871094 1372.382812 1336.578125 1366.261719 1332.167969 L 1359.324219 1327.199219 C 1346.027344 1317.621094 1326.332031 1315.414062 1309.957031 1321.613281 L 1261.882812 1341.269531 L 1261.882812 1479.355469 Z M 2513.601562 2033.558594 L 1582.804688 2033.558594 L 1587.058594 1999.136719 C 1588.292969 1994.386719 1584.714844 1989.753906 1579.804688 1989.753906 L 831.574219 1989.753906 C 824.539062 1989.753906 819.410156 1996.394531 821.179688 2003.210938 L 824.539062 2033.558594 L 356.507812 2033.558594 L 363.484375 2017.183594 L 184.9375 2017.183594 L 191.929688 2033.558594 L 33.238281 2033.558594 C 15.648438 2033.558594 1.398438 2047.808594 1.398438 2065.394531 L 1.398438 2108.484375 C 1.398438 2126.070312 15.648438 2140.320312 33.238281 2140.320312 L 212.679688 2140.320312 L 212.679688 2290.804688 L 2327.242188 2290.804688 L 2327.242188 2140.320312 L 2513.601562 2140.320312 C 2531.167969 2140.320312 2545.417969 2126.070312 2545.417969 2108.484375 L 2545.417969 2065.394531 C 2545.417969 2047.808594 2531.167969 2033.558594 2513.601562 2033.558594 Z M 1253.335938 1086.46875 C 1265.0625 1082.214844 1248.25 1049.28125 1239.605469 1033.878906 C 1237.714844 1030.523438 1233.085938 1030.839844 1231.695312 1034.398438 C 1225.929688 1049.324219 1214.582031 1079.410156 1214.683594 1085.335938 C 1214.800781 1093.304688 1237.996094 1092.050781 1253.335938 1086.46875 Z M 1176.265625 984.8125 C 1170.722656 984.8125 1166.230469 991.6875 1166.230469 1000.175781 C 1166.230469 1008.660156 1170.722656 1015.535156 1176.265625 1015.535156 C 1181.8125 1015.535156 1186.300781 1008.660156 1186.300781 1000.175781 C 1186.300781 991.6875 1181.8125 984.8125 1176.265625 984.8125 Z M 1302.425781 984.8125 C 1296.878906 984.8125 1292.371094 991.6875 1292.371094 1000.175781 C 1292.371094 1008.660156 1296.878906 1015.535156 1302.425781 1015.535156 C 1307.949219 1015.535156 1312.441406 1008.660156 1312.441406 1000.175781 C 1312.441406 991.6875 1307.949219 984.8125 1302.425781 984.8125 Z M 1230.304688 1262.292969 C 1249.242188 1268.054688 1328.402344 1188.519531 1343.40625 1155.210938 C 1322.359375 1180.707031 1287.300781 1193.867188 1247.710938 1193.867188 L 1220.84375 1193.867188 C 1186.320312 1193.867188 1155.257812 1183.867188 1133.894531 1164.414062 C 1160.664062 1195.8125 1214.742188 1257.523438 1230.304688 1262.292969 Z M 1118.652344 1146.308594 C 1118.652344 1146.308594 1118.769531 1146.464844 1118.988281 1146.722656 C 1118.890625 1146.585938 1118.832031 1146.445312 1118.730469 1146.308594 Z M 1901.703125 420.75 C 1901.703125 428.71875 1908.164062 435.179688 1916.132812 435.179688 C 1924.101562 435.179688 1930.558594 428.71875 1930.558594 420.75 C 1930.558594 412.78125 1924.101562 406.320312 1916.132812 406.320312 C 1908.164062 406.320312 1901.703125 412.78125 1901.703125 420.75 Z M 1957.984375 420.75 C 1957.984375 428.71875 1964.464844 435.179688 1972.414062 435.179688 C 1980.402344 435.179688 1986.863281 428.71875 1986.863281 420.75 C 1986.863281 412.78125 1980.402344 406.320312 1972.414062 406.320312 C 1964.464844 406.320312 1957.984375 412.78125 1957.984375 420.75 Z M 2015.203125 420.75 C 2015.203125 428.71875 2021.683594 435.179688 2029.652344 435.179688 C 2037.621094 435.179688 2044.078125 428.71875 2044.078125 420.75 C 2044.078125 412.78125 2037.621094 406.320312 2029.652344 406.320312 C 2021.683594 406.320312 2015.203125 412.78125 2015.203125 420.75 Z M 1753.621094 420.75 C 1753.621094 412.78125 1747.164062 406.320312 1739.195312 406.320312 C 1731.226562 406.320312 1724.765625 412.78125 1724.765625 420.75 C 1724.765625 428.71875 1731.226562 435.179688 1739.195312 435.179688 C 1747.164062 435.179688 1753.621094 428.71875 1753.621094 420.75 Z M 1667.945312 460.558594 L 1654.132812 460.558594 L 1654.132812 377.027344 L 1667.945312 377.027344 L 1667.945312 356.875 C 1667.945312 353.277344 1670.867188 350.378906 1674.445312 350.378906 L 1751.316406 350.378906 L 1893.675781 314.863281 C 1898.644531 313.609375 1903.691406 316.632812 1904.921875 321.601562 L 1907.308594 331.121094 C 1908.539062 336.085938 1905.519531 341.117188 1900.550781 342.367188 L 1868.433594 350.378906 L 2029.910156 350.378906 L 2029.910156 158.59375 C 2029.910156 153.464844 2034.0625 149.3125 2039.171875 149.3125 L 2048.988281 149.3125 C 2054.117188 149.3125 2058.269531 153.464844 2058.269531 158.59375 L 2058.269531 350.378906 L 2108.730469 350.378906 C 2112.308594 350.378906 2115.230469 353.277344 2115.230469 356.875 L 2115.230469 377.027344 L 2128.007812 377.027344 L 2128.007812 460.558594 L 2115.230469 460.558594 L 2115.230469 484.625 C 2115.230469 488.222656 2112.308594 491.125 2108.730469 491.125 L 1674.445312 491.125 C 1670.867188 491.125 1667.945312 488.222656 1667.945312 484.625 Z M 850.96875 469.699219 L 1342.511719 469.699219 L 1342.511719 179.421875 L 850.96875 179.421875 Z M 1355.328125 324.5625 C 1355.328125 332.96875 1362.167969 339.804688 1370.574219 339.804688 C 1378.980469 339.804688 1385.816406 332.96875 1385.816406 324.5625 C 1385.816406 316.152344 1378.980469 309.335938 1370.574219 309.335938 C 1362.167969 309.335938 1355.328125 316.152344 1355.328125 324.5625 Z M 789.5 469.78125 L 789.5 179.34375 C 789.5 162.527344 803.132812 148.914062 819.945312 148.914062 L 1373.8125 148.914062 C 1390.625 148.914062 1404.238281 162.527344 1404.238281 179.34375 L 1404.238281 469.78125 C 1404.238281 486.59375 1390.625 500.207031 1373.8125 500.207031 L 819.945312 500.207031 C 803.132812 500.207031 789.5 486.59375 789.5 469.78125 Z M 71.496094 838.121094 L 71.496094 847.304688 L 80.675781 847.304688 L 80.675781 838.121094 Z M 97.886719 838.121094 L 97.886719 847.304688 L 107.070312 847.304688 L 107.070312 838.121094 Z M 299.589844 787.703125 C 299.589844 782.535156 297.261719 779.039062 292.59375 777.1875 C 296.707031 774.625 298.773438 771.246094 298.773438 767.035156 C 298.773438 763.136719 297.363281 759.9375 294.539062 757.394531 C 291.71875 754.871094 287.085938 753.617188 280.648438 753.617188 L 269.617188 753.617188 L 269.617188 801.515625 L 283.808594 801.515625 C 288.558594 801.515625 292.375 800.242188 295.253906 797.699219 C 298.15625 795.175781 299.589844 791.835938 299.589844 787.703125 Z M 262.859375 753.617188 L 236.925781 753.617188 L 236.925781 764.550781 L 244.359375 764.550781 L 244.359375 801.515625 L 255.367188 801.515625 L 255.367188 764.550781 L 262.859375 764.550781 Z M 223.53125 753.617188 L 207.074219 753.617188 L 207.074219 763.675781 L 213.175781 763.675781 L 213.175781 801.515625 L 223.53125 801.515625 Z M 444.210938 1113.476562 L 400.507812 1113.476562 C 401.023438 1114.308594 401.402344 1115.222656 401.402344 1116.277344 L 401.402344 1184.207031 C 401.402344 1200.761719 394.902344 1216.242188 383.117188 1227.808594 C 371.589844 1239.15625 356.425781 1245.359375 340.308594 1245.359375 C 339.933594 1245.359375 339.574219 1245.339844 339.195312 1245.339844 L 146.339844 1242 C 113.746094 1241.445312 87.375 1215.46875 86.300781 1182.875 L 84.890625 942.460938 L 65.355469 942.460938 C 61.957031 942.460938 59.195312 939.699219 59.195312 936.300781 L 59.195312 865.507812 L 87.394531 865.507812 L 87.394531 838.121094 L 92.640625 838.121094 L 92.640625 865.507812 L 120.84375 865.507812 L 120.84375 936.300781 C 120.84375 939.699219 118.078125 942.460938 114.703125 942.460938 L 95.703125 942.460938 L 97.113281 1182.65625 C 97.988281 1209.347656 119.691406 1230.710938 146.519531 1231.167969 L 339.394531 1234.527344 C 352.910156 1234.707031 365.828125 1229.636719 375.527344 1220.097656 C 385.226562 1210.558594 390.570312 1197.820312 390.570312 1184.207031 L 390.570312 1116.277344 C 390.570312 1115.222656 390.96875 1114.308594 391.464844 1113.476562 L 190.640625 1113.476562 C 180.246094 1113.476562 171.800781 1105.050781 171.800781 1094.636719 L 171.800781 747.539062 C 171.800781 737.144531 180.246094 728.695312 190.640625 728.695312 L 444.210938 728.695312 C 454.625 728.695312 463.050781 737.144531 463.050781 747.539062 L 463.050781 1094.636719 C 463.050781 1105.050781 454.625 1113.476562 444.210938 1113.476562 Z M 281.382812 781.820312 L 280.46875 781.820312 L 280.46875 792.195312 C 283.230469 792.132812 285.277344 791.71875 286.671875 790.902344 C 288.042969 790.105469 288.71875 788.796875 288.71875 786.945312 C 288.71875 783.527344 286.273438 781.820312 281.382812 781.820312 Z M 287.761719 768.085938 C 287.761719 766.140625 287.167969 764.789062 286.015625 764.03125 C 284.863281 763.257812 283.011719 762.859375 280.46875 762.800781 L 280.46875 773.136719 C 285.320312 773.015625 287.761719 771.328125 287.761719 768.085938 Z M 103.75 489.296875 C 107.527344 491.839844 112.21875 492.632812 116.628906 491.460938 L 125.414062 489.117188 C 125.175781 488.582031 124.9375 488.0625 124.757812 487.46875 L 65.054688 275.472656 C 64.9375 275.09375 64.917969 274.695312 64.859375 274.339844 L 55.753906 277.300781 C 52.792969 278.273438 50.171875 280.042969 48.300781 282.527344 C 40.511719 292.78125 23.835938 324.601562 42.242188 394.558594 C 57.523438 452.667969 89.957031 479.953125 103.75 489.296875 Z M 179.628906 472.023438 C 179.847656 472.859375 179.988281 473.675781 180.046875 474.507812 L 183.304688 473.636719 C 191.773438 471.371094 196.742188 462.585938 194.296875 454.160156 L 140.121094 266.765625 C 137.65625 258.261719 128.632812 253.472656 120.207031 256.234375 L 118.4375 256.8125 C 119.035156 257.804688 119.570312 258.859375 119.90625 260.011719 Z M 441.804688 494.742188 L 450.589844 497.085938 C 455.003906 498.257812 459.691406 497.464844 463.46875 494.898438 C 477.261719 485.578125 509.695312 458.292969 524.976562 400.179688 C 543.382812 330.226562 526.726562 298.40625 518.9375 288.152344 C 517.046875 285.667969 514.425781 283.898438 511.464844 282.925781 L 502.363281 279.964844 C 502.300781 280.339844 502.28125 280.71875 502.164062 281.097656 L 442.460938 493.113281 C 442.28125 493.6875 442.042969 494.203125 441.804688 494.742188 Z M 372.921875 459.78125 L 427.097656 272.390625 C 429.5625 263.886719 438.585938 259.117188 447.011719 261.859375 L 448.78125 262.433594 C 448.183594 263.429688 447.648438 264.480469 447.332031 265.65625 L 387.589844 477.648438 C 387.371094 478.484375 387.230469 479.320312 387.171875 480.132812 L 383.914062 479.257812 C 375.445312 476.992188 370.476562 468.210938 372.921875 459.78125 " fill-opacity="1" fill-rule="nonzero"/></g><g fill="#000000" fill-opacity="1"><g transform="translate(1271.587992, 2091.071591)"><g><path d="M 0.734375 -0.828125 C 0.734375 -1.097656 0.820312 -1.316406 1 -1.484375 C 1.1875 -1.648438 1.414062 -1.734375 1.6875 -1.734375 C 1.96875 -1.734375 2.195312 -1.648438 2.375 -1.484375 C 2.5625 -1.316406 2.65625 -1.097656 2.65625 -0.828125 C 2.65625 -0.566406 2.5625 -0.351562 2.375 -0.1875 C 2.195312 -0.0195312 1.96875 0.0625 1.6875 0.0625 C 1.414062 0.0625 1.1875 -0.0195312 1 -0.1875 C 0.820312 -0.351562 0.734375 -0.566406 0.734375 -0.828125 Z M 0.734375 -0.828125 "/></g></g></g></svg>