<svg xmlns="http://www.w3.org/2000/svg" xmlns:xlink="http://www.w3.org/1999/xlink" width="2270" zoomAndPan="magnify" viewBox="0 0 1702.5 1922.999926" height="2564" preserveAspectRatio="xMidYMid meet" version="1.0"><defs><g/><clipPath id="37ddcaf7aa"><path d="M 103 826 L 1696 826 L 1696 1921.96875 L 103 1921.96875 Z M 103 826 " clip-rule="nonzero"/></clipPath></defs><g clip-path="url(#37ddcaf7aa)"><path fill="#ffc300" d="M 1681.175781 1584.074219 C 1680.390625 1579.671875 1679.582031 1575.253906 1678.746094 1570.824219 C 1668.75 1517.679688 1655.300781 1462.972656 1640.953125 1411.3125 C 1601.492188 1269.257812 1550.210938 1146.601562 1550.210938 1146.601562 C 1545.644531 1137.050781 1532.628906 1091.050781 1532.628906 1091.050781 C 1532.628906 1091.050781 1448.78125 933.117188 1438.195312 933.117188 C 1427.613281 933.117188 1374.699219 918.464844 1374.699219 918.464844 L 1266.421875 858.222656 L 1245.328125 862.28125 L 1154.078125 826.472656 L 876.066406 861.886719 L 692.445312 862.492188 C 692.445312 862.492188 457.722656 901.257812 394.128906 1031.21875 C 322.488281 1151.703125 306.207031 1164.726562 306.207031 1164.726562 C 306.207031 1164.726562 196.609375 1130.839844 169.441406 1133.183594 C 127.109375 1269.949219 0.109375 1780.179688 276.898438 1780.179688 C 401.03125 1780.179688 483.226562 1690.441406 536.15625 1591.464844 C 536.171875 1591.671875 536.1875 1591.871094 536.199219 1592.078125 C 536.246094 1592.734375 536.84375 1593.625 536.339844 1594.046875 C 533.8125 1596.15625 555.929688 1887.027344 569.359375 1892.523438 C 597.953125 1904.21875 1218.394531 1918.167969 1257.46875 1893.746094 C 1264.535156 1889.328125 1261.496094 1864.613281 1268.332031 1829.191406 C 1324.261719 1870.957031 1379.867188 1897.515625 1431.539062 1910.984375 C 1443.023438 1913.976562 1454.3125 1916.320312 1465.363281 1918.046875 C 1487.472656 1921.492188 1508.644531 1922.445312 1528.5625 1921.09375 C 1613.210938 1915.351562 1675.203125 1867.957031 1690.15625 1793.203125 C 1701.144531 1738.25 1695.285156 1663.351562 1681.175781 1584.074219 Z M 1298.988281 1555.082031 L 1302.242188 1463.902344 L 1336.4375 1571.363281 Z M 1298.988281 1555.082031 " fill-opacity="1" fill-rule="nonzero"/></g><path fill="#000814" d="M 1551.625 1128.5 C 1551.460938 1134.632812 1550.945312 1140.65625 1550.210938 1146.601562 C 1505.964844 1071.046875 1468.726562 1002.316406 1423.542969 973.007812 C 1456.921875 1131.757812 1435.414062 1267.636719 1400.867188 1347.273438 C 1373.671875 1409.972656 1305.5 1428.898438 1268.972656 1413.261719 C 1241.710938 1390.058594 1240.914062 1353.824219 1242.960938 1333.972656 C 1237.234375 1364.699219 1218.316406 1410.234375 1180.128906 1398.777344 C 1131.285156 1384.125 1164.660156 1246.542969 1184.199219 1107.332031 C 1203.738281 968.125 1150.980469 862.488281 1150.980469 862.488281 C 1150.980469 862.488281 1072.671875 851.710938 795.878906 845.199219 C 577.582031 840.0625 577.367188 525.523438 590.730469 391.75 C 622.1875 215.417969 686.695312 108.445312 802.65625 59.910156 C 944.566406 0.519531 1057.621094 39.953125 1057.621094 39.953125 C 1057.621094 39.953125 1199.820312 45.445312 1267.730469 192.824219 C 1314.035156 293.320312 1320.117188 421.179688 1316.898438 552.125 C 1307.128906 949.398438 1558.929688 859.972656 1551.625 1128.5 Z M 1551.625 1128.5 C 1551.460938 1134.632812 1550.945312 1140.65625 1550.210938 1146.601562 C 1505.964844 1071.046875 1468.726562 1002.316406 1423.542969 973.007812 C 1456.921875 1131.757812 1435.414062 1267.636719 1400.867188 1347.273438 C 1373.671875 1409.972656 1305.5 1428.898438 1268.972656 1413.261719 C 1241.710938 1390.058594 1240.914062 1353.824219 1242.960938 1333.972656 C 1237.234375 1364.699219 1218.316406 1410.234375 1180.128906 1398.777344 C 1131.285156 1384.125 1164.660156 1246.542969 1184.199219 1107.332031 C 1203.738281 968.125 1150.980469 862.488281 1150.980469 862.488281 C 1150.980469 862.488281 1072.671875 851.710938 795.878906 845.199219 C 577.582031 840.0625 577.367188 525.523438 590.730469 391.75 C 622.1875 215.417969 686.695312 108.445312 802.65625 59.910156 C 944.566406 0.519531 1057.621094 39.953125 1057.621094 39.953125 C 1057.621094 39.953125 1199.820312 45.445312 1267.730469 192.824219 C 1314.035156 293.320312 1320.117188 421.179688 1316.898438 552.125 C 1307.128906 949.398438 1558.929688 859.972656 1551.625 1128.5 Z M 1551.625 1128.5 " fill-opacity="1" fill-rule="nonzero"/><path fill="#b47979" d="M 479.203125 896.078125 C 475.347656 931.609375 472.164062 966.628906 469.429688 982.371094 C 464.203125 1012.5 374.007812 1112.625 358.894531 1140.351562 C 355.898438 1145.847656 350.054688 1159.609375 347.421875 1165.945312 C 256.753906 1172.054688 170.671875 1130.050781 170.671875 1130.050781 L 179.210938 1094.835938 C 179.210938 1094.835938 189.828125 916.214844 205.769531 855.78125 C 211.015625 835.890625 225.707031 812.136719 232.632812 807.851562 C 240.03125 803.269531 263.40625 795.742188 270.011719 820.414062 C 270.101562 821.863281 270.152344 823.246094 270.21875 824.660156 C 273.785156 810.671875 282.976562 802.324219 291.859375 797.46875 C 300.046875 792.996094 315.0625 792.585938 323.53125 808.96875 C 326.042969 813.828125 326.171875 819.625 325.863281 825.089844 C 325.753906 827.050781 325.609375 828.921875 325.476562 830.820312 C 325.476562 830.820312 327.375 749.539062 368.484375 743.84375 C 379.214844 742.355469 390.816406 752.988281 401.460938 769.503906 C 411.050781 746.777344 418.632812 734.398438 428.726562 724.304688 C 446.433594 706.597656 486.449219 660.582031 497.113281 690.113281 C 507.695312 719.417969 456.222656 767.796875 441.753906 810.597656 C 437.890625 822.015625 434.832031 832.460938 432.394531 841.714844 C 434.148438 848.265625 435.457031 854.335938 436.253906 859.648438 C 471.019531 797.550781 500.328125 797.949219 506.878906 811.410156 C 514.207031 826.472656 482.722656 863.601562 479.203125 896.078125 Z M 1206.183594 1460.851562 C 1197.023438 1427.269531 1160.390625 1396.132812 1106.53125 1374.675781 C 1092.675781 1369.15625 1078.007812 1366.578125 1065.640625 1364.515625 L 1064.9375 1406.917969 C 1063.835938 1406.414062 1062.425781 1405.503906 1060.882812 1404.40625 C 1012.539062 1368.015625 967.933594 1341.023438 925.320312 1314.109375 C 894.386719 1294.574219 824.710938 1287.996094 879.730469 1340.160156 C 814.402344 1296.195312 792.515625 1343.027344 851.566406 1388.066406 C 801.535156 1359.703125 801.851562 1420.78125 861.617188 1464.347656 C 829.734375 1449.199219 806.863281 1474.203125 886.917969 1545.046875 C 979.320312 1626.816406 1150.007812 1693.476562 1150.007812 1693.476562 L 1235.980469 1538.589844 C 1235.980469 1538.589844 1218.421875 1505.734375 1206.183594 1460.851562 Z M 1219.5 468.5625 C 1205.664062 432.179688 1173.867188 452.476562 1173.867188 452.476562 C 1114.871094 451.3125 1060.328125 311.179688 1055.542969 223.902344 C 1055.398438 221.238281 1052.015625 220.460938 1050.761719 222.796875 C 985.164062 344.746094 795.742188 453.992188 730.308594 392.871094 C 730.308594 392.871094 703.539062 364.003906 680.503906 395.382812 C 659.246094 424.339844 659.175781 494.738281 717.6875 499.800781 C 724.984375 553.378906 753.140625 619.492188 806.742188 654.183594 C 808.378906 655.246094 810.0625 656.308594 811.769531 657.371094 L 811.769531 778.964844 C 811.769531 805.851562 794.1875 829.578125 768.464844 837.40625 L 692.449219 862.488281 C 707.46875 898.617188 734.71875 926.480469 765.316406 947.757812 C 859.414062 1013.195312 984.015625 1013.195312 1078.113281 947.757812 C 1108.714844 926.480469 1135.960938 898.617188 1150.980469 862.488281 L 1059.078125 831.605469 C 1044.671875 827.222656 1034.828125 813.9375 1034.828125 798.878906 L 1034.828125 678.367188 C 1083.925781 657.828125 1118.464844 612.140625 1145.382812 555.4375 C 1189.242188 577.488281 1233.171875 504.511719 1219.5 468.5625 Z M 1219.5 468.5625 " fill-opacity="1" fill-rule="nonzero"/><path fill="#b47979" d="M 642.757812 566.113281 L 301.398438 1068.40625 L 258.390625 1094.945312 C 255.480469 1096.742188 251.847656 1094.136719 252.617188 1090.800781 L 263.691406 1042.78125 L 338.476562 932.738281 C 341.148438 935.566406 344.34375 936.558594 348.132812 934.339844 C 358.628906 928.195312 358.976562 914.003906 357.792969 904.3125 L 389.25 858.03125 C 389.453125 858.292969 389.648438 858.570312 389.855469 858.832031 C 408.035156 881.730469 438.179688 880.300781 438.292969 863.105469 C 438.386719 849.039062 431.226562 827.238281 423.4375 807.722656 L 605.050781 540.484375 C 612.128906 530.074219 626.304688 527.367188 636.714844 534.445312 C 647.128906 541.523438 649.835938 555.699219 642.757812 566.113281 Z M 886.917969 1545.046875 C 806.863281 1474.203125 829.734375 1449.199219 861.617188 1464.347656 C 801.851562 1420.78125 801.535156 1359.703125 851.566406 1388.066406 C 792.511719 1343.027344 814.402344 1296.195312 879.730469 1340.160156 C 824.710938 1287.996094 894.386719 1294.574219 925.320312 1314.109375 C 967.933594 1341.023438 1012.539062 1368.015625 1060.882812 1404.40625 C 1062.363281 1405.460938 1063.703125 1406.320312 1064.785156 1406.832031 L 1067.789062 1117.101562 L 624.921875 1120.359375 L 633.0625 1739.066406 L 1061.273438 1745.578125 L 1062.21875 1654.265625 C 1002.804688 1624.78125 932.566406 1585.441406 886.917969 1545.046875 Z M 886.917969 1545.046875 " fill-opacity="1" fill-rule="nonzero"/><path fill="#000814" d="M 915.5625 618.234375 C 916.5625 618.429688 917.5625 618.519531 918.558594 618.519531 C 929.152344 618.519531 939.121094 607.878906 942.035156 592.773438 L 942.035156 592.769531 C 945.222656 576.238281 938.589844 561.53125 926.9375 559.28125 C 920.988281 558.128906 914.929688 560.425781 909.828125 565.707031 C 905.246094 570.460938 901.917969 577.226562 900.46875 584.746094 C 897.277344 601.277344 903.902344 615.984375 915.5625 618.234375 Z M 909.65625 586.519531 C 910.753906 580.839844 913.273438 575.621094 916.570312 572.203125 C 918.027344 570.699219 920.792969 568.355469 923.96875 568.355469 C 924.359375 568.355469 924.761719 568.394531 925.164062 568.472656 C 930.648438 569.535156 935.148438 579.042969 932.84375 590.996094 C 930.757812 601.800781 923.488281 610.183594 917.335938 609.042969 C 911.851562 607.980469 907.355469 598.472656 909.65625 586.519531 Z M 401.980469 760.527344 C 399.675781 761.703125 398.753906 764.519531 399.929688 766.824219 C 400.265625 767.488281 433.808594 833.832031 433.613281 863.078125 C 433.589844 866.644531 431.636719 869.125 427.8125 870.441406 C 419.167969 873.453125 404.195312 869.363281 393.523438 855.921875 C 377.75 836.066406 367.523438 806.332031 367.421875 806.039062 C 366.59375 803.589844 363.933594 802.28125 361.480469 803.113281 C 359.035156 803.949219 357.726562 806.605469 358.558594 809.050781 C 358.871094 809.96875 364.34375 825.839844 373.613281 842.546875 L 369.960938 867.726562 C 369.585938 870.28125 371.359375 872.660156 373.917969 873.03125 C 374.148438 873.0625 374.371094 873.078125 374.597656 873.078125 C 376.886719 873.078125 378.886719 871.402344 379.222656 869.070312 L 381.265625 855.007812 C 382.84375 857.316406 384.472656 859.585938 386.191406 861.75 C 395.386719 873.324219 407.230469 879.183594 417.640625 880.4375 C 411.3125 891.292969 396.632812 917.417969 389.890625 937.808594 L 379.792969 952.949219 C 381.808594 952.15625 383.753906 951.402344 385.570312 950.699219 C 389.472656 949.191406 392.816406 947.894531 395.398438 946.765625 C 396.640625 946.222656 397.589844 945.160156 397.992188 943.863281 C 405.667969 919.050781 428.457031 880.535156 428.683594 880.148438 C 428.746094 880.039062 428.75 879.910156 428.804688 879.796875 C 429.492188 879.625 430.222656 879.511719 430.867188 879.289062 C 438.398438 876.695312 442.921875 870.652344 442.976562 863.136719 C 443.1875 831.632812 409.699219 765.386719 408.273438 762.582031 C 407.097656 760.277344 404.28125 759.375 401.980469 760.527344 Z M 360.40625 927.574219 C 371.304688 907.066406 338.53125 831.054688 331.855469 816.023438 C 330.804688 813.664062 328.039062 812.585938 325.675781 813.648438 C 323.3125 814.695312 322.25 817.460938 323.296875 819.828125 C 338.046875 853.015625 358.921875 910.417969 352.136719 923.1875 C 349.832031 927.53125 345.292969 928.070312 341.890625 927.757812 C 327.605469 926.441406 307.15625 908.832031 296.023438 873.304688 C 295.78125 872.539062 295.328125 871.933594 294.792969 871.410156 C 287.863281 851.257812 279.824219 831.527344 274.320312 818.582031 C 273.304688 816.210938 270.558594 815.109375 268.179688 816.109375 C 265.800781 817.121094 264.695312 819.867188 265.703125 822.246094 C 290.113281 879.667969 305.074219 932.78125 298.371094 938.234375 C 293.277344 942.378906 288.289062 943.652344 283.101562 942.128906 C 262.878906 936.167969 244.128906 890.832031 238.613281 873.871094 C 237.816406 871.410156 235.183594 870.054688 232.714844 870.867188 C 230.257812 871.664062 228.910156 874.304688 229.707031 876.761719 C 230.582031 879.441406 251.378906 942.53125 280.449219 951.109375 C 282.777344 951.796875 285.082031 952.136719 287.367188 952.136719 C 293.183594 952.136719 298.847656 949.917969 304.277344 945.5 C 309.546875 941.210938 309.675781 929.734375 306.988281 915.074219 C 318.039062 928.90625 330.523438 936.113281 341.027344 937.082031 C 341.855469 937.15625 342.664062 937.199219 343.457031 937.199219 C 351.019531 937.199219 357.117188 933.769531 360.40625 927.574219 Z M 943.902344 1379.214844 C 929.519531 1370.597656 915.234375 1361.855469 901.5 1352.230469 C 890.769531 1344.710938 880.324219 1336.796875 870.015625 1328.710938 C 865.328125 1325.03125 858.660156 1331.613281 863.398438 1335.332031 C 879.988281 1348.351562 896.910156 1360.949219 914.691406 1372.308594 C 929.449219 1381.738281 944.648438 1390.449219 959.554688 1399.640625 C 971.917969 1407.261719 984.128906 1415.128906 996.226562 1423.171875 C 1001.257812 1426.515625 1005.953125 1418.410156 1000.953125 1415.085938 C 982.234375 1402.644531 963.179688 1390.765625 943.902344 1379.214844 Z M 966.042969 1462.371094 C 931.804688 1441.3125 899.027344 1418.433594 866.660156 1394.628906 C 856.152344 1386.898438 845.628906 1379.183594 835.066406 1371.527344 C 830.179688 1367.988281 825.503906 1376.105469 830.339844 1379.609375 C 862.792969 1403.128906 894.636719 1427.507812 928.175781 1449.480469 C 939.109375 1456.648438 950.179688 1463.605469 961.316406 1470.457031 C 966.460938 1473.621094 971.167969 1465.527344 966.042969 1462.371094 Z M 961.941406 1526.125 C 944.515625 1517 927.792969 1506.78125 911.953125 1495.113281 C 896.644531 1483.832031 881.902344 1471.800781 866.628906 1460.472656 C 861.785156 1456.882812 857.109375 1465.003906 861.902344 1468.558594 C 877.175781 1479.886719 891.917969 1491.917969 907.230469 1503.195312 C 923.070312 1514.863281 939.792969 1525.085938 957.214844 1534.210938 C 962.546875 1537.003906 967.285156 1528.925781 961.941406 1526.125 Z M 1123.066406 1434.21875 C 1105.605469 1424.515625 1087.367188 1416.238281 1069.535156 1407.257812 C 1064.167969 1404.554688 1059.421875 1412.628906 1064.808594 1415.34375 C 1082.640625 1424.324219 1100.878906 1432.597656 1118.339844 1442.300781 C 1123.613281 1445.230469 1128.339844 1437.148438 1123.066406 1434.21875 Z M 405.191406 1155.511719 C 394.679688 1147.855469 357.496094 1143.355469 357.496094 1143.355469 C 357.496094 1143.355469 349.558594 1156.179688 347.421875 1165.949219 C 347.421875 1165.949219 381.769531 1169.761719 398.722656 1165.859375 C 398.117188 1205.75 394.152344 1433.683594 380.917969 1580.710938 C 380.6875 1583.289062 382.585938 1585.5625 385.160156 1585.792969 C 385.304688 1585.804688 385.445312 1585.8125 385.585938 1585.8125 C 387.984375 1585.8125 390.023438 1583.984375 390.246094 1581.550781 C 404.746094 1420.417969 408.140625 1162.484375 408.171875 1159.902344 C 408.199219 1157.898438 406.949219 1156.203125 405.191406 1155.511719 Z M 1569.246094 1650.003906 C 1560.164062 1646.679688 1399.214844 1587.851562 1303.667969 1555.171875 L 1310.175781 1421.792969 C 1310.304688 1419.214844 1308.3125 1417.019531 1305.726562 1416.894531 C 1303.355469 1416.683594 1300.957031 1418.757812 1300.828125 1421.34375 L 1294.449219 1552.03125 C 1265.84375 1542.324219 1244.398438 1535.46875 1236.878906 1533.996094 C 1234.980469 1533.65625 1233.050781 1534.464844 1232.019531 1536.101562 C 1202.777344 1582.640625 1136.761719 1709.316406 1126.191406 1733.09375 C 1125.40625 1734.859375 1125.789062 1736.933594 1127.160156 1738.304688 C 1158.957031 1770.101562 1262.292969 1831.660156 1266.683594 1834.265625 C 1267.433594 1834.710938 1268.253906 1834.921875 1269.066406 1834.921875 C 1270.664062 1834.921875 1272.222656 1834.105469 1273.09375 1832.628906 C 1274.417969 1830.410156 1273.683594 1827.535156 1271.460938 1826.21875 C 1270.425781 1825.605469 1169.699219 1765.605469 1136.109375 1733.941406 C 1148.796875 1706.914062 1208.261719 1592.308594 1238.1875 1543.902344 C 1282.316406 1555.09375 1563.121094 1657.734375 1566.027344 1658.792969 C 1568.4375 1659.671875 1571.140625 1658.433594 1572.03125 1656.007812 C 1572.921875 1653.578125 1571.671875 1650.886719 1569.246094 1650.003906 Z M 1447.152344 1579.300781 C 1447.578125 1579.300781 1448.015625 1579.242188 1448.449219 1579.121094 C 1449.175781 1578.90625 1521.378906 1558.132812 1546.46875 1558.132812 C 1549.054688 1558.132812 1551.152344 1556.039062 1551.152344 1553.453125 C 1551.152344 1550.867188 1549.054688 1548.773438 1546.46875 1548.773438 C 1520.0625 1548.773438 1448.871094 1569.25 1445.851562 1570.125 C 1443.367188 1570.84375 1441.933594 1573.4375 1442.652344 1575.917969 C 1443.246094 1577.96875 1445.117188 1579.300781 1447.152344 1579.300781 Z M 530.28125 1181.984375 C 525.371094 1087.082031 475.9375 1027.054688 473.835938 1024.546875 C 472.175781 1022.5625 469.21875 1022.3125 467.242188 1023.960938 C 465.257812 1025.625 465 1028.578125 466.660156 1030.558594 C 467.152344 1031.148438 516.183594 1090.667969 520.929688 1182.46875 C 522.910156 1220.746094 524.351562 1252.320312 525.371094 1276.4375 C 506.671875 1230.742188 469.761719 1163.914062 467.828125 1160.425781 C 466.574219 1158.15625 463.730469 1157.347656 461.46875 1158.597656 C 459.207031 1159.851562 458.386719 1162.699219 459.636719 1164.960938 C 460.222656 1166.011719 518.011719 1270.609375 525.914062 1306.960938 C 526.222656 1308.394531 526.515625 1310.21875 526.800781 1312.214844 C 527.234375 1323.972656 527.433594 1330.351562 527.441406 1330.53125 C 527.476562 1331.753906 527.996094 1332.839844 528.789062 1333.652344 C 533.441406 1404.941406 532.332031 1572.613281 532.320312 1574.589844 C 532.300781 1577.175781 534.382812 1579.28125 536.964844 1579.300781 C 536.976562 1579.300781 536.988281 1579.300781 537 1579.300781 C 539.570312 1579.300781 541.664062 1577.230469 541.679688 1574.652344 C 541.746094 1565.636719 543.078125 1363.105469 536.144531 1311.582031 C 535.277344 1288.238281 533.46875 1243.714844 530.28125 1181.984375 Z M 975.164062 1111.898438 C 975.480469 1111.722656 975.539062 1111.652344 975.40625 1111.722656 C 975.34375 1111.769531 975.277344 1111.804688 975.214844 1111.851562 C 975.199219 1111.867188 975.183594 1111.882812 975.164062 1111.898438 Z M 979 1110.28125 C 979.273438 1110.289062 979.429688 1110.285156 979.496094 1110.273438 C 979.335938 1110.277344 979.171875 1110.28125 979.011719 1110.277344 C 979.007812 1110.277344 979.003906 1110.28125 979 1110.28125 Z M 975.210938 1123.824219 C 975.558594 1124.132812 975.90625 1124.171875 975.210938 1123.824219 Z M 977.015625 1124.894531 C 977.03125 1124.898438 977.046875 1124.902344 977.058594 1124.90625 C 976.617188 1124.65625 976.574219 1124.675781 976.734375 1124.769531 C 976.761719 1124.78125 976.785156 1124.796875 976.8125 1124.808594 C 976.875 1124.835938 976.941406 1124.871094 977.015625 1124.894531 Z M 976.511719 1111.066406 C 976.644531 1110.996094 976.800781 1110.921875 976.953125 1110.851562 C 976.988281 1110.835938 977.019531 1110.824219 977.054688 1110.8125 C 977.503906 1110.652344 977.960938 1110.519531 978.421875 1110.40625 C 978.613281 1110.359375 978.804688 1110.320312 978.996094 1110.28125 C 978.9375 1110.28125 978.917969 1110.28125 978.84375 1110.28125 C 978.898438 1110.28125 978.957031 1110.277344 979.011719 1110.277344 C 979.027344 1110.277344 979.042969 1110.269531 979.058594 1110.269531 C 979.382812 1110.207031 979.636719 1110.25 979.496094 1110.273438 C 980.1875 1110.261719 980.878906 1110.222656 981.578125 1110.261719 C 981.800781 1110.304688 982.023438 1110.34375 982.242188 1110.398438 C 982.65625 1110.5 983.058594 1110.640625 983.46875 1110.765625 C 983.648438 1110.855469 983.828125 1110.941406 984.003906 1111.039062 C 984.460938 1111.289062 984.894531 1111.574219 985.316406 1111.878906 C 987.300781 1113.332031 990.621094 1112.28125 991.71875 1110.203125 C 993.007812 1107.765625 992.15625 1105.34375 990.039062 1103.796875 C 985.972656 1100.824219 980.351562 1100.175781 975.554688 1101.476562 C 970.324219 1102.894531 966.316406 1106.570312 964.3125 1111.558594 C 962.429688 1116.242188 963.039062 1121.808594 965.34375 1126.226562 C 967.617188 1130.585938 972.0625 1133.746094 976.914062 1134.5 C 982.71875 1135.40625 988.996094 1133.78125 992.976562 1129.253906 C 994.589844 1127.414062 994.921875 1124.417969 992.976562 1122.632812 C 991.207031 1121.007812 988.082031 1120.667969 986.355469 1122.632812 C 986.070312 1122.957031 985.773438 1123.273438 985.453125 1123.566406 C 985.355469 1123.65625 985.253906 1123.742188 985.152344 1123.828125 C 984.800781 1124.050781 984.460938 1124.28125 984.09375 1124.480469 C 983.949219 1124.5625 983.800781 1124.636719 983.652344 1124.710938 C 982.953125 1124.84375 982.25 1125.144531 981.542969 1125.316406 C 981.582031 1125.320312 981.5 1125.347656 981.347656 1125.375 C 981.335938 1125.375 981.324219 1125.378906 981.316406 1125.382812 C 981.152344 1125.414062 980.964844 1125.425781 980.800781 1125.46875 C 980.941406 1125.433594 980.992188 1125.425781 981.089844 1125.402344 C 980.628906 1125.417969 980.171875 1125.449219 979.710938 1125.4375 C 979.277344 1125.425781 978.847656 1125.355469 978.414062 1125.339844 C 979.917969 1125.386719 978.609375 1125.34375 978.132812 1125.226562 C 977.769531 1125.136719 977.417969 1125.015625 977.058594 1124.90625 C 977.140625 1124.953125 977.179688 1124.972656 977.292969 1125.039062 C 977.144531 1124.949219 976.976562 1124.882812 976.8125 1124.808594 C 976.78125 1124.796875 976.757812 1124.785156 976.734375 1124.773438 C 976.6875 1124.75 976.636719 1124.730469 976.59375 1124.707031 C 976.210938 1124.507812 975.839844 1124.289062 975.480469 1124.046875 C 975.359375 1123.964844 975.195312 1123.8125 975.058594 1123.75 C 975.132812 1123.785156 975.148438 1123.796875 975.210938 1123.828125 C 975.207031 1123.824219 975.203125 1123.824219 975.199219 1123.820312 C 974.910156 1123.558594 974.636719 1123.28125 974.375 1122.992188 C 974.238281 1122.835938 974.113281 1122.640625 973.957031 1122.5 C 974.03125 1122.566406 974.050781 1122.589844 974.105469 1122.640625 C 974.097656 1122.628906 974.089844 1122.625 974.082031 1122.613281 C 973.84375 1122.253906 973.625 1121.882812 973.425781 1121.5 C 973.363281 1121.382812 973.308594 1121.265625 973.25 1121.148438 C 972.992188 1120.371094 972.785156 1119.601562 972.621094 1118.800781 C 972.609375 1118.664062 972.597656 1118.523438 972.589844 1118.386719 C 972.570312 1117.996094 972.566406 1117.605469 972.578125 1117.214844 C 972.59375 1116.828125 972.664062 1116.4375 972.667969 1116.050781 C 972.667969 1116.191406 972.664062 1116.226562 972.660156 1116.324219 C 972.664062 1116.308594 972.664062 1116.289062 972.667969 1116.273438 C 972.71875 1116.019531 972.777344 1115.765625 972.84375 1115.519531 C 972.933594 1115.183594 973.136719 1114.78125 973.203125 1114.433594 C 973.253906 1114.328125 973.304688 1114.222656 973.359375 1114.117188 C 973.542969 1113.773438 973.742188 1113.441406 973.957031 1113.117188 C 973.96875 1113.101562 973.980469 1113.085938 973.992188 1113.070312 C 974.121094 1112.929688 974.25 1112.769531 974.367188 1112.648438 C 974.617188 1112.382812 974.890625 1112.144531 975.164062 1111.902344 C 975.082031 1111.945312 975.097656 1111.96875 974.972656 1112.019531 C 975.054688 1111.984375 975.132812 1111.914062 975.210938 1111.855469 C 975.246094 1111.824219 975.277344 1111.792969 975.308594 1111.761719 C 975.371094 1111.707031 975.359375 1111.746094 975.402344 1111.722656 C 975.433594 1111.699219 975.472656 1111.675781 975.503906 1111.652344 C 975.832031 1111.441406 976.167969 1111.246094 976.511719 1111.066406 Z M 972.664062 1116.324219 C 972.597656 1116.699219 972.640625 1117.136719 972.664062 1116.324219 Z M 974.105469 1122.636719 C 974.347656 1122.984375 974.632812 1123.136719 974.105469 1122.636719 Z M 981.347656 1125.371094 C 981.414062 1125.359375 981.476562 1125.328125 981.542969 1125.3125 C 981.511719 1125.308594 981.359375 1125.339844 981.089844 1125.398438 C 981.109375 1125.398438 981.125 1125.398438 981.140625 1125.398438 C 981.214844 1125.394531 981.28125 1125.382812 981.347656 1125.371094 Z M 1021.582031 1123.191406 C 1021.65625 1123.273438 1021.738281 1123.34375 1021.8125 1123.417969 C 1021.78125 1123.363281 1021.671875 1123.238281 1021.492188 1123.050781 C 1021.511719 1123.085938 1021.53125 1123.125 1021.554688 1123.160156 C 1021.5625 1123.171875 1021.574219 1123.183594 1021.582031 1123.191406 Z M 1029.898438 1111.1875 C 1030.171875 1111.328125 1030.320312 1111.398438 1030.308594 1111.382812 C 1030.203125 1111.332031 1030.097656 1111.277344 1029.992188 1111.226562 C 1029.960938 1111.214844 1029.929688 1111.199219 1029.898438 1111.1875 Z M 1024.714844 1124.734375 C 1024.859375 1124.746094 1025.011719 1124.75 1025.160156 1124.753906 C 1025.097656 1124.742188 1024.910156 1124.726562 1024.601562 1124.710938 C 1024.632812 1124.714844 1024.660156 1124.726562 1024.691406 1124.734375 C 1024.699219 1124.734375 1024.707031 1124.734375 1024.714844 1124.734375 Z M 1032.25 1122.828125 C 1031.796875 1123.140625 1031.324219 1123.421875 1030.832031 1123.671875 C 1030.699219 1123.738281 1030.566406 1123.796875 1030.433594 1123.859375 C 1030.335938 1123.898438 1030.238281 1123.933594 1030.136719 1123.96875 C 1029.578125 1124.167969 1029.011719 1124.335938 1028.4375 1124.472656 C 1028.117188 1124.550781 1027.792969 1124.621094 1027.46875 1124.679688 C 1027.449219 1124.683594 1027.429688 1124.6875 1027.410156 1124.691406 C 1026.84375 1124.734375 1026.28125 1124.785156 1025.714844 1124.777344 C 1025.527344 1124.777344 1025.34375 1124.761719 1025.15625 1124.753906 C 1025.289062 1124.78125 1024.996094 1124.792969 1024.722656 1124.742188 C 1024.710938 1124.738281 1024.703125 1124.734375 1024.691406 1124.734375 C 1024.53125 1124.71875 1024.371094 1124.691406 1024.214844 1124.683594 C 1024.402344 1124.695312 1024.46875 1124.699219 1024.601562 1124.707031 C 1024.070312 1124.605469 1023.554688 1124.453125 1023.042969 1124.285156 C 1022.757812 1124.128906 1022.480469 1123.96875 1022.203125 1123.796875 C 1022.066406 1123.675781 1021.941406 1123.546875 1021.8125 1123.417969 C 1021.882812 1123.539062 1021.707031 1123.417969 1021.5625 1123.179688 C 1021.558594 1123.171875 1021.558594 1123.167969 1021.550781 1123.160156 C 1021.449219 1123.042969 1021.355469 1122.90625 1021.246094 1122.800781 C 1021.367188 1122.914062 1021.410156 1122.96875 1021.488281 1123.050781 C 1021.328125 1122.78125 1021.164062 1122.507812 1021.011719 1122.230469 C 1021.007812 1122.226562 1021.007812 1122.222656 1021.003906 1122.21875 C 1021.054688 1122.347656 1021.089844 1122.433594 1021.164062 1122.648438 C 1021.105469 1122.488281 1021.042969 1122.328125 1020.980469 1122.164062 C 1020.847656 1121.898438 1020.753906 1121.5625 1020.929688 1122.015625 C 1020.828125 1121.707031 1020.734375 1121.398438 1020.65625 1121.085938 C 1020.546875 1120.644531 1020.488281 1120.199219 1020.398438 1119.757812 C 1020.742188 1121.441406 1020.421875 1119.636719 1020.40625 1119.152344 C 1020.390625 1118.667969 1020.390625 1118.175781 1020.414062 1117.6875 C 1020.425781 1117.441406 1020.476562 1117.183594 1020.472656 1116.9375 C 1020.476562 1117.058594 1020.472656 1117.089844 1020.46875 1117.179688 C 1020.550781 1116.796875 1020.648438 1116.414062 1020.769531 1116.042969 C 1020.8125 1115.898438 1020.867188 1115.753906 1020.921875 1115.609375 C 1020.953125 1115.542969 1020.984375 1115.472656 1021.019531 1115.40625 C 1021.199219 1115.058594 1021.394531 1114.71875 1021.605469 1114.390625 C 1021.691406 1114.253906 1021.785156 1114.125 1021.875 1113.996094 C 1022.179688 1113.664062 1022.476562 1113.328125 1022.804688 1113.015625 C 1022.941406 1112.886719 1023.082031 1112.761719 1023.21875 1112.640625 C 1023.878906 1112.257812 1024.523438 1111.875 1025.1875 1111.507812 C 1025.394531 1111.429688 1025.984375 1111.175781 1026.261719 1111.101562 C 1026.441406 1111.050781 1026.625 1111.019531 1026.808594 1110.984375 C 1026.601562 1111.011719 1026.917969 1110.910156 1027.207031 1110.886719 C 1027.230469 1110.886719 1027.25 1110.886719 1027.273438 1110.886719 C 1027.371094 1110.867188 1027.472656 1110.847656 1027.570312 1110.824219 C 1027.429688 1110.855469 1027.386719 1110.863281 1027.285156 1110.886719 C 1027.550781 1110.867188 1027.820312 1110.855469 1028.085938 1110.859375 C 1028.304688 1110.859375 1028.523438 1110.867188 1028.742188 1110.882812 C 1028.855469 1110.890625 1028.851562 1110.882812 1028.914062 1110.886719 C 1029.292969 1110.980469 1029.707031 1111.121094 1029.855469 1111.171875 C 1029.867188 1111.175781 1029.882812 1111.183594 1029.894531 1111.1875 C 1029.789062 1111.132812 1029.726562 1111.101562 1029.558594 1111.011719 C 1029.699219 1111.089844 1029.847656 1111.160156 1029.992188 1111.226562 C 1030.152344 1111.292969 1030.292969 1111.367188 1030.304688 1111.382812 C 1030.324219 1111.394531 1030.339844 1111.402344 1030.359375 1111.410156 C 1032.507812 1112.582031 1035.558594 1112.011719 1036.761719 1109.730469 C 1037.917969 1107.542969 1037.378906 1104.578125 1035.082031 1103.328125 C 1030.300781 1100.722656 1024.644531 1101.089844 1019.925781 1103.644531 C 1014.996094 1106.308594 1011.820312 1111.1875 1011.144531 1116.691406 C 1010.566406 1121.363281 1011.835938 1126.644531 1015.191406 1130.058594 C 1018.007812 1132.925781 1022.097656 1134.195312 1026.046875 1134.140625 C 1029.777344 1134.085938 1033.871094 1133.046875 1036.972656 1130.914062 C 1038.984375 1129.527344 1040.09375 1126.742188 1038.652344 1124.507812 C 1037.363281 1122.507812 1034.40625 1121.34375 1032.25 1122.828125 Z M 1023.234375 1112.632812 C 1023.234375 1112.628906 1023.234375 1112.628906 1023.234375 1112.628906 C 1023.550781 1112.355469 1024.140625 1112.09375 1023.234375 1112.632812 Z M 1026.808594 1110.984375 C 1026.882812 1110.976562 1027.050781 1110.941406 1027.289062 1110.886719 C 1027.285156 1110.886719 1027.28125 1110.886719 1027.273438 1110.886719 C 1027.117188 1110.917969 1026.964844 1110.957031 1026.808594 1110.984375 Z M 1020.472656 1117.183594 C 1020.46875 1117.191406 1020.464844 1117.203125 1020.464844 1117.210938 C 1020.382812 1117.617188 1020.460938 1118.085938 1020.472656 1117.183594 Z M 1020.984375 1122.164062 C 1020.992188 1122.183594 1021 1122.203125 1021.007812 1122.21875 C 1020.984375 1122.15625 1020.949219 1122.058594 1020.933594 1122.015625 C 1020.941406 1122.039062 1020.945312 1122.066406 1020.953125 1122.089844 C 1020.960938 1122.117188 1020.972656 1122.140625 1020.984375 1122.164062 Z M 924.808594 1124.175781 C 924.816406 1124.195312 924.824219 1124.210938 924.832031 1124.226562 C 924.8125 1124.167969 924.777344 1124.074219 924.761719 1124.035156 C 924.769531 1124.054688 924.773438 1124.078125 924.78125 1124.101562 C 924.789062 1124.128906 924.800781 1124.152344 924.808594 1124.175781 Z M 928.539062 1126.746094 C 928.6875 1126.761719 928.835938 1126.761719 928.984375 1126.765625 C 928.925781 1126.753906 928.738281 1126.738281 928.429688 1126.722656 C 928.460938 1126.726562 928.488281 1126.738281 928.519531 1126.746094 C 928.527344 1126.746094 928.53125 1126.746094 928.539062 1126.746094 Z M 925.410156 1125.207031 C 925.480469 1125.285156 925.5625 1125.355469 925.640625 1125.429688 C 925.605469 1125.375 925.496094 1125.25 925.316406 1125.066406 C 925.339844 1125.101562 925.359375 1125.136719 925.382812 1125.171875 C 925.390625 1125.183594 925.398438 1125.195312 925.410156 1125.207031 Z M 930.636719 1112.996094 C 930.707031 1112.988281 930.878906 1112.953125 931.117188 1112.898438 C 931.109375 1112.898438 931.105469 1112.898438 931.101562 1112.898438 C 930.945312 1112.929688 930.792969 1112.96875 930.636719 1112.996094 Z M 924.597656 1118.054688 C 924.640625 1117.914062 924.695312 1117.769531 924.75 1117.625 C 924.78125 1117.554688 924.8125 1117.488281 924.847656 1117.417969 C 925.027344 1117.070312 925.222656 1116.730469 925.433594 1116.402344 C 925.523438 1116.269531 925.613281 1116.136719 925.707031 1116.007812 C 926.007812 1115.675781 926.304688 1115.339844 926.632812 1115.027344 C 926.769531 1114.898438 926.910156 1114.773438 927.050781 1114.652344 C 927.707031 1114.269531 928.351562 1113.886719 929.015625 1113.523438 C 929.222656 1113.445312 929.816406 1113.1875 930.089844 1113.113281 C 930.269531 1113.0625 930.453125 1113.03125 930.636719 1112.996094 C 930.433594 1113.023438 930.75 1112.921875 931.035156 1112.902344 C 931.058594 1112.898438 931.082031 1112.898438 931.101562 1112.898438 C 931.203125 1112.878906 931.300781 1112.859375 931.402344 1112.835938 C 931.261719 1112.867188 931.21875 1112.875 931.117188 1112.898438 C 931.382812 1112.878906 931.648438 1112.867188 931.917969 1112.871094 C 932.136719 1112.871094 932.355469 1112.878906 932.574219 1112.894531 C 932.683594 1112.902344 932.683594 1112.894531 932.742188 1112.898438 C 933.121094 1112.992188 933.539062 1113.132812 933.6875 1113.183594 C 933.699219 1113.1875 933.710938 1113.195312 933.726562 1113.199219 C 933.617188 1113.144531 933.554688 1113.113281 933.390625 1113.027344 C 933.53125 1113.101562 933.675781 1113.171875 933.820312 1113.238281 C 933.980469 1113.304688 934.121094 1113.378906 934.136719 1113.398438 C 934.152344 1113.40625 934.171875 1113.414062 934.1875 1113.421875 C 936.335938 1114.59375 939.386719 1114.023438 940.589844 1111.742188 C 941.746094 1109.554688 941.207031 1106.589844 938.914062 1105.339844 C 934.132812 1102.734375 928.472656 1103.101562 923.753906 1105.65625 C 918.824219 1108.320312 915.652344 1113.199219 914.972656 1118.703125 C 914.398438 1123.375 915.664062 1128.65625 919.023438 1132.070312 C 921.835938 1134.9375 925.929688 1136.207031 929.878906 1136.152344 C 933.609375 1136.097656 937.699219 1135.058594 940.800781 1132.925781 C 942.816406 1131.539062 943.921875 1128.753906 942.480469 1126.519531 C 941.191406 1124.519531 938.234375 1123.355469 936.078125 1124.839844 C 935.621094 1125.152344 935.148438 1125.433594 934.65625 1125.683594 C 934.527344 1125.75 934.394531 1125.808594 934.261719 1125.871094 C 934.164062 1125.910156 934.0625 1125.945312 933.964844 1125.980469 C 933.40625 1126.179688 932.839844 1126.347656 932.265625 1126.484375 C 931.945312 1126.5625 931.621094 1126.632812 931.296875 1126.691406 C 931.277344 1126.695312 931.253906 1126.699219 931.234375 1126.703125 C 930.671875 1126.746094 930.109375 1126.796875 929.542969 1126.792969 C 929.355469 1126.789062 929.171875 1126.777344 928.984375 1126.765625 C 929.117188 1126.792969 928.820312 1126.804688 928.550781 1126.753906 C 928.539062 1126.75 928.53125 1126.746094 928.519531 1126.746094 C 928.359375 1126.730469 928.199219 1126.703125 928.042969 1126.699219 C 928.230469 1126.707031 928.296875 1126.710938 928.429688 1126.71875 C 927.898438 1126.617188 927.382812 1126.46875 926.871094 1126.296875 C 926.585938 1126.140625 926.308594 1125.980469 926.03125 1125.8125 C 925.894531 1125.6875 925.769531 1125.558594 925.640625 1125.429688 C 925.710938 1125.550781 925.539062 1125.429688 925.394531 1125.191406 C 925.390625 1125.1875 925.386719 1125.179688 925.382812 1125.171875 C 925.28125 1125.054688 925.1875 1124.917969 925.074219 1124.8125 C 925.195312 1124.929688 925.238281 1124.980469 925.316406 1125.066406 C 925.15625 1124.792969 924.996094 1124.519531 924.839844 1124.242188 C 924.835938 1124.238281 924.835938 1124.230469 924.832031 1124.226562 C 924.878906 1124.355469 924.914062 1124.445312 924.992188 1124.664062 C 924.933594 1124.5 924.867188 1124.339844 924.808594 1124.179688 C 924.675781 1123.910156 924.582031 1123.574219 924.761719 1124.035156 C 924.65625 1123.726562 924.5625 1123.414062 924.484375 1123.097656 C 924.375 1122.660156 924.316406 1122.214844 924.226562 1121.773438 C 924.574219 1123.457031 924.25 1121.648438 924.234375 1121.167969 C 924.21875 1120.679688 924.214844 1120.1875 924.242188 1119.699219 C 924.253906 1119.453125 924.304688 1119.195312 924.300781 1118.953125 C 924.304688 1119.074219 924.300781 1119.105469 924.296875 1119.195312 C 924.378906 1118.808594 924.476562 1118.429688 924.597656 1118.054688 Z M 927.058594 1114.644531 C 927.0625 1114.644531 927.0625 1114.640625 927.0625 1114.640625 C 927.375 1114.371094 927.96875 1114.105469 927.058594 1114.644531 Z M 924.300781 1119.195312 C 924.296875 1119.203125 924.292969 1119.214844 924.292969 1119.222656 C 924.207031 1119.628906 924.285156 1120.09375 924.300781 1119.195312 Z M 933.722656 1113.199219 C 934 1113.34375 934.152344 1113.414062 934.136719 1113.398438 C 934.03125 1113.34375 933.925781 1113.289062 933.820312 1113.238281 C 933.785156 1113.226562 933.757812 1113.210938 933.722656 1113.199219 Z M 700.5 1117.066406 C 700.433594 1117.441406 700.476562 1117.882812 700.5 1117.066406 Z M 704.851562 1125.636719 C 704.867188 1125.640625 704.882812 1125.644531 704.894531 1125.648438 C 704.449219 1125.398438 704.410156 1125.421875 704.570312 1125.515625 C 704.597656 1125.523438 704.621094 1125.539062 704.644531 1125.550781 C 704.710938 1125.582031 704.777344 1125.613281 704.851562 1125.636719 Z M 703 1112.644531 C 703.316406 1112.464844 703.375 1112.398438 703.242188 1112.464844 C 703.179688 1112.511719 703.117188 1112.546875 703.050781 1112.597656 C 703.035156 1112.609375 703.019531 1112.628906 703 1112.644531 Z M 706.832031 1111.023438 C 707.109375 1111.035156 707.265625 1111.03125 707.332031 1111.019531 C 707.171875 1111.019531 707.007812 1111.027344 706.847656 1111.023438 C 706.84375 1111.023438 706.839844 1111.023438 706.832031 1111.023438 Z M 714.195312 1123.375 C 713.90625 1123.699219 713.609375 1124.015625 713.289062 1124.308594 C 713.195312 1124.398438 713.089844 1124.484375 712.988281 1124.566406 C 712.636719 1124.792969 712.296875 1125.023438 711.929688 1125.222656 C 711.785156 1125.304688 711.636719 1125.378906 711.488281 1125.453125 C 710.792969 1125.585938 710.089844 1125.886719 709.382812 1126.054688 C 709.417969 1126.0625 709.339844 1126.085938 709.1875 1126.113281 C 709.175781 1126.117188 709.164062 1126.121094 709.152344 1126.125 C 708.988281 1126.15625 708.804688 1126.167969 708.640625 1126.207031 C 708.78125 1126.171875 708.828125 1126.167969 708.925781 1126.144531 C 708.464844 1126.160156 708.007812 1126.191406 707.546875 1126.179688 C 707.113281 1126.167969 706.683594 1126.097656 706.253906 1126.082031 C 707.753906 1126.128906 706.449219 1126.085938 705.96875 1125.96875 C 705.605469 1125.878906 705.253906 1125.753906 704.894531 1125.648438 C 704.976562 1125.695312 705.019531 1125.710938 705.128906 1125.78125 C 704.980469 1125.691406 704.8125 1125.621094 704.648438 1125.550781 C 704.617188 1125.535156 704.59375 1125.527344 704.570312 1125.515625 C 704.523438 1125.492188 704.476562 1125.46875 704.429688 1125.445312 C 704.046875 1125.25 703.675781 1125.03125 703.316406 1124.789062 C 703.195312 1124.707031 703.03125 1124.554688 702.894531 1124.488281 C 702.972656 1124.523438 702.988281 1124.539062 703.046875 1124.570312 C 703.042969 1124.566406 703.039062 1124.566406 703.035156 1124.5625 C 702.746094 1124.300781 702.472656 1124.023438 702.214844 1123.734375 C 702.074219 1123.578125 701.949219 1123.378906 701.796875 1123.242188 C 701.871094 1123.308594 701.886719 1123.328125 701.941406 1123.382812 C 701.933594 1123.371094 701.925781 1123.367188 701.921875 1123.355469 C 701.683594 1122.996094 701.464844 1122.625 701.265625 1122.242188 C 701.203125 1122.125 701.148438 1122.007812 701.089844 1121.890625 C 700.832031 1121.113281 700.625 1120.34375 700.460938 1119.542969 C 700.445312 1119.40625 700.433594 1119.265625 700.429688 1119.128906 C 700.40625 1118.738281 700.402344 1118.347656 700.417969 1117.957031 C 700.429688 1117.570312 700.503906 1117.179688 700.507812 1116.792969 C 700.503906 1116.933594 700.5 1116.96875 700.5 1117.066406 C 700.503906 1117.050781 700.5 1117.03125 700.503906 1117.015625 C 700.554688 1116.761719 700.617188 1116.507812 700.683594 1116.257812 C 700.769531 1115.925781 700.976562 1115.523438 701.042969 1115.171875 C 701.09375 1115.066406 701.144531 1114.960938 701.199219 1114.859375 C 701.378906 1114.515625 701.578125 1114.183594 701.796875 1113.859375 C 701.808594 1113.84375 701.816406 1113.828125 701.828125 1113.8125 C 701.960938 1113.671875 702.089844 1113.511719 702.203125 1113.390625 C 702.457031 1113.125 702.726562 1112.886719 703 1112.644531 C 702.917969 1112.6875 702.933594 1112.710938 702.8125 1112.761719 C 702.890625 1112.726562 702.96875 1112.65625 703.050781 1112.597656 C 703.082031 1112.566406 703.113281 1112.535156 703.148438 1112.503906 C 703.210938 1112.449219 703.199219 1112.488281 703.238281 1112.464844 C 703.273438 1112.441406 703.308594 1112.417969 703.34375 1112.394531 C 703.667969 1112.183594 704.003906 1111.988281 704.347656 1111.808594 C 704.480469 1111.738281 704.636719 1111.664062 704.792969 1111.59375 C 704.824219 1111.582031 704.855469 1111.566406 704.890625 1111.554688 C 705.339844 1111.394531 705.796875 1111.261719 706.257812 1111.148438 C 706.449219 1111.105469 706.640625 1111.0625 706.832031 1111.027344 C 706.769531 1111.023438 706.753906 1111.027344 706.679688 1111.023438 C 706.734375 1111.027344 706.792969 1111.019531 706.847656 1111.023438 C 706.863281 1111.019531 706.878906 1111.015625 706.894531 1111.011719 C 707.21875 1110.949219 707.472656 1110.992188 707.332031 1111.019531 C 708.023438 1111.007812 708.714844 1110.96875 709.414062 1111.003906 C 709.636719 1111.050781 709.859375 1111.085938 710.078125 1111.140625 C 710.492188 1111.242188 710.894531 1111.386719 711.300781 1111.507812 C 711.484375 1111.597656 711.664062 1111.683594 711.84375 1111.78125 C 712.296875 1112.03125 712.730469 1112.316406 713.152344 1112.625 C 715.136719 1114.074219 718.457031 1113.023438 719.554688 1110.945312 C 720.84375 1108.511719 719.996094 1106.089844 717.875 1104.539062 C 713.808594 1101.566406 708.1875 1100.921875 703.390625 1102.21875 C 698.160156 1103.636719 694.152344 1107.316406 692.148438 1112.304688 C 690.265625 1116.988281 690.875 1122.554688 693.179688 1126.96875 C 695.453125 1131.332031 699.898438 1134.488281 704.75 1135.246094 C 710.554688 1136.148438 716.832031 1134.527344 720.8125 1129.996094 C 722.429688 1128.15625 722.757812 1125.160156 720.8125 1123.375 C 719.042969 1121.75 715.917969 1121.410156 714.195312 1123.375 Z M 709.1875 1126.113281 C 709.25 1126.101562 709.316406 1126.074219 709.382812 1126.054688 C 709.351562 1126.054688 709.199219 1126.082031 708.925781 1126.144531 C 708.945312 1126.144531 708.960938 1126.144531 708.976562 1126.140625 C 709.050781 1126.140625 709.117188 1126.125 709.1875 1126.113281 Z M 703.046875 1124.570312 C 703.394531 1124.875 703.738281 1124.914062 703.046875 1124.570312 Z M 701.941406 1123.382812 C 702.183594 1123.726562 702.46875 1123.878906 701.941406 1123.382812 Z M 752.546875 1125.480469 C 752.695312 1125.492188 752.84375 1125.492188 752.992188 1125.5 C 752.933594 1125.484375 752.742188 1125.46875 752.433594 1125.453125 C 752.464844 1125.457031 752.496094 1125.472656 752.523438 1125.476562 C 752.53125 1125.476562 752.539062 1125.480469 752.546875 1125.480469 Z M 748.816406 1122.90625 C 748.828125 1122.925781 748.832031 1122.945312 748.84375 1122.960938 C 748.820312 1122.902344 748.785156 1122.804688 748.769531 1122.757812 C 748.777344 1122.785156 748.78125 1122.808594 748.789062 1122.835938 C 748.796875 1122.859375 748.808594 1122.882812 748.816406 1122.90625 Z M 749.417969 1123.9375 C 749.492188 1124.015625 749.574219 1124.085938 749.648438 1124.164062 C 749.617188 1124.109375 749.507812 1123.984375 749.328125 1123.796875 C 749.347656 1123.832031 749.367188 1123.871094 749.390625 1123.90625 C 749.398438 1123.914062 749.410156 1123.925781 749.417969 1123.9375 Z M 760.085938 1123.574219 C 759.632812 1123.886719 759.160156 1124.164062 758.667969 1124.414062 C 758.535156 1124.480469 758.402344 1124.539062 758.273438 1124.601562 C 758.171875 1124.640625 758.070312 1124.679688 757.972656 1124.714844 C 757.414062 1124.910156 756.847656 1125.078125 756.273438 1125.21875 C 755.953125 1125.296875 755.628906 1125.363281 755.304688 1125.425781 C 755.285156 1125.425781 755.265625 1125.429688 755.242188 1125.433594 C 754.679688 1125.476562 754.117188 1125.527344 753.550781 1125.523438 C 753.363281 1125.523438 753.179688 1125.507812 752.992188 1125.5 C 753.125 1125.527344 752.832031 1125.535156 752.558594 1125.484375 C 752.546875 1125.484375 752.535156 1125.480469 752.523438 1125.476562 C 752.367188 1125.460938 752.207031 1125.4375 752.050781 1125.429688 C 752.238281 1125.4375 752.304688 1125.445312 752.433594 1125.453125 C 751.90625 1125.347656 751.390625 1125.199219 750.878906 1125.03125 C 750.59375 1124.875 750.316406 1124.714844 750.039062 1124.542969 C 749.90625 1124.417969 749.777344 1124.289062 749.648438 1124.164062 C 749.71875 1124.285156 749.546875 1124.164062 749.402344 1123.925781 C 749.398438 1123.917969 749.394531 1123.910156 749.390625 1123.90625 C 749.289062 1123.785156 749.195312 1123.652344 749.082031 1123.542969 C 749.203125 1123.660156 749.246094 1123.710938 749.324219 1123.796875 C 749.164062 1123.523438 749.003906 1123.253906 748.847656 1122.976562 C 748.84375 1122.972656 748.84375 1122.964844 748.84375 1122.960938 C 748.890625 1123.089844 748.925781 1123.179688 749 1123.394531 C 748.941406 1123.230469 748.875 1123.070312 748.816406 1122.90625 C 748.683594 1122.640625 748.59375 1122.308594 748.765625 1122.757812 C 748.664062 1122.453125 748.570312 1122.140625 748.492188 1121.828125 C 748.382812 1121.390625 748.328125 1120.945312 748.234375 1120.503906 C 748.582031 1122.1875 748.257812 1120.382812 748.242188 1119.898438 C 748.226562 1119.410156 748.226562 1118.917969 748.25 1118.433594 C 748.261719 1118.183594 748.3125 1117.929688 748.3125 1117.683594 C 748.3125 1117.804688 748.308594 1117.835938 748.308594 1117.925781 C 748.386719 1117.542969 748.484375 1117.160156 748.605469 1116.785156 C 748.648438 1116.644531 748.703125 1116.5 748.757812 1116.355469 C 748.789062 1116.289062 748.820312 1116.21875 748.855469 1116.152344 C 749.035156 1115.800781 749.230469 1115.460938 749.441406 1115.132812 C 749.53125 1115 749.621094 1114.871094 749.710938 1114.742188 C 750.015625 1114.40625 750.3125 1114.070312 750.640625 1113.761719 C 750.777344 1113.632812 750.917969 1113.507812 751.058594 1113.386719 C 751.714844 1113.003906 752.359375 1112.621094 753.023438 1112.253906 C 753.230469 1112.175781 753.824219 1111.921875 754.097656 1111.847656 C 754.277344 1111.796875 754.460938 1111.765625 754.644531 1111.730469 C 754.4375 1111.757812 754.753906 1111.65625 755.042969 1111.632812 C 755.066406 1111.632812 755.085938 1111.632812 755.109375 1111.632812 C 755.210938 1111.613281 755.308594 1111.59375 755.410156 1111.566406 C 755.269531 1111.601562 755.226562 1111.609375 755.125 1111.632812 C 755.390625 1111.613281 755.65625 1111.601562 755.921875 1111.601562 C 756.144531 1111.605469 756.363281 1111.613281 756.582031 1111.628906 C 756.691406 1111.636719 756.691406 1111.628906 756.75 1111.632812 C 757.128906 1111.726562 757.542969 1111.867188 757.691406 1111.917969 C 757.707031 1111.921875 757.722656 1111.929688 757.738281 1111.9375 C 757.628906 1111.882812 757.566406 1111.851562 757.398438 1111.757812 C 757.539062 1111.835938 757.683594 1111.90625 757.828125 1111.972656 C 757.992188 1112.042969 758.128906 1112.113281 758.140625 1112.128906 C 758.15625 1112.136719 758.175781 1112.144531 758.195312 1112.15625 C 760.34375 1113.328125 763.394531 1112.757812 764.597656 1110.476562 C 765.753906 1108.289062 765.214844 1105.324219 762.921875 1104.074219 C 758.140625 1101.46875 752.480469 1101.835938 747.761719 1104.390625 C 742.832031 1107.054688 739.660156 1111.933594 738.980469 1117.4375 C 738.40625 1122.109375 739.671875 1127.390625 743.03125 1130.804688 C 745.84375 1133.671875 749.9375 1134.941406 753.886719 1134.886719 C 757.617188 1134.832031 761.707031 1133.792969 764.808594 1131.660156 C 766.824219 1130.273438 767.929688 1127.488281 766.488281 1125.253906 C 765.199219 1123.25 762.242188 1122.089844 760.085938 1123.574219 Z M 751.070312 1113.375 C 751.070312 1113.375 751.070312 1113.375 751.070312 1113.371094 C 751.382812 1113.101562 751.976562 1112.839844 751.070312 1113.375 Z M 757.738281 1111.933594 C 758.003906 1112.070312 758.148438 1112.140625 758.140625 1112.125 C 758.039062 1112.074219 757.933594 1112.023438 757.832031 1111.972656 C 757.800781 1111.960938 757.769531 1111.945312 757.738281 1111.933594 Z M 754.648438 1111.730469 C 754.71875 1111.71875 754.886719 1111.683594 755.125 1111.628906 C 755.121094 1111.628906 755.113281 1111.628906 755.109375 1111.628906 C 754.957031 1111.660156 754.800781 1111.699219 754.648438 1111.730469 Z M 748.308594 1117.925781 C 748.304688 1117.9375 748.300781 1117.945312 748.300781 1117.953125 C 748.21875 1118.359375 748.296875 1118.828125 748.308594 1117.925781 Z M 656.375 1127.492188 C 656.523438 1127.503906 656.671875 1127.503906 656.820312 1127.511719 C 656.757812 1127.496094 656.570312 1127.480469 656.261719 1127.464844 C 656.292969 1127.46875 656.320312 1127.484375 656.351562 1127.488281 C 656.359375 1127.488281 656.367188 1127.492188 656.375 1127.492188 Z M 663.914062 1125.585938 C 663.457031 1125.898438 662.984375 1126.175781 662.492188 1126.425781 C 662.363281 1126.492188 662.230469 1126.550781 662.097656 1126.613281 C 662 1126.652344 661.898438 1126.691406 661.800781 1126.726562 C 661.242188 1126.921875 660.675781 1127.089844 660.101562 1127.230469 C 659.78125 1127.308594 659.457031 1127.375 659.132812 1127.4375 C 659.113281 1127.441406 659.089844 1127.445312 659.070312 1127.445312 C 658.507812 1127.492188 657.945312 1127.539062 657.378906 1127.535156 C 657.191406 1127.535156 657.003906 1127.519531 656.820312 1127.511719 C 656.953125 1127.539062 656.660156 1127.546875 656.386719 1127.5 C 656.375 1127.496094 656.363281 1127.492188 656.351562 1127.488281 C 656.195312 1127.476562 656.035156 1127.449219 655.878906 1127.441406 C 656.066406 1127.449219 656.132812 1127.457031 656.261719 1127.464844 C 655.734375 1127.359375 655.21875 1127.210938 654.707031 1127.042969 C 654.421875 1126.886719 654.144531 1126.726562 653.867188 1126.554688 C 653.730469 1126.433594 653.605469 1126.300781 653.476562 1126.171875 C 653.546875 1126.296875 653.371094 1126.175781 653.226562 1125.9375 C 653.222656 1125.929688 653.222656 1125.921875 653.21875 1125.917969 C 653.113281 1125.796875 653.023438 1125.664062 652.910156 1125.554688 C 653.03125 1125.671875 653.074219 1125.726562 653.152344 1125.808594 C 652.992188 1125.535156 652.828125 1125.265625 652.675781 1124.988281 C 652.671875 1124.980469 652.671875 1124.976562 652.667969 1124.96875 C 652.714844 1125.101562 652.75 1125.1875 652.828125 1125.40625 C 652.769531 1125.242188 652.703125 1125.082031 652.644531 1124.921875 C 652.511719 1124.652344 652.417969 1124.320312 652.59375 1124.777344 C 652.492188 1124.46875 652.398438 1124.15625 652.320312 1123.839844 C 652.210938 1123.402344 652.152344 1122.957031 652.0625 1122.515625 C 652.40625 1124.199219 652.085938 1122.394531 652.070312 1121.910156 C 652.054688 1121.421875 652.050781 1120.933594 652.074219 1120.445312 C 652.089844 1120.199219 652.136719 1119.941406 652.136719 1119.695312 C 652.136719 1119.816406 652.132812 1119.847656 652.132812 1119.9375 C 652.214844 1119.554688 652.3125 1119.171875 652.429688 1118.796875 C 652.476562 1118.65625 652.527344 1118.511719 652.582031 1118.367188 C 652.617188 1118.300781 652.648438 1118.230469 652.683594 1118.164062 C 652.863281 1117.816406 653.058594 1117.476562 653.269531 1117.148438 C 653.355469 1117.011719 653.449219 1116.882812 653.539062 1116.753906 C 653.84375 1116.417969 654.140625 1116.082031 654.46875 1115.773438 C 654.601562 1115.644531 654.742188 1115.519531 654.882812 1115.398438 C 655.539062 1115.015625 656.183594 1114.632812 656.847656 1114.265625 C 657.054688 1114.1875 657.648438 1113.933594 657.925781 1113.859375 C 658.105469 1113.808594 658.289062 1113.777344 658.472656 1113.742188 C 658.261719 1113.769531 658.582031 1113.667969 658.871094 1113.644531 C 658.890625 1113.644531 658.914062 1113.644531 658.9375 1113.644531 C 659.035156 1113.621094 659.136719 1113.601562 659.234375 1113.578125 C 659.09375 1113.613281 659.050781 1113.617188 658.949219 1113.640625 C 659.214844 1113.625 659.484375 1113.613281 659.75 1113.613281 C 659.96875 1113.617188 660.191406 1113.625 660.410156 1113.640625 C 660.519531 1113.648438 660.519531 1113.640625 660.578125 1113.640625 C 660.957031 1113.738281 661.371094 1113.878906 661.519531 1113.929688 C 661.535156 1113.933594 661.546875 1113.941406 661.5625 1113.945312 C 661.457031 1113.890625 661.390625 1113.859375 661.222656 1113.769531 C 661.367188 1113.847656 661.511719 1113.917969 661.65625 1113.984375 C 661.816406 1114.054688 661.957031 1114.125 661.96875 1114.140625 C 661.988281 1114.148438 662.003906 1114.15625 662.023438 1114.167969 C 664.171875 1115.339844 667.222656 1114.769531 668.425781 1112.488281 C 669.582031 1110.300781 669.042969 1107.332031 666.746094 1106.082031 C 661.964844 1103.480469 656.308594 1103.847656 651.589844 1106.398438 C 646.660156 1109.066406 643.484375 1113.945312 642.808594 1119.449219 C 642.230469 1124.121094 643.5 1129.398438 646.855469 1132.816406 C 649.671875 1135.679688 653.765625 1136.953125 657.710938 1136.898438 C 661.445312 1136.84375 665.535156 1135.804688 668.636719 1133.671875 C 670.648438 1132.285156 671.757812 1129.5 670.316406 1127.265625 C 669.027344 1125.261719 666.070312 1124.101562 663.914062 1125.585938 Z M 654.894531 1115.386719 C 654.898438 1115.386719 654.898438 1115.382812 654.898438 1115.382812 C 655.210938 1115.113281 655.804688 1114.851562 654.894531 1115.386719 Z M 652.644531 1124.917969 C 652.652344 1124.9375 652.660156 1124.953125 652.667969 1124.96875 C 652.644531 1124.914062 652.613281 1124.820312 652.597656 1124.777344 C 652.601562 1124.800781 652.609375 1124.824219 652.617188 1124.847656 C 652.625 1124.871094 652.636719 1124.894531 652.644531 1124.917969 Z M 652.136719 1119.9375 C 652.132812 1119.945312 652.128906 1119.957031 652.128906 1119.964844 C 652.042969 1120.371094 652.121094 1120.839844 652.136719 1119.9375 Z M 661.5625 1113.945312 C 661.832031 1114.082031 661.980469 1114.152344 661.96875 1114.140625 C 661.867188 1114.085938 661.761719 1114.035156 661.65625 1113.984375 C 661.625 1113.96875 661.59375 1113.957031 661.5625 1113.945312 Z M 658.472656 1113.742188 C 658.546875 1113.730469 658.714844 1113.695312 658.949219 1113.640625 C 658.945312 1113.640625 658.941406 1113.640625 658.9375 1113.640625 C 658.78125 1113.671875 658.628906 1113.710938 658.472656 1113.742188 Z M 653.246094 1125.949219 C 653.316406 1126.027344 653.398438 1126.097656 653.476562 1126.171875 C 653.441406 1126.117188 653.332031 1125.996094 653.15625 1125.808594 C 653.175781 1125.84375 653.195312 1125.878906 653.21875 1125.917969 C 653.226562 1125.925781 653.234375 1125.9375 653.246094 1125.949219 Z M 1035.535156 688.375 C 1037.832031 687.191406 1038.738281 684.371094 1037.558594 682.074219 C 1036.378906 679.773438 1033.546875 678.859375 1031.253906 680.050781 C 917.648438 738.445312 814.472656 658.460938 813.441406 657.644531 C 811.410156 656.027344 808.472656 656.386719 806.863281 658.40625 C 805.261719 660.429688 805.597656 663.375 807.628906 664.984375 C 808.414062 665.605469 866.492188 710.730469 944.320312 710.730469 C 972.707031 710.730469 1003.722656 704.726562 1035.535156 688.375 Z M 267.863281 1037.988281 C 265.300781 1037.609375 262.921875 1039.324219 262.515625 1041.875 C 262.105469 1044.421875 263.84375 1046.820312 266.390625 1047.234375 C 266.597656 1047.269531 287.328125 1050.816406 295.277344 1067.242188 C 296.085938 1068.914062 297.757812 1069.882812 299.492188 1069.882812 C 300.179688 1069.882812 300.871094 1069.730469 301.53125 1069.414062 C 303.859375 1068.292969 304.832031 1065.488281 303.707031 1063.160156 C 293.597656 1042.273438 268.910156 1038.152344 267.863281 1037.988281 Z M 591.011719 557.125 L 581.019531 550.816406 C 578.898438 549.464844 576.097656 550.042969 574.671875 552.109375 L 507.507812 649.191406 C 506.039062 651.316406 506.566406 654.230469 508.695312 655.707031 C 509.507812 656.265625 510.433594 656.535156 511.355469 656.535156 C 512.839844 656.535156 514.300781 655.828125 515.207031 654.515625 L 579.816406 561.128906 L 587.621094 566.054688 C 588.777344 566.792969 590.203125 566.972656 591.503906 566.570312 C 591.675781 566.5 609.894531 561.238281 624.949219 587.046875 C 626.253906 589.28125 629.128906 590.023438 631.351562 588.726562 C 633.585938 587.429688 634.339844 584.558594 633.039062 582.328125 C 617.347656 555.441406 597.628906 556.015625 591.011719 557.125 Z M 814.777344 153.207031 C 776.703125 201.492188 744.425781 254.214844 719.09375 310.261719 C 711.878906 326.226562 705.210938 342.4375 699.09375 358.855469 C 696.984375 364.507812 706.03125 366.945312 708.121094 361.34375 C 729.144531 304.933594 757.027344 251.121094 790.929688 201.375 C 800.601562 187.179688 810.761719 173.316406 821.398438 159.828125 C 825.089844 155.144531 818.507812 148.476562 814.777344 153.207031 Z M 692.28125 346.925781 C 686.460938 315.746094 688.1875 283.542969 697.066406 253.117188 C 698.757812 247.320312 689.726562 244.84375 688.039062 250.625 C 678.675781 282.714844 677.121094 316.570312 683.253906 349.414062 C 684.359375 355.328125 693.382812 352.820312 692.28125 346.925781 Z M 1213.945312 421.199219 C 1223.761719 406.054688 1233.097656 390.523438 1239.4375 373.558594 C 1245.742188 356.6875 1248.679688 338.832031 1251.109375 321.058594 C 1251.453125 318.535156 1250.496094 316.0625 1247.839844 315.300781 C 1245.660156 314.675781 1242.421875 316.066406 1242.078125 318.570312 C 1239.695312 336.027344 1236.828125 353.566406 1230.742188 370.167969 C 1224.695312 386.679688 1215.382812 401.78125 1205.863281 416.476562 C 1202.578125 421.546875 1210.679688 426.242188 1213.945312 421.199219 Z M 1032.042969 92.632812 C 1034.269531 93.71875 1036.417969 94.957031 1038.460938 96.363281 C 1038.984375 96.71875 1039.5 97.089844 1040.011719 97.46875 C 1040.082031 97.519531 1040.40625 97.773438 1040.5 97.84375 C 1040.589844 97.917969 1040.671875 97.984375 1040.699219 98.007812 C 1041.6875 98.804688 1042.640625 99.640625 1043.5625 100.507812 C 1045.328125 102.171875 1046.945312 103.96875 1048.46875 105.851562 C 1048.511719 105.90625 1048.492188 105.878906 1048.523438 105.917969 C 1048.554688 105.957031 1048.535156 105.933594 1048.582031 106 C 1048.753906 106.230469 1048.925781 106.460938 1049.09375 106.695312 C 1049.464844 107.210938 1049.824219 107.730469 1050.175781 108.257812 C 1050.878906 109.3125 1051.535156 110.398438 1052.160156 111.5 C 1053.359375 113.636719 1056.460938 114.535156 1058.5625 113.179688 C 1060.722656 111.789062 1061.527344 109.058594 1060.242188 106.777344 C 1054.886719 97.261719 1046.589844 89.339844 1036.769531 84.546875 C 1034.570312 83.472656 1031.605469 83.875 1030.363281 86.226562 C 1029.253906 88.332031 1029.695312 91.484375 1032.042969 92.632812 Z M 1090.667969 132.128906 C 1094.839844 129.421875 1098.03125 128.054688 1102.910156 126.957031 C 1103.917969 126.726562 1104.9375 126.539062 1105.960938 126.390625 C 1106.15625 126.378906 1107.117188 126.269531 1107.238281 126.257812 C 1107.863281 126.203125 1108.488281 126.164062 1109.113281 126.140625 C 1111.46875 126.046875 1113.816406 126.171875 1116.152344 126.480469 C 1118.589844 126.800781 1120.933594 124.097656 1120.832031 121.800781 C 1120.707031 118.988281 1118.761719 117.460938 1116.152344 117.117188 C 1105.71875 115.742188 1094.761719 118.324219 1085.941406 124.046875 C 1083.890625 125.375 1082.851562 128.257812 1084.261719 130.449219 C 1085.585938 132.5 1088.472656 133.554688 1090.667969 132.128906 Z M 1044.53125 137.753906 C 1043.800781 137.328125 1043.015625 137.117188 1042.171875 137.113281 C 1038.941406 136.699219 1035.710938 136.28125 1032.480469 135.867188 C 1031.378906 135.726562 1029.917969 136.492188 1029.171875 137.238281 C 1028.359375 138.050781 1027.75 139.382812 1027.800781 140.546875 C 1027.855469 141.757812 1028.25 143.011719 1029.171875 143.859375 C 1029.488281 144.101562 1029.804688 144.34375 1030.117188 144.589844 C 1030.847656 145.011719 1031.636719 145.226562 1032.480469 145.226562 C 1035.710938 145.644531 1038.941406 146.058594 1042.167969 146.472656 C 1043.269531 146.617188 1044.734375 145.847656 1045.480469 145.101562 C 1046.292969 144.292969 1046.902344 142.960938 1046.851562 141.792969 C 1046.796875 140.582031 1046.398438 139.328125 1045.480469 138.484375 C 1045.164062 138.242188 1044.847656 137.996094 1044.53125 137.753906 Z M 940.964844 517.277344 C 951.398438 473.757812 960.292969 429.972656 967.488281 385.796875 C 968.445312 379.902344 959.429688 377.367188 958.460938 383.308594 C 951.265625 427.484375 942.371094 471.269531 931.9375 514.789062 C 930.535156 520.644531 939.558594 523.144531 940.964844 517.277344 Z M 1086.835938 384.480469 C 1087.769531 386.828125 1089.964844 388.472656 1092.59375 387.75 C 1094.824219 387.136719 1096.800781 384.355469 1095.863281 381.992188 C 1088.628906 363.820312 1072.726562 349.230469 1052.519531 348.351562 C 1049.992188 348.242188 1047.839844 350.582031 1047.839844 353.03125 C 1047.839844 355.660156 1049.984375 357.601562 1052.519531 357.710938 C 1059.613281 358.019531 1066.859375 360.804688 1072.722656 365.398438 C 1078.914062 370.257812 1083.867188 377.023438 1086.835938 384.480469 Z M 861.40625 460.398438 C 870.34375 462.121094 879.742188 452.382812 882.394531 438.640625 C 885.042969 424.902344 879.945312 412.363281 871.007812 410.636719 C 862.066406 408.914062 852.671875 418.65625 850.019531 432.394531 C 847.367188 446.136719 852.464844 458.671875 861.40625 460.398438 Z M 1032.875 441.871094 C 1023.933594 440.144531 1014.539062 449.886719 1011.886719 463.625 C 1009.234375 477.367188 1014.332031 489.902344 1023.273438 491.628906 C 1032.210938 493.351562 1041.609375 483.613281 1044.257812 469.871094 C 1046.910156 456.132812 1041.8125 443.59375 1032.875 441.871094 Z M 691.082031 459.742188 C 690.871094 462.320312 692.785156 464.582031 695.359375 464.800781 C 697.976562 465.03125 700.203125 463.101562 700.414062 460.523438 C 700.839844 455.414062 702.507812 453.660156 702.714844 453.515625 C 703.226562 453.632812 705.597656 455.582031 707.046875 462.335938 C 707.511719 464.5 709.425781 466.035156 711.621094 466.035156 C 711.683594 466.035156 711.75 466.035156 711.8125 466.035156 C 714.09375 465.9375 715.96875 464.21875 716.265625 461.960938 C 720.128906 432.363281 700.378906 404.808594 699.535156 403.652344 C 698.019531 401.554688 695.09375 401.101562 693 402.613281 C 690.910156 404.132812 690.445312 407.058594 691.960938 409.152344 C 692.109375 409.351562 703.617188 425.472656 706.664062 445.035156 C 704.753906 444.179688 703.082031 444.128906 702.203125 444.175781 C 697.429688 444.480469 692.003906 448.734375 691.082031 459.742188 Z M 1156.53125 523.578125 C 1158.792969 524.667969 1161.492188 523.777344 1162.675781 521.578125 C 1167.113281 513.34375 1171.050781 510.808594 1172.613281 510.289062 C 1172.671875 511.753906 1171.917969 515.554688 1167.175781 521.242188 C 1165.515625 523.230469 1165.792969 526.179688 1167.773438 527.835938 C 1168.648438 528.570312 1169.710938 528.921875 1170.769531 528.921875 C 1172.113281 528.921875 1173.441406 528.347656 1174.367188 527.238281 C 1180.972656 519.304688 1183.480469 511.332031 1181.058594 505.90625 C 1179.921875 503.347656 1177.757812 501.597656 1175.117188 501.023438 C 1186.230469 487.835938 1197.816406 483.53125 1197.972656 483.472656 C 1200.40625 482.613281 1201.6875 479.949219 1200.832031 477.515625 C 1199.972656 475.078125 1197.304688 473.785156 1194.863281 474.644531 C 1193.792969 475.019531 1168.328125 484.257812 1154.246094 517.535156 C 1153.269531 519.835938 1154.277344 522.496094 1156.53125 523.578125 Z M 1156.53125 523.578125 " fill-opacity="1" fill-rule="nonzero"/><g fill="#000000" fill-opacity="1"><g transform="translate(947.602753, 85.920509)"><g><path d="M 0.734375 -0.828125 C 0.734375 -1.097656 0.820312 -1.316406 1 -1.484375 C 1.1875 -1.648438 1.414062 -1.734375 1.6875 -1.734375 C 1.96875 -1.734375 2.195312 -1.648438 2.375 -1.484375 C 2.5625 -1.316406 2.65625 -1.097656 2.65625 -0.828125 C 2.65625 -0.566406 2.5625 -0.351562 2.375 -0.1875 C 2.195312 -0.0195312 1.96875 0.0625 1.6875 0.0625 C 1.414062 0.0625 1.1875 -0.0195312 1 -0.1875 C 0.820312 -0.351562 0.734375 -0.566406 0.734375 -0.828125 Z M 0.734375 -0.828125 "/></g></g></g></svg>