<svg xmlns="http://www.w3.org/2000/svg" xmlns:xlink="http://www.w3.org/1999/xlink" width="1130" zoomAndPan="magnify" viewBox="0 0 847.5 992.999992" height="1324" preserveAspectRatio="xMidYMid meet" version="1.0"><defs><g/><clipPath id="b7761d21c5"><path d="M 2 3 L 841 3 L 841 992.707031 L 2 992.707031 Z M 2 3 " clip-rule="nonzero"/></clipPath></defs><g clip-path="url(#b7761d21c5)"><path fill="#d9d9d9" d="M 716.425781 441.980469 C 716.425781 517.929688 687.484375 590.054688 634.941406 645.035156 C 627.492188 652.816406 620.304688 660.132812 613.515625 667.054688 C 576.925781 704.171875 553.125 728.234375 543.105469 774.253906 L 300.824219 774.253906 C 292.78125 727.246094 270.429688 705.6875 234.832031 671.273438 C 227.644531 664.351562 220.128906 657.035156 212.21875 649.058594 C 154.597656 590.84375 124.335938 513.710938 127.105469 431.828125 C 132.316406 277.429688 262.257812 149.730469 416.789062 147.222656 C 497.085938 146.035156 571.652344 175.96875 628.414062 231.808594 C 685.175781 287.714844 716.425781 362.277344 716.425781 441.980469 Z M 345.785156 894.765625 L 305.570312 894.765625 C 315.328125 950.011719 363.652344 992.140625 421.667969 992.140625 C 479.683594 992.140625 528.007812 950.011719 537.765625 894.765625 Z M 268.125 103.050781 C 271.222656 110.632812 278.539062 115.183594 286.253906 115.183594 C 288.757812 115.183594 291.332031 114.722656 293.769531 113.667969 C 303.789062 109.511719 308.535156 98.042969 304.382812 88.019531 L 274.386719 15.371094 C 270.234375 5.347656 258.695312 0.667969 248.742188 4.753906 C 238.71875 8.910156 233.972656 20.378906 238.128906 30.402344 Z M 549.5 113.667969 C 551.9375 114.65625 554.507812 115.183594 557.015625 115.183594 C 564.726562 115.183594 572.046875 110.632812 575.144531 103.050781 L 605.207031 30.402344 C 609.359375 20.378906 604.613281 8.84375 594.59375 4.753906 C 584.570312 0.601562 573.035156 5.347656 568.949219 15.371094 L 538.886719 88.019531 C 534.730469 98.042969 539.476562 109.511719 549.5 113.667969 Z M 748.464844 306.566406 C 750.972656 306.566406 753.542969 306.105469 755.980469 305.050781 L 828.566406 274.988281 C 838.585938 270.835938 843.335938 259.296875 839.179688 249.34375 C 835.027344 239.324219 823.492188 234.578125 813.535156 238.730469 L 740.949219 268.792969 C 730.929688 272.945312 726.183594 284.484375 730.335938 294.4375 C 733.433594 302.019531 740.753906 306.566406 748.464844 306.566406 Z M 828.566406 569.550781 L 755.980469 539.488281 C 746.027344 535.332031 734.488281 540.082031 730.335938 550.101562 C 726.183594 560.121094 730.929688 571.660156 740.949219 575.746094 L 813.535156 605.808594 C 815.976562 606.796875 818.546875 607.324219 821.050781 607.324219 C 828.765625 607.324219 836.082031 602.777344 839.179688 595.195312 C 843.335938 585.242188 838.585938 573.703125 828.566406 569.550781 Z M 87.351562 539.488281 L 14.769531 569.550781 C 4.746094 573.703125 0 585.242188 4.152344 595.195312 C 7.25 602.777344 14.636719 607.324219 22.285156 607.324219 C 24.789062 607.324219 27.359375 606.863281 29.800781 605.808594 L 102.382812 575.746094 C 112.40625 571.59375 117.152344 560.054688 113 550.101562 C 108.910156 540.082031 97.375 535.332031 87.351562 539.488281 Z M 102.382812 268.792969 L 29.800781 238.730469 C 19.777344 234.578125 8.242188 239.324219 4.152344 249.34375 C 0 259.363281 4.746094 270.902344 14.769531 274.988281 L 87.351562 305.050781 C 89.792969 306.039062 92.363281 306.566406 94.867188 306.566406 C 102.582031 306.566406 109.898438 302.019531 113 294.4375 C 117.21875 284.417969 112.40625 272.945312 102.382812 268.792969 Z M 343.082031 814.402344 L 303.789062 814.402344 L 303.789062 854.617188 L 539.542969 854.617188 L 539.542969 814.402344 Z M 343.082031 814.402344 " fill-opacity="1" fill-rule="nonzero"/></g><g fill="#000000" fill-opacity="1"><g transform="translate(474.466282, 507.170197)"><g><path d="M 0.734375 -0.828125 C 0.734375 -1.097656 0.820312 -1.316406 1 -1.484375 C 1.1875 -1.648438 1.414062 -1.734375 1.6875 -1.734375 C 1.96875 -1.734375 2.195312 -1.648438 2.375 -1.484375 C 2.5625 -1.316406 2.65625 -1.097656 2.65625 -0.828125 C 2.65625 -0.566406 2.5625 -0.351562 2.375 -0.1875 C 2.195312 -0.0195312 1.96875 0.0625 1.6875 0.0625 C 1.414062 0.0625 1.1875 -0.0195312 1 -0.1875 C 0.820312 -0.351562 0.734375 -0.566406 0.734375 -0.828125 Z M 0.734375 -0.828125 "/></g></g></g></svg>