<svg xmlns="http://www.w3.org/2000/svg" xmlns:xlink="http://www.w3.org/1999/xlink" width="2083" zoomAndPan="magnify" viewBox="0 0 1562.25 1511.999933" height="2016" preserveAspectRatio="xMidYMid meet" version="1.0"><defs><g/></defs><path fill="#d9d9d9" d="M 1017.582031 2.308594 C 1009.4375 2.265625 1001.300781 2.425781 993.164062 2.78125 C 985.027344 3.140625 976.902344 3.699219 968.792969 4.457031 C 960.683594 5.214844 952.597656 6.171875 944.535156 7.328125 C 936.472656 8.480469 928.445312 9.832031 920.449219 11.382812 C 912.453125 12.933594 904.5 14.679688 896.589844 16.617188 C 888.679688 18.558594 880.824219 20.691406 873.019531 23.019531 C 865.214844 25.347656 857.472656 27.863281 849.789062 30.570312 C 842.109375 33.277344 834.496094 36.171875 826.957031 39.253906 C 819.417969 42.335938 811.960938 45.601562 804.582031 49.046875 C 797.203125 52.496094 789.914062 56.121094 782.714844 59.929688 C 775.511719 63.734375 768.410156 67.714844 761.40625 71.871094 C 754.402344 76.027344 747.503906 80.351562 740.710938 84.84375 C 733.917969 89.339844 727.242188 93.996094 720.675781 98.820312 C 714.113281 103.644531 707.671875 108.625 701.355469 113.761719 C 695.035156 118.902344 688.847656 124.191406 682.789062 129.636719 C 676.730469 135.078125 670.808594 140.667969 665.027344 146.402344 C 659.683594 151.839844 654.46875 157.394531 649.378906 163.070312 C 644.289062 168.742188 639.332031 174.53125 634.503906 180.429688 C 629.675781 186.328125 624.988281 192.335938 620.433594 198.449219 C 615.878906 204.558594 611.464844 210.773438 607.195312 217.085938 C 602.921875 223.398438 598.796875 229.804688 594.8125 236.304688 C 590.832031 242.804688 587 249.394531 583.320312 256.066406 C 579.636719 262.742188 576.109375 269.496094 572.734375 276.328125 C 569.359375 283.164062 566.140625 290.070312 563.078125 297.050781 C 560.015625 304.03125 557.117188 311.078125 554.375 318.191406 C 551.632812 325.304688 549.054688 332.476562 546.636719 339.703125 C 544.222656 346.933594 541.972656 354.214844 539.886719 361.546875 C 537.800781 368.878906 535.882812 376.253906 534.132812 383.671875 C 532.382812 391.089844 530.800781 398.542969 529.386719 406.035156 C 527.976562 413.527344 526.734375 421.042969 525.664062 428.589844 C 524.59375 436.136719 523.695312 443.707031 522.96875 451.292969 C 522.242188 458.878906 521.6875 466.480469 521.304688 474.09375 C 520.925781 481.707031 520.714844 489.324219 520.679688 496.945312 C 520.644531 504.570312 520.78125 512.1875 521.089844 519.804688 C 521.402344 527.421875 521.882812 535.027344 522.539062 542.621094 C 523.195312 550.214844 524.023438 557.789062 525.019531 565.347656 C 526.019531 572.902344 527.191406 580.433594 528.53125 587.9375 C 529.875 595.441406 531.386719 602.910156 533.066406 610.34375 C 534.746094 617.777344 536.59375 625.171875 538.609375 632.523438 C 540.628906 639.875 542.808594 647.175781 545.15625 654.425781 C 547.503906 661.679688 550.015625 668.875 552.691406 676.011719 C 555.363281 683.148438 558.199219 690.222656 561.195312 697.230469 C 564.191406 704.242188 567.34375 711.179688 570.65625 718.042969 C 573.964844 724.910156 577.429688 731.695312 581.050781 738.40625 C 584.667969 745.113281 588.4375 751.738281 592.359375 758.273438 C 596.277344 764.8125 600.34375 771.257812 604.554688 777.609375 C 608.769531 783.960938 613.121094 790.214844 617.617188 796.371094 C 622.117188 802.527344 626.75 808.578125 631.519531 814.519531 L 532.101562 913.890625 C 529.746094 912.503906 527.367188 911.167969 524.960938 909.878906 C 522.550781 908.589844 520.121094 907.351562 517.660156 906.160156 C 515.203125 904.972656 512.722656 903.835938 510.214844 902.746094 C 507.710938 901.660156 505.183594 900.625 502.636719 899.640625 C 500.089844 898.660156 497.523438 897.726562 494.9375 896.851562 C 492.351562 895.972656 489.75 895.148438 487.128906 894.378906 C 484.507812 893.605469 481.875 892.890625 479.226562 892.226562 C 476.574219 891.566406 473.914062 890.957031 471.238281 890.402344 C 468.566406 889.851562 465.882812 889.351562 463.1875 888.910156 C 460.492188 888.464844 457.789062 888.078125 455.078125 887.746094 C 452.367188 887.414062 449.652344 887.136719 446.929688 886.917969 C 444.207031 886.695312 441.484375 886.53125 438.753906 886.421875 C 436.027344 886.316406 433.296875 886.261719 430.566406 886.265625 C 427.835938 886.269531 425.105469 886.328125 422.378906 886.445312 C 419.648438 886.5625 416.925781 886.734375 414.203125 886.960938 C 411.480469 887.1875 408.765625 887.472656 406.054688 887.8125 C 403.347656 888.148438 400.644531 888.542969 397.953125 888.996094 C 395.257812 889.445312 392.574219 889.949219 389.902344 890.511719 C 387.230469 891.070312 384.570312 891.6875 381.921875 892.355469 C 379.273438 893.023438 376.640625 893.75 374.023438 894.527344 C 371.40625 895.304688 368.804688 896.136719 366.222656 897.019531 C 363.640625 897.90625 361.074219 898.84375 358.53125 899.832031 C 355.984375 900.820312 353.460938 901.863281 350.960938 902.957031 C 348.457031 904.050781 345.976562 905.195312 343.523438 906.390625 C 341.066406 907.585938 338.636719 908.832031 336.234375 910.125 C 333.828125 911.421875 331.453125 912.765625 329.105469 914.160156 C 326.753906 915.550781 324.4375 916.992188 322.148438 918.480469 C 319.855469 919.96875 317.597656 921.503906 315.371094 923.082031 C 313.144531 924.664062 310.953125 926.289062 308.792969 927.960938 C 306.632812 929.632812 304.507812 931.347656 302.417969 933.105469 C 300.328125 934.863281 298.277344 936.664062 296.261719 938.507812 C 294.246094 940.347656 292.269531 942.230469 290.332031 944.15625 L 78.824219 1155.710938 C 76.546875 1158.035156 74.324219 1160.410156 72.160156 1162.84375 C 69.996094 1165.273438 67.890625 1167.757812 65.847656 1170.289062 C 63.804688 1172.824219 61.824219 1175.402344 59.902344 1178.035156 C 57.984375 1180.664062 56.132812 1183.335938 54.34375 1186.054688 C 52.554688 1188.777344 50.832031 1191.535156 49.175781 1194.339844 C 47.519531 1197.140625 45.933594 1199.984375 44.417969 1202.863281 C 42.898438 1205.742188 41.453125 1208.65625 40.078125 1211.609375 C 38.699219 1214.558594 37.398438 1217.539062 36.167969 1220.550781 C 34.933594 1223.566406 33.777344 1226.605469 32.695312 1229.675781 C 31.609375 1232.746094 30.601562 1235.839844 29.667969 1238.957031 C 28.734375 1242.074219 27.875 1245.214844 27.09375 1248.375 C 26.3125 1251.535156 25.609375 1254.710938 24.980469 1257.90625 C 24.351562 1261.097656 23.804688 1264.308594 23.332031 1267.527344 C 22.859375 1270.746094 22.464844 1273.976562 22.152344 1277.21875 C 21.835938 1280.457031 21.597656 1283.703125 21.441406 1286.953125 C 21.285156 1290.207031 21.203125 1293.457031 21.203125 1296.714844 C 21.203125 1299.96875 21.285156 1303.222656 21.441406 1306.472656 C 21.597656 1309.722656 21.835938 1312.96875 22.152344 1316.210938 C 22.464844 1319.449219 22.859375 1322.679688 23.332031 1325.898438 C 23.804688 1329.121094 24.351562 1332.328125 24.980469 1335.523438 C 25.609375 1338.714844 26.3125 1341.894531 27.09375 1345.054688 C 27.875 1348.210938 28.734375 1351.351562 29.667969 1354.46875 C 30.601562 1357.589844 31.609375 1360.683594 32.695312 1363.75 C 33.777344 1366.820312 34.933594 1369.863281 36.167969 1372.875 C 37.398438 1375.886719 38.699219 1378.871094 40.078125 1381.820312 C 41.453125 1384.769531 42.898438 1387.683594 44.417969 1390.5625 C 45.933594 1393.445312 47.519531 1396.285156 49.175781 1399.085938 C 50.832031 1401.890625 52.554688 1404.652344 54.34375 1407.371094 C 56.132812 1410.089844 57.984375 1412.765625 59.902344 1415.394531 C 61.824219 1418.023438 63.804688 1420.605469 65.847656 1423.136719 C 67.890625 1425.671875 69.996094 1428.152344 72.160156 1430.585938 C 74.324219 1433.015625 76.546875 1435.394531 78.824219 1437.71875 C 81.152344 1439.996094 83.527344 1442.214844 85.960938 1444.375 C 88.394531 1446.539062 90.875 1448.640625 93.410156 1450.683594 C 95.945312 1452.726562 98.527344 1454.703125 101.15625 1456.621094 C 103.785156 1458.539062 106.460938 1460.390625 109.179688 1462.175781 C 111.902344 1463.964844 114.664062 1465.683594 117.464844 1467.335938 C 120.269531 1468.992188 123.109375 1470.574219 125.992188 1472.089844 C 128.871094 1473.605469 131.785156 1475.050781 134.734375 1476.425781 C 137.683594 1477.800781 140.667969 1479.101562 143.679688 1480.332031 C 146.691406 1481.5625 149.734375 1482.71875 152.800781 1483.800781 C 155.871094 1484.886719 158.964844 1485.894531 162.082031 1486.824219 C 165.199219 1487.757812 168.339844 1488.613281 171.5 1489.394531 C 174.65625 1490.175781 177.835938 1490.878906 181.027344 1491.507812 C 184.222656 1492.132812 187.429688 1492.683594 190.648438 1493.152344 C 193.867188 1493.625 197.097656 1494.019531 200.335938 1494.332031 C 203.578125 1494.648438 206.820312 1494.882812 210.070312 1495.042969 C 213.324219 1495.199219 216.574219 1495.277344 219.828125 1495.277344 C 223.082031 1495.277344 226.335938 1495.199219 229.585938 1495.042969 C 232.835938 1494.882812 236.082031 1494.648438 239.320312 1494.332031 C 242.558594 1494.019531 245.789062 1493.625 249.011719 1493.152344 C 252.230469 1492.683594 255.4375 1492.132812 258.628906 1491.507812 C 261.824219 1490.878906 265 1490.175781 268.160156 1489.394531 C 271.320312 1488.613281 274.457031 1487.757812 277.574219 1486.824219 C 280.691406 1485.894531 283.785156 1484.886719 286.855469 1483.800781 C 289.925781 1482.71875 292.964844 1481.5625 295.980469 1480.332031 C 298.992188 1479.101562 301.972656 1477.800781 304.921875 1476.425781 C 307.875 1475.050781 310.789062 1473.605469 313.667969 1472.089844 C 316.546875 1470.574219 319.390625 1468.992188 322.191406 1467.335938 C 324.996094 1465.683594 327.757812 1463.964844 330.476562 1462.175781 C 333.195312 1460.390625 335.871094 1458.539062 338.5 1456.621094 C 341.132812 1454.703125 343.714844 1452.726562 346.246094 1450.683594 C 348.78125 1448.640625 351.265625 1446.539062 353.695312 1444.375 C 356.128906 1442.214844 358.507812 1439.996094 360.832031 1437.71875 L 572.386719 1226.210938 C 574.3125 1224.273438 576.195312 1222.296875 578.039062 1220.28125 C 579.882812 1218.265625 581.683594 1216.210938 583.441406 1214.121094 C 585.199219 1212.03125 586.914062 1209.90625 588.585938 1207.746094 C 590.257812 1205.585938 591.886719 1203.394531 593.464844 1201.167969 C 595.046875 1198.941406 596.582031 1196.679688 598.070312 1194.390625 C 599.5625 1192.101562 601 1189.78125 602.394531 1187.433594 C 603.789062 1185.082031 605.132812 1182.707031 606.429688 1180.300781 C 607.722656 1177.894531 608.96875 1175.464844 610.164062 1173.011719 C 611.363281 1170.554688 612.507812 1168.074219 613.601562 1165.574219 C 614.695312 1163.070312 615.738281 1160.546875 616.726562 1158 C 617.71875 1155.453125 618.65625 1152.890625 619.539062 1150.304688 C 620.425781 1147.722656 621.253906 1145.121094 622.035156 1142.5 C 622.8125 1139.882812 623.535156 1137.25 624.207031 1134.601562 C 624.875 1131.953125 625.492188 1129.292969 626.050781 1126.621094 C 626.613281 1123.945312 627.117188 1121.261719 627.566406 1118.570312 C 628.015625 1115.875 628.410156 1113.171875 628.75 1110.460938 C 629.089844 1107.753906 629.375 1105.035156 629.601562 1102.316406 C 629.828125 1099.59375 630 1096.867188 630.117188 1094.136719 C 630.230469 1091.410156 630.292969 1088.679688 630.296875 1085.949219 C 630.296875 1083.214844 630.246094 1080.484375 630.136719 1077.757812 C 630.027344 1075.027344 629.863281 1072.300781 629.644531 1069.578125 C 629.421875 1066.855469 629.144531 1064.140625 628.8125 1061.429688 C 628.480469 1058.71875 628.09375 1056.015625 627.648438 1053.320312 C 627.207031 1050.625 626.707031 1047.9375 626.152344 1045.265625 C 625.601562 1042.589844 624.992188 1039.925781 624.328125 1037.277344 C 623.664062 1034.628906 622.949219 1031.992188 622.175781 1029.371094 C 621.40625 1026.75 620.582031 1024.148438 619.703125 1021.5625 C 618.824219 1018.976562 617.894531 1016.410156 616.910156 1013.859375 C 615.925781 1011.3125 614.890625 1008.785156 613.800781 1006.28125 C 612.714844 1003.773438 611.574219 1001.292969 610.386719 998.832031 C 609.195312 996.375 607.957031 993.941406 606.667969 991.535156 C 605.378906 989.125 604.039062 986.746094 602.652344 984.394531 L 702.070312 884.972656 C 707.988281 889.800781 714.015625 894.488281 720.148438 899.039062 C 726.285156 903.589844 732.519531 908 738.855469 912.261719 C 745.191406 916.527344 751.621094 920.644531 758.144531 924.613281 C 764.671875 928.585938 771.28125 932.402344 777.984375 936.070312 C 784.683594 939.734375 791.464844 943.246094 798.324219 946.601562 C 805.1875 949.953125 812.121094 953.148438 819.128906 956.1875 C 826.136719 959.222656 833.210938 962.097656 840.351562 964.808594 C 847.492188 967.519531 854.6875 970.066406 861.945312 972.449219 C 869.203125 974.832031 876.511719 977.042969 883.867188 979.089844 C 891.226562 981.136719 898.628906 983.011719 906.074219 984.71875 C 913.515625 986.425781 920.996094 987.960938 928.511719 989.324219 C 936.027344 990.6875 943.570312 991.875 951.136719 992.894531 C 958.707031 993.910156 966.296875 994.753906 973.90625 995.421875 C 981.511719 996.089844 989.132812 996.582031 996.765625 996.902344 C 1004.394531 997.21875 1012.027344 997.363281 1019.667969 997.332031 C 1027.304688 997.300781 1034.9375 997.09375 1042.5625 996.710938 C 1050.191406 996.328125 1057.808594 995.773438 1065.410156 995.042969 C 1073.011719 994.308594 1080.59375 993.40625 1088.15625 992.324219 C 1095.714844 991.246094 1103.246094 989.992188 1110.75 988.566406 C 1118.253906 987.144531 1125.722656 985.546875 1133.152344 983.777344 C 1140.582031 982.011719 1147.96875 980.074219 1155.308594 977.964844 C 1162.648438 975.859375 1169.9375 973.585938 1177.175781 971.144531 C 1184.410156 968.703125 1191.589844 966.097656 1198.707031 963.324219 C 1205.824219 960.554688 1212.875 957.621094 1219.855469 954.527344 C 1226.839844 951.433594 1233.746094 948.179688 1240.578125 944.769531 C 1247.414062 941.355469 1254.164062 937.789062 1260.832031 934.070312 C 1267.503906 930.347656 1274.082031 926.476562 1280.574219 922.453125 C 1287.066406 918.429688 1293.464844 914.257812 1299.765625 909.941406 C 1306.0625 905.625 1312.261719 901.164062 1318.359375 896.5625 C 1324.453125 891.960938 1330.441406 887.222656 1336.320312 882.347656 C 1342.195312 877.46875 1347.960938 872.460938 1353.609375 867.320312 C 1359.257812 862.179688 1364.785156 856.910156 1370.191406 851.515625 C 1375.886719 845.707031 1381.441406 839.761719 1386.851562 833.679688 C 1392.261719 827.601562 1397.519531 821.394531 1402.628906 815.058594 C 1407.734375 808.722656 1412.6875 802.265625 1417.480469 795.691406 C 1422.277344 789.117188 1426.910156 782.429688 1431.382812 775.628906 C 1435.851562 768.832031 1440.15625 761.925781 1444.292969 754.917969 C 1448.429688 747.910156 1452.394531 740.804688 1456.183594 733.605469 C 1459.976562 726.402344 1463.59375 719.117188 1467.03125 711.738281 C 1470.46875 704.363281 1473.726562 696.910156 1476.804688 689.375 C 1479.882812 681.839844 1482.773438 674.238281 1485.484375 666.5625 C 1488.191406 658.890625 1490.710938 651.15625 1493.046875 643.359375 C 1495.378906 635.5625 1497.523438 627.714844 1499.476562 619.8125 C 1501.429688 611.914062 1503.1875 603.972656 1504.757812 595.984375 C 1506.324219 588 1507.699219 579.980469 1508.878906 571.929688 C 1510.058594 563.875 1511.039062 555.800781 1511.828125 547.703125 C 1512.617188 539.601562 1513.207031 531.488281 1513.601562 523.359375 C 1513.996094 515.230469 1514.191406 507.097656 1514.191406 498.960938 C 1514.191406 490.820312 1513.996094 482.6875 1513.601562 474.558594 C 1513.207031 466.429688 1512.617188 458.316406 1511.828125 450.21875 C 1511.039062 442.117188 1510.058594 434.042969 1508.878906 425.988281 C 1507.699219 417.9375 1506.324219 409.917969 1504.757812 401.933594 C 1503.1875 393.949219 1501.429688 386.003906 1499.476562 378.105469 C 1497.523438 370.203125 1495.378906 362.355469 1493.046875 354.558594 C 1490.710938 346.765625 1488.191406 339.027344 1485.484375 331.355469 C 1482.773438 323.679688 1479.882812 316.078125 1476.804688 308.542969 C 1473.726562 301.007812 1470.46875 293.554688 1467.03125 286.179688 C 1463.59375 278.804688 1459.976562 271.515625 1456.183594 264.3125 C 1452.394531 257.113281 1448.429688 250.007812 1444.292969 243 C 1440.15625 235.992188 1435.851562 229.089844 1431.382812 222.289062 C 1426.910156 215.488281 1422.277344 208.800781 1417.480469 202.226562 C 1412.6875 195.652344 1407.734375 189.195312 1402.628906 182.859375 C 1397.519531 176.527344 1392.261719 170.316406 1386.851562 164.238281 C 1381.441406 158.15625 1375.886719 152.210938 1370.191406 146.402344 C 1364.40625 140.667969 1358.484375 135.078125 1352.425781 129.636719 C 1346.363281 124.191406 1340.175781 118.902344 1333.855469 113.761719 C 1327.535156 108.625 1321.09375 103.644531 1314.527344 98.820312 C 1307.964844 94 1301.285156 89.339844 1294.492188 84.847656 C 1287.699219 80.351562 1280.796875 76.027344 1273.792969 71.871094 C 1266.785156 67.71875 1259.683594 63.738281 1252.480469 59.929688 C 1245.28125 56.125 1237.988281 52.496094 1230.609375 49.050781 C 1223.230469 45.601562 1215.769531 42.335938 1208.230469 39.253906 C 1200.691406 36.175781 1193.078125 33.28125 1185.398438 30.574219 C 1177.714844 27.867188 1169.96875 25.347656 1162.164062 23.023438 C 1154.359375 20.695312 1146.5 18.5625 1138.589844 16.621094 C 1130.679688 14.679688 1122.726562 12.933594 1114.726562 11.386719 C 1106.730469 9.835938 1098.703125 8.484375 1090.636719 7.328125 C 1082.574219 6.171875 1074.488281 5.214844 1066.378906 4.457031 C 1058.269531 3.699219 1050.144531 3.140625 1042.007812 2.785156 C 1033.871094 2.425781 1025.730469 2.265625 1017.582031 2.308594 Z M 501.886719 1155.710938 L 290.332031 1367.214844 C 289.15625 1368.335938 287.960938 1369.425781 286.734375 1370.492188 C 285.511719 1371.554688 284.261719 1372.585938 282.988281 1373.589844 C 281.714844 1374.59375 280.414062 1375.566406 279.09375 1376.507812 C 277.773438 1377.449219 276.433594 1378.359375 275.070312 1379.238281 C 273.707031 1380.113281 272.320312 1380.960938 270.917969 1381.769531 C 269.515625 1382.582031 268.09375 1383.359375 266.652344 1384.105469 C 265.210938 1384.847656 263.753906 1385.558594 262.277344 1386.234375 C 260.800781 1386.90625 259.3125 1387.546875 257.808594 1388.148438 C 256.300781 1388.753906 254.78125 1389.320312 253.25 1389.851562 C 251.71875 1390.382812 250.175781 1390.875 248.617188 1391.335938 C 247.0625 1391.792969 245.496094 1392.210938 243.921875 1392.59375 C 242.34375 1392.976562 240.761719 1393.324219 239.167969 1393.628906 C 237.574219 1393.9375 235.976562 1394.207031 234.371094 1394.4375 C 232.765625 1394.667969 231.15625 1394.859375 229.542969 1395.015625 C 227.929688 1395.167969 226.3125 1395.285156 224.691406 1395.363281 C 223.070312 1395.441406 221.449219 1395.480469 219.828125 1395.480469 C 218.207031 1395.480469 216.585938 1395.441406 214.964844 1395.363281 C 213.347656 1395.285156 211.730469 1395.167969 210.117188 1395.015625 C 208.5 1394.859375 206.890625 1394.667969 205.285156 1394.4375 C 203.679688 1394.207031 202.082031 1393.9375 200.488281 1393.628906 C 198.898438 1393.324219 197.3125 1392.976562 195.738281 1392.59375 C 194.160156 1392.210938 192.597656 1391.792969 191.039062 1391.335938 C 189.484375 1390.875 187.941406 1390.382812 186.40625 1389.851562 C 184.875 1389.320312 183.355469 1388.753906 181.851562 1388.148438 C 180.347656 1387.546875 178.855469 1386.90625 177.382812 1386.234375 C 175.90625 1385.558594 174.449219 1384.847656 173.007812 1384.105469 C 171.566406 1383.359375 170.144531 1382.582031 168.738281 1381.769531 C 167.335938 1380.960938 165.953125 1380.113281 164.589844 1379.238281 C 163.226562 1378.359375 161.882812 1377.449219 160.5625 1376.507812 C 159.242188 1375.566406 157.945312 1374.59375 156.671875 1373.589844 C 155.398438 1372.585938 154.148438 1371.554688 152.921875 1370.492188 C 151.699219 1369.425781 150.5 1368.335938 149.328125 1367.214844 C 148.210938 1366.039062 147.121094 1364.839844 146.0625 1363.613281 C 145.003906 1362.386719 143.972656 1361.136719 142.972656 1359.863281 C 141.972656 1358.585938 141.003906 1357.289062 140.0625 1355.96875 C 139.125 1354.644531 138.21875 1353.304688 137.34375 1351.9375 C 136.46875 1350.574219 135.628906 1349.191406 134.816406 1347.785156 C 134.007812 1346.382812 133.234375 1344.960938 132.492188 1343.519531 C 131.75 1342.078125 131.042969 1340.617188 130.371094 1339.144531 C 129.699219 1337.667969 129.0625 1336.179688 128.460938 1334.675781 C 127.859375 1333.167969 127.296875 1331.652344 126.765625 1330.117188 C 126.238281 1328.585938 125.746094 1327.042969 125.289062 1325.488281 C 124.832031 1323.933594 124.414062 1322.367188 124.03125 1320.792969 C 123.652344 1319.21875 123.308594 1317.632812 123 1316.042969 C 122.695312 1314.449219 122.425781 1312.851562 122.195312 1311.25 C 121.964844 1309.644531 121.773438 1308.035156 121.621094 1306.421875 C 121.46875 1304.808594 121.351562 1303.191406 121.273438 1301.574219 C 121.199219 1299.953125 121.160156 1298.335938 121.160156 1296.714844 C 121.160156 1295.09375 121.199219 1293.472656 121.273438 1291.855469 C 121.351562 1290.234375 121.46875 1288.621094 121.621094 1287.003906 C 121.773438 1285.390625 121.964844 1283.785156 122.195312 1282.179688 C 122.425781 1280.574219 122.695312 1278.976562 123 1277.386719 C 123.308594 1275.792969 123.652344 1274.210938 124.03125 1272.636719 C 124.414062 1271.058594 124.832031 1269.496094 125.289062 1267.941406 C 125.746094 1266.382812 126.238281 1264.839844 126.765625 1263.308594 C 127.296875 1261.777344 127.859375 1260.257812 128.460938 1258.753906 C 129.0625 1257.25 129.699219 1255.757812 130.371094 1254.285156 C 131.042969 1252.808594 131.75 1251.351562 132.492188 1249.910156 C 133.234375 1248.46875 134.007812 1247.046875 134.816406 1245.640625 C 135.628906 1244.238281 136.46875 1242.851562 137.34375 1241.488281 C 138.21875 1240.125 139.125 1238.78125 140.0625 1237.460938 C 141.003906 1236.140625 141.972656 1234.839844 142.972656 1233.566406 C 143.972656 1232.289062 145.003906 1231.039062 146.0625 1229.8125 C 147.121094 1228.585938 148.210938 1227.386719 149.328125 1226.210938 L 360.832031 1014.65625 C 361.988281 1013.503906 363.167969 1012.378906 364.378906 1011.28125 C 365.585938 1010.1875 366.824219 1009.121094 368.085938 1008.085938 C 369.347656 1007.046875 370.632812 1006.042969 371.945312 1005.074219 C 373.253906 1004.101562 374.589844 1003.160156 375.945312 1002.253906 C 377.304688 1001.347656 378.683594 1000.472656 380.082031 999.632812 C 381.484375 998.796875 382.902344 997.992188 384.34375 997.222656 C 385.78125 996.453125 387.238281 995.71875 388.714844 995.019531 C 390.191406 994.324219 391.683594 993.660156 393.191406 993.035156 C 394.699219 992.410156 396.21875 991.824219 397.757812 991.273438 C 399.292969 990.726562 400.84375 990.214844 402.40625 989.738281 C 403.96875 989.265625 405.539062 988.832031 407.125 988.433594 C 408.707031 988.035156 410.300781 987.679688 411.902344 987.359375 C 413.5 987.042969 415.109375 986.761719 416.722656 986.523438 C 418.339844 986.285156 419.957031 986.085938 421.582031 985.925781 C 423.207031 985.765625 424.835938 985.644531 426.464844 985.566406 C 428.09375 985.484375 429.726562 985.445312 431.359375 985.445312 C 432.992188 985.445312 434.621094 985.484375 436.253906 985.566406 C 437.882812 985.644531 439.511719 985.765625 441.136719 985.925781 C 442.757812 986.085938 444.378906 986.285156 445.992188 986.523438 C 447.609375 986.761719 449.214844 987.042969 450.816406 987.359375 C 452.417969 987.679688 454.011719 988.035156 455.59375 988.433594 C 457.175781 988.832031 458.75 989.265625 460.3125 989.738281 C 461.875 990.214844 463.421875 990.726562 464.960938 991.273438 C 466.496094 991.824219 468.019531 992.410156 469.527344 993.035156 C 471.035156 993.660156 472.527344 994.324219 474.003906 995.019531 C 475.476562 995.71875 476.9375 996.453125 478.375 997.222656 C 479.816406 997.992188 481.234375 998.796875 482.636719 999.632812 C 484.035156 1000.472656 485.414062 1001.347656 486.769531 1002.253906 C 488.128906 1003.160156 489.460938 1004.101562 490.773438 1005.074219 C 492.085938 1006.046875 493.371094 1007.050781 494.632812 1008.085938 C 495.894531 1009.121094 497.128906 1010.1875 498.339844 1011.28125 C 499.550781 1012.378906 500.730469 1013.503906 501.886719 1014.65625 C 503.039062 1015.8125 504.164062 1016.992188 505.261719 1018.203125 C 506.355469 1019.414062 507.421875 1020.648438 508.457031 1021.910156 C 509.492188 1023.171875 510.496094 1024.457031 511.46875 1025.769531 C 512.441406 1027.082031 513.382812 1028.414062 514.289062 1029.773438 C 515.195312 1031.128906 516.070312 1032.507812 516.90625 1033.90625 C 517.746094 1035.308594 518.550781 1036.726562 519.320312 1038.167969 C 520.089844 1039.605469 520.824219 1041.0625 521.523438 1042.539062 C 522.21875 1044.015625 522.882812 1045.507812 523.507812 1047.015625 C 524.128906 1048.523438 524.71875 1050.046875 525.269531 1051.582031 C 525.816406 1053.121094 526.328125 1054.667969 526.804688 1056.230469 C 527.277344 1057.792969 527.710938 1059.367188 528.109375 1060.949219 C 528.503906 1062.53125 528.863281 1064.125 529.183594 1065.726562 C 529.5 1067.328125 529.777344 1068.933594 530.019531 1070.550781 C 530.257812 1072.164062 530.457031 1073.785156 530.617188 1075.40625 C 530.777344 1077.03125 530.898438 1078.660156 530.976562 1080.289062 C 531.058594 1081.921875 531.097656 1083.550781 531.097656 1085.183594 C 531.097656 1086.816406 531.058594 1088.449219 530.976562 1090.078125 C 530.898438 1091.707031 530.777344 1093.335938 530.617188 1094.960938 C 530.457031 1096.585938 530.257812 1098.203125 530.019531 1099.820312 C 529.777344 1101.433594 529.5 1103.042969 529.183594 1104.640625 C 528.863281 1106.242188 528.503906 1107.835938 528.109375 1109.417969 C 527.710938 1111.003906 527.277344 1112.574219 526.804688 1114.136719 C 526.328125 1115.699219 525.816406 1117.25 525.269531 1118.785156 C 524.71875 1120.320312 524.128906 1121.84375 523.507812 1123.351562 C 522.882812 1124.859375 522.21875 1126.351562 521.523438 1127.828125 C 520.824219 1129.304688 520.089844 1130.761719 519.320312 1132.199219 C 518.550781 1133.640625 517.746094 1135.058594 516.90625 1136.460938 C 516.070312 1137.859375 515.195312 1139.238281 514.289062 1140.597656 C 513.382812 1141.953125 512.441406 1143.289062 511.46875 1144.597656 C 510.496094 1145.910156 509.492188 1147.195312 508.457031 1148.457031 C 507.421875 1149.71875 506.355469 1150.957031 505.261719 1152.164062 C 504.164062 1153.375 503.039062 1154.554688 501.886719 1155.710938 Z M 1299.640625 781.015625 C 1295.023438 785.632812 1290.296875 790.132812 1285.460938 794.515625 C 1280.621094 798.898438 1275.679688 803.164062 1270.636719 807.304688 C 1265.589844 811.445312 1260.445312 815.460938 1255.199219 819.347656 C 1249.957031 823.238281 1244.621094 826.996094 1239.195312 830.621094 C 1233.765625 834.25 1228.25 837.742188 1222.652344 841.097656 C 1217.054688 844.453125 1211.375 847.667969 1205.617188 850.746094 C 1199.859375 853.824219 1194.03125 856.757812 1188.128906 859.550781 C 1182.230469 862.339844 1176.261719 864.984375 1170.230469 867.484375 C 1164.199219 869.980469 1158.109375 872.332031 1151.964844 874.53125 C 1145.816406 876.730469 1139.621094 878.777344 1133.375 880.671875 C 1127.128906 882.566406 1120.835938 884.304688 1114.503906 885.894531 C 1108.171875 887.480469 1101.804688 888.910156 1095.402344 890.183594 C 1089 891.457031 1082.570312 892.570312 1076.113281 893.53125 C 1069.65625 894.488281 1063.179688 895.285156 1056.679688 895.925781 C 1050.183594 896.566406 1043.675781 897.046875 1037.15625 897.367188 C 1030.636719 897.6875 1024.113281 897.847656 1017.582031 897.847656 C 1011.054688 897.847656 1004.53125 897.6875 998.011719 897.367188 C 991.492188 897.046875 984.980469 896.566406 978.484375 895.925781 C 971.988281 895.285156 965.511719 894.488281 959.054688 893.527344 C 952.597656 892.570312 946.167969 891.457031 939.765625 890.183594 C 933.363281 888.910156 926.992188 887.480469 920.660156 885.894531 C 914.328125 884.304688 908.039062 882.566406 901.792969 880.671875 C 895.546875 878.777344 889.347656 876.730469 883.203125 874.53125 C 877.054688 872.332031 870.96875 869.980469 864.9375 867.484375 C 858.90625 864.984375 852.9375 862.339844 847.039062 859.550781 C 841.136719 856.757812 835.304688 853.824219 829.550781 850.746094 C 823.792969 847.667969 818.113281 844.453125 812.515625 841.097656 C 806.914062 837.742188 801.402344 834.25 795.972656 830.621094 C 790.546875 826.996094 785.210938 823.238281 779.964844 819.347656 C 774.722656 815.460938 769.578125 811.445312 764.53125 807.304688 C 759.484375 803.164062 754.542969 798.898438 749.707031 794.515625 C 744.871094 790.132812 740.144531 785.632812 735.527344 781.015625 C 730.910156 776.398438 726.410156 771.671875 722.027344 766.835938 C 717.644531 762 713.378906 757.058594 709.238281 752.011719 C 705.097656 746.964844 701.082031 741.820312 697.195312 736.578125 C 693.304688 731.332031 689.546875 725.996094 685.921875 720.570312 C 682.292969 715.140625 678.800781 709.628906 675.445312 704.027344 C 672.089844 698.429688 668.875 692.75 665.796875 686.992188 C 662.71875 681.234375 659.785156 675.40625 656.992188 669.503906 C 654.203125 663.605469 651.558594 657.636719 649.058594 651.605469 C 646.5625 645.574219 644.210938 639.488281 642.011719 633.339844 C 639.8125 627.195312 637.765625 620.996094 635.871094 614.75 C 633.976562 608.503906 632.238281 602.214844 630.648438 595.882812 C 629.0625 589.546875 627.632812 583.179688 626.359375 576.777344 C 625.085938 570.375 623.972656 563.945312 623.011719 557.488281 C 622.054688 551.03125 621.257812 544.554688 620.617188 538.058594 C 619.976562 531.558594 619.496094 525.050781 619.175781 518.53125 C 618.855469 512.011719 618.695312 505.488281 618.695312 498.960938 C 618.695312 492.429688 618.855469 485.90625 619.175781 479.386719 C 619.496094 472.867188 619.976562 466.359375 620.617188 459.863281 C 621.257812 453.363281 622.054688 446.886719 623.011719 440.429688 C 623.972656 433.972656 625.085938 427.542969 626.359375 421.140625 C 627.632812 414.738281 629.0625 408.371094 630.648438 402.039062 C 632.238281 395.703125 633.976562 389.414062 635.871094 383.167969 C 637.765625 376.921875 639.8125 370.722656 642.011719 364.578125 C 644.210938 358.429688 646.5625 352.34375 649.058594 346.3125 C 651.558594 340.28125 654.203125 334.3125 656.992188 328.414062 C 659.785156 322.511719 662.71875 316.683594 665.796875 310.925781 C 668.875 305.167969 672.089844 299.488281 675.445312 293.890625 C 678.800781 288.289062 682.292969 282.777344 685.921875 277.347656 C 689.546875 271.921875 693.304688 266.585938 697.195312 261.34375 C 701.082031 256.097656 705.097656 250.953125 709.238281 245.90625 C 713.378906 240.863281 717.644531 235.917969 722.027344 231.082031 C 726.410156 226.246094 730.910156 221.519531 735.527344 216.902344 C 740.175781 212.34375 744.933594 207.902344 749.796875 203.578125 C 754.664062 199.25 759.628906 195.042969 764.699219 190.957031 C 769.765625 186.871094 774.929688 182.910156 780.191406 179.074219 C 785.453125 175.238281 790.800781 171.53125 796.242188 167.953125 C 801.679688 164.378906 807.203125 160.9375 812.8125 157.625 C 818.417969 154.316406 824.101562 151.148438 829.863281 148.113281 C 835.625 145.082031 841.453125 142.1875 847.355469 139.4375 C 853.257812 136.6875 859.222656 134.082031 865.246094 131.621094 C 871.273438 129.160156 877.359375 126.84375 883.496094 124.675781 C 889.636719 122.511719 895.824219 120.496094 902.0625 118.628906 C 908.300781 116.761719 914.578125 115.046875 920.898438 113.484375 C 927.21875 111.921875 933.574219 110.515625 939.960938 109.257812 C 946.351562 108.003906 952.765625 106.90625 959.207031 105.964844 C 965.648438 105.019531 972.109375 104.234375 978.589844 103.601562 C 985.070312 102.972656 991.5625 102.5 998.0625 102.183594 C 1004.566406 101.871094 1011.074219 101.710938 1017.582031 101.710938 C 1024.09375 101.710938 1030.601562 101.871094 1037.105469 102.183594 C 1043.605469 102.5 1050.097656 102.972656 1056.578125 103.601562 C 1063.058594 104.234375 1069.519531 105.019531 1075.960938 105.964844 C 1082.402344 106.90625 1088.816406 108.003906 1095.207031 109.257812 C 1101.59375 110.515625 1107.949219 111.921875 1114.269531 113.484375 C 1120.589844 115.046875 1126.867188 116.761719 1133.105469 118.628906 C 1139.339844 120.496094 1145.53125 122.511719 1151.667969 124.675781 C 1157.808594 126.84375 1163.890625 129.160156 1169.917969 131.621094 C 1175.945312 134.082031 1181.910156 136.6875 1187.8125 139.4375 C 1193.710938 142.1875 1199.542969 145.082031 1205.304688 148.113281 C 1211.0625 151.148438 1216.746094 154.316406 1222.355469 157.625 C 1227.960938 160.9375 1233.484375 164.378906 1238.925781 167.953125 C 1244.367188 171.53125 1249.714844 175.238281 1254.976562 179.074219 C 1260.238281 182.910156 1265.402344 186.871094 1270.46875 190.957031 C 1275.539062 195.042969 1280.503906 199.25 1285.371094 203.578125 C 1290.234375 207.902344 1294.992188 212.34375 1299.640625 216.902344 C 1304.199219 221.550781 1308.640625 226.308594 1312.96875 231.171875 C 1317.296875 236.035156 1321.503906 241.003906 1325.589844 246.070312 C 1329.675781 251.140625 1333.640625 256.304688 1337.476562 261.5625 C 1341.3125 266.824219 1345.019531 272.175781 1348.597656 277.613281 C 1352.171875 283.054688 1355.617188 288.578125 1358.925781 294.183594 C 1362.234375 299.789062 1365.40625 305.476562 1368.441406 311.234375 C 1371.472656 316.996094 1374.367188 322.828125 1377.117188 328.726562 C 1379.867188 334.628906 1382.476562 340.59375 1384.9375 346.621094 C 1387.398438 352.648438 1389.714844 358.730469 1391.878906 364.871094 C 1394.046875 371.007812 1396.066406 377.199219 1397.933594 383.433594 C 1399.796875 389.671875 1401.511719 395.949219 1403.074219 402.269531 C 1404.640625 408.589844 1406.046875 414.945312 1407.300781 421.335938 C 1408.554688 427.722656 1409.65625 434.140625 1410.597656 440.582031 C 1411.542969 447.023438 1412.328125 453.484375 1412.957031 459.964844 C 1413.589844 466.445312 1414.0625 472.9375 1414.378906 479.4375 C 1414.691406 485.941406 1414.851562 492.449219 1414.851562 498.960938 C 1414.851562 505.46875 1414.691406 511.976562 1414.378906 518.480469 C 1414.0625 524.984375 1413.589844 531.472656 1412.957031 537.953125 C 1412.328125 544.433594 1411.542969 550.894531 1410.597656 557.335938 C 1409.65625 563.78125 1408.554688 570.195312 1407.300781 576.582031 C 1406.046875 582.972656 1404.636719 589.328125 1403.074219 595.648438 C 1401.511719 601.96875 1399.796875 608.246094 1397.929688 614.484375 C 1396.066406 620.71875 1394.046875 626.910156 1391.878906 633.046875 C 1389.714844 639.1875 1387.398438 645.269531 1384.9375 651.296875 C 1382.476562 657.324219 1379.867188 663.289062 1377.117188 669.191406 C 1374.367188 675.089844 1371.472656 680.921875 1368.441406 686.683594 C 1365.40625 692.445312 1362.234375 698.128906 1358.925781 703.734375 C 1355.617188 709.339844 1352.171875 714.863281 1348.597656 720.304688 C 1345.019531 725.746094 1341.3125 731.09375 1337.476562 736.355469 C 1333.640625 741.613281 1329.675781 746.777344 1325.589844 751.847656 C 1321.503906 756.914062 1317.296875 761.882812 1312.96875 766.746094 C 1308.640625 771.609375 1304.199219 776.367188 1299.640625 781.015625 Z M 1299.640625 781.015625 " fill-opacity="1" fill-rule="nonzero"/><path fill="#d9d9d9" d="M 1017.582031 199.800781 C 1012.683594 199.789062 1007.789062 199.894531 1002.898438 200.125 C 998.003906 200.351562 993.117188 200.703125 988.242188 201.171875 C 983.367188 201.644531 978.507812 202.234375 973.660156 202.945312 C 968.8125 203.65625 963.988281 204.484375 959.179688 205.433594 C 954.375 206.382812 949.597656 207.449219 944.84375 208.636719 C 940.089844 209.820312 935.371094 211.125 930.683594 212.542969 C 925.992188 213.960938 921.34375 215.496094 916.730469 217.144531 C 912.117188 218.792969 907.550781 220.558594 903.023438 222.433594 C 898.5 224.308594 894.023438 226.292969 889.59375 228.390625 C 885.167969 230.484375 880.796875 232.691406 876.476562 235.003906 C 872.160156 237.316406 867.902344 239.734375 863.703125 242.253906 C 859.503906 244.777344 855.371094 247.40625 851.300781 250.132812 C 847.234375 252.859375 843.234375 255.6875 839.304688 258.609375 C 835.375 261.535156 831.519531 264.558594 827.742188 267.671875 C 823.960938 270.789062 820.261719 273.996094 816.640625 277.296875 C 813.019531 280.59375 809.484375 283.980469 806.027344 287.453125 C 804.875 288.609375 803.78125 289.816406 802.746094 291.078125 C 801.707031 292.34375 800.738281 293.652344 799.832031 295.007812 C 798.921875 296.367188 798.085938 297.765625 797.316406 299.207031 C 796.546875 300.644531 795.847656 302.121094 795.226562 303.628906 C 794.601562 305.136719 794.050781 306.671875 793.578125 308.234375 C 793.101562 309.796875 792.707031 311.378906 792.386719 312.980469 C 792.070312 314.582031 791.832031 316.195312 791.671875 317.820312 C 791.511719 319.445312 791.429688 321.074219 791.429688 322.707031 C 791.429688 324.339844 791.511719 325.964844 791.671875 327.589844 C 791.832031 329.214844 792.070312 330.828125 792.386719 332.429688 C 792.707031 334.03125 793.101562 335.613281 793.578125 337.175781 C 794.050781 338.738281 794.601562 340.273438 795.226562 341.78125 C 795.847656 343.289062 796.546875 344.765625 797.316406 346.203125 C 798.085938 347.644531 798.921875 349.042969 799.832031 350.402344 C 800.738281 351.757812 801.707031 353.070312 802.746094 354.332031 C 803.78125 355.59375 804.875 356.800781 806.027344 357.957031 C 807.199219 359.082031 808.421875 360.148438 809.695312 361.15625 C 810.96875 362.167969 812.285156 363.113281 813.648438 363.996094 C 815.011719 364.875 816.414062 365.691406 817.855469 366.441406 C 819.296875 367.1875 820.773438 367.863281 822.277344 368.472656 C 823.785156 369.078125 825.316406 369.613281 826.875 370.070312 C 828.433594 370.53125 830.007812 370.917969 831.601562 371.226562 C 833.195312 371.535156 834.800781 371.765625 836.417969 371.921875 C 838.035156 372.078125 839.65625 372.15625 841.28125 372.15625 C 842.902344 372.15625 844.523438 372.078125 846.140625 371.921875 C 847.757812 371.765625 849.363281 371.535156 850.957031 371.226562 C 852.550781 370.917969 854.128906 370.53125 855.683594 370.070312 C 857.242188 369.613281 858.773438 369.078125 860.28125 368.472656 C 861.789062 367.863281 863.261719 367.1875 864.703125 366.441406 C 866.144531 365.691406 867.546875 364.875 868.910156 363.996094 C 870.273438 363.113281 871.59375 362.167969 872.867188 361.15625 C 874.136719 360.148438 875.359375 359.082031 876.53125 357.957031 C 881.140625 353.320312 885.964844 348.925781 891.007812 344.769531 C 896.050781 340.613281 901.289062 336.714844 906.71875 333.078125 C 912.148438 329.4375 917.742188 326.074219 923.503906 322.992188 C 929.265625 319.90625 935.167969 317.113281 941.203125 314.609375 C 947.242188 312.109375 953.390625 309.910156 959.644531 308.019531 C 965.898438 306.125 972.234375 304.546875 978.644531 303.277344 C 985.058594 302.011719 991.515625 301.0625 998.023438 300.4375 C 1004.527344 299.808594 1011.046875 299.503906 1017.582031 299.519531 C 1019.214844 299.519531 1020.84375 299.441406 1022.472656 299.28125 C 1024.097656 299.121094 1025.710938 298.882812 1027.3125 298.5625 C 1028.914062 298.242188 1030.496094 297.847656 1032.058594 297.375 C 1033.621094 296.898438 1035.15625 296.351562 1036.664062 295.726562 C 1038.171875 295.101562 1039.648438 294.402344 1041.085938 293.632812 C 1042.527344 292.863281 1043.925781 292.023438 1045.285156 291.117188 C 1046.640625 290.210938 1047.953125 289.238281 1049.214844 288.203125 C 1050.476562 287.167969 1051.683594 286.070312 1052.839844 284.917969 C 1053.996094 283.761719 1055.089844 282.554688 1056.125 281.292969 C 1057.160156 280.027344 1058.132812 278.71875 1059.039062 277.363281 C 1059.949219 276.003906 1060.785156 274.605469 1061.554688 273.164062 C 1062.324219 271.722656 1063.023438 270.25 1063.648438 268.742188 C 1064.273438 267.234375 1064.824219 265.695312 1065.296875 264.132812 C 1065.769531 262.570312 1066.167969 260.988281 1066.484375 259.386719 C 1066.804688 257.785156 1067.042969 256.171875 1067.203125 254.546875 C 1067.363281 252.921875 1067.441406 251.292969 1067.441406 249.660156 C 1067.441406 248.027344 1067.363281 246.398438 1067.203125 244.773438 C 1067.042969 243.148438 1066.804688 241.535156 1066.484375 239.933594 C 1066.167969 238.332031 1065.769531 236.75 1065.296875 235.1875 C 1064.824219 233.625 1064.273438 232.089844 1063.648438 230.582031 C 1063.023438 229.070312 1062.324219 227.597656 1061.554688 226.15625 C 1060.785156 224.71875 1059.949219 223.316406 1059.039062 221.960938 C 1058.132812 220.601562 1057.160156 219.292969 1056.125 218.03125 C 1055.089844 216.769531 1053.996094 215.558594 1052.839844 214.40625 C 1051.683594 213.25 1050.476562 212.15625 1049.214844 211.117188 C 1047.953125 210.082031 1046.640625 209.113281 1045.285156 208.203125 C 1043.925781 207.296875 1042.527344 206.457031 1041.085938 205.6875 C 1039.648438 204.917969 1038.171875 204.222656 1036.664062 203.597656 C 1035.15625 202.972656 1033.621094 202.421875 1032.058594 201.949219 C 1030.496094 201.472656 1028.914062 201.078125 1027.3125 200.757812 C 1025.710938 200.441406 1024.097656 200.203125 1022.472656 200.042969 C 1020.84375 199.882812 1019.214844 199.800781 1017.582031 199.800781 Z M 1017.582031 199.800781 " fill-opacity="1" fill-rule="nonzero"/><g fill="#ffc300" fill-opacity="1"><g transform="translate(905.167046, 636.059446)"><g><path d="M 0.734375 -0.828125 C 0.734375 -1.097656 0.820312 -1.316406 1 -1.484375 C 1.1875 -1.648438 1.414062 -1.734375 1.6875 -1.734375 C 1.96875 -1.734375 2.195312 -1.648438 2.375 -1.484375 C 2.5625 -1.316406 2.65625 -1.097656 2.65625 -0.828125 C 2.65625 -0.566406 2.5625 -0.351562 2.375 -0.1875 C 2.195312 -0.0195312 1.96875 0.0625 1.6875 0.0625 C 1.414062 0.0625 1.1875 -0.0195312 1 -0.1875 C 0.820312 -0.351562 0.734375 -0.566406 0.734375 -0.828125 Z M 0.734375 -0.828125 "/></g></g></g></svg>